<svg width="27" height="31" viewBox="0 0 27 31" fill="none" xmlns="http://www.w3.org/2000/svg">
<g id="C++_Logo 1" clip-path="url(#clip0_2326_6132)">
<path id="Vector" d="M26.6565 23.2499C26.8684 22.8755 27 22.4536 27 22.0748V8.925C27 8.54618 26.8685 8.12441 26.6566 7.75L13.5 15.5L26.6565 23.2499Z" fill="#00599C"/>
<path id="Vector_2" d="M14.6694 30.7158L25.8311 24.1409C26.1527 23.9515 26.4449 23.6245 26.6567 23.25L13.5002 15.5L0.34375 23.25C0.555603 23.6245 0.847926 23.9516 1.16937 24.1409L12.3311 30.7158C12.9741 31.0946 14.0264 31.0946 14.6694 30.7158Z" fill="#004482"/>
<path id="Vector_3" d="M26.6566 7.74995C26.4446 7.37545 26.1523 7.04839 25.8309 6.85898L14.6691 0.284118C14.0261 -0.094706 12.9739 -0.094706 12.3309 0.284118L1.16912 6.85898C0.526059 7.23771 0 8.16749 0 8.92505V22.0749C0 22.4537 0.131559 22.8755 0.3435 23.25L13.5 15.5L26.6566 7.74995Z" fill="#659AD2"/>
<g id="Group">
<path id="Vector_4" d="M13.5 24.6824C8.53738 24.6824 4.5 20.5632 4.5 15.4999C4.5 10.4366 8.53738 6.31738 13.5 6.31738C16.7022 6.31738 19.6887 8.07556 21.2939 10.9058L17.3989 13.2054C16.5956 11.7887 15.1015 10.9086 13.5 10.9086C11.0186 10.9086 9 12.9682 9 15.4999C9 18.0315 11.0186 20.0912 13.5 20.0912C15.1016 20.0912 16.5957 19.2111 17.3992 17.7942L21.2942 20.0937C19.689 22.9241 16.7024 24.6824 13.5 24.6824Z" fill="white"/>
</g>
<g id="Group_2">
<path id="Vector_5" d="M22.5 14.99H21.4999V13.9697H20.5001V14.99H19.5V16.0102H20.5001V17.0306H21.4999V16.0102H22.5V14.99Z" fill="white"/>
</g>
<g id="Group_3">
<path id="Vector_6" d="M26.25 14.99H25.2499V13.9697H24.2501V14.99H23.25V16.0102H24.2501V17.0306H25.2499V16.0102H26.25V14.99Z" fill="white"/>
</g>
</g>
<defs>
<clipPath id="clip0_2326_6132">
<rect width="27" height="31" fill="white"/>
</clipPath>
</defs>
</svg>
