<svg width="33" height="33" viewBox="0 0 33 33" fill="none" xmlns="http://www.w3.org/2000/svg">
<g id="C Sharp 1">
<path id="Vector" d="M31.0256 9.75576C31.0256 9.2098 30.9093 8.71753 30.6676 8.30579C30.4349 7.89409 30.0858 7.55398 29.6204 7.28547C25.7539 5.0568 21.8784 2.82818 18.0118 0.599515C16.9646 -0.000168741 15.9621 0.0177396 14.9239 0.626359C13.3844 1.53037 5.66916 5.95184 3.37788 7.28547C2.42911 7.83143 1.97266 8.67278 1.97266 9.76474V23.2261C1.97266 23.7631 2.089 24.2375 2.31276 24.6492C2.5455 25.0699 2.90351 25.4279 3.37788 25.7054C5.67814 27.039 13.3844 31.4515 14.9239 32.3645C15.9621 32.973 16.9735 32.9998 18.0118 32.3913C21.8784 30.1537 25.7539 27.934 29.6204 25.7054C30.1037 25.4279 30.4528 25.0788 30.6855 24.6492C30.9093 24.2375 31.0256 23.7631 31.0256 23.2261V9.75576Z" fill="#9A4993"/>
<path id="Vector_2" d="M16.535 16.4419L2.29492 24.6404C2.52766 25.0611 2.88567 25.4191 3.36003 25.6966C5.66029 27.0302 13.3666 31.4427 14.906 32.3557C15.9443 32.9643 16.9557 32.9912 17.9939 32.3825C21.8605 30.1449 25.736 27.9252 29.6026 25.6966C30.0859 25.4191 30.435 25.0701 30.6677 24.6404L16.535 16.4419Z" fill="#6A1577"/>
<path id="Vector_3" d="M12.3203 18.8674C13.1527 20.3174 14.7101 21.293 16.4912 21.293C18.2902 21.293 19.8566 20.3085 20.68 18.8406L16.536 16.4419L12.3203 18.8674Z" fill="#6A1577"/>
<path id="Vector_4" d="M31.0259 9.75612C31.0259 9.21017 30.9095 8.71789 30.6678 8.30615L16.5352 16.4421L30.6857 24.6407C30.9095 24.2289 31.0259 23.7546 31.0259 23.2175V9.75612Z" fill="#813084"/>
<g id="Group">
<path id="Vector_5" d="M20.6802 18.8404C19.8568 20.2993 18.2905 21.2928 16.4914 21.2928C14.7014 21.2928 13.144 20.3172 12.3206 18.8672C11.9178 18.1601 11.6851 17.3546 11.6851 16.4864C11.6851 13.8281 13.8332 11.68 16.4914 11.68C18.2636 11.68 19.8121 12.6467 20.6444 14.0787L24.8422 11.6621C23.1685 8.78013 20.0537 6.83789 16.4825 6.83789C11.148 6.83789 6.83398 11.1609 6.83398 16.4864C6.83398 18.2317 7.29937 19.8786 8.11388 21.2928C9.77864 24.1838 12.9113 26.1349 16.4914 26.1349C20.0806 26.1349 23.2132 24.1748 24.878 21.2659L20.6802 18.8404ZM25.9878 14.2041H25.0301V18.8314H25.9878V14.2041ZM28.109 14.2041H27.1513V18.8314H28.109V14.2041Z" fill="white"/>
<path id="Vector_6" d="M28.8871 14.9829H24.2598V15.9406H28.8871V14.9829ZM28.8871 17.0952H24.2598V18.0529H28.8871V17.0952Z" fill="white"/>
</g>
</g>
</svg>
