<svg xmlns="http://www.w3.org/2000/svg" width="19" height="19" viewBox="0 0 20 20" fill="none">
  <path d="M0.5 19.4995V9.82564C0.5 4.68981 4.87079 0.5 10.0856 0.5C15.2722 0.5 19.5 4.8411 19.5 9.99711C19.5 15.1529 15.2762 19.4904 10.0836 19.4904H10.0831L0.5 19.4995Z" fill="#5865F2" stroke="#5865F2"/>
  <path d="M10.1829 3.80273C9.11832 3.80336 8.07215 4.07786 7.1468 4.59938C6.22144 5.1209 5.44861 5.87156 4.90395 6.77788C4.3593 7.6842 4.06148 8.71511 4.03965 9.76972C4.01782 10.8243 4.27273 11.8665 4.77943 12.7942L3.66724 16.3391L7.66101 15.4452C8.49672 15.8182 9.40607 16.0014 10.3225 15.9812C11.2388 15.961 12.1391 15.7379 12.9572 15.3284C13.7753 14.9189 14.4907 14.3332 15.0508 13.6143C15.6109 12.8954 16.0017 12.0614 16.1945 11.1735C16.3873 10.2856 16.3772 9.36621 16.1649 8.48266C15.9527 7.59912 15.5437 6.7738 14.9679 6.06713C14.3921 5.36047 13.6641 4.79036 12.8372 4.39856C12.0102 4.00675 11.1053 3.80318 10.1887 3.80273H10.1829Z" fill="#FFF9AE"/>
  <path d="M15.0594 6.1875C15.8879 7.26378 16.3307 8.58294 16.318 9.93649C16.3052 11.29 15.8376 12.6008 14.9889 13.6615C14.1403 14.7223 12.9591 15.4725 11.632 15.7937C10.3049 16.1149 8.90764 15.9888 7.66101 15.4352L3.66724 16.3407L7.73296 15.8648C9.03489 16.6205 10.5719 16.8751 12.0511 16.58C13.5303 16.285 14.8482 15.461 15.7537 14.265C16.6591 13.069 17.0887 11.5848 16.9607 10.0951C16.8327 8.60544 16.1559 7.21453 15.0594 6.1875Z" fill="#00AEEF"/>
  <path d="M13.9278 5.06445C14.8651 6.04915 15.4445 7.31526 15.5744 8.66269C15.7043 10.0101 15.3773 11.362 14.6451 12.5047C13.9129 13.6475 12.8173 14.5158 11.5313 14.9726C10.2454 15.4293 8.84248 15.4484 7.54435 15.0269L3.66724 16.3408L7.66101 15.445C9.03502 16.0599 10.5893 16.1529 12.028 15.7061C13.4666 15.2593 14.6893 14.304 15.4633 13.022C16.2372 11.74 16.5085 10.2207 16.2253 8.7534C15.9422 7.28609 15.1245 5.97315 13.9278 5.06445Z" fill="#00A94F"/>
  <path d="M5.14692 12.9291C4.60683 11.6391 4.53059 10.2044 4.93099 8.86543C5.33138 7.52641 6.18408 6.36443 7.3462 5.5742C8.50831 4.78397 9.90922 4.41351 11.3142 4.52489C12.7191 4.63627 14.0428 5.22273 15.0633 6.186C14.1242 4.96482 12.7542 4.14018 11.2276 3.87716C9.70099 3.61414 8.13047 3.93215 6.83042 4.76754C5.53037 5.60293 4.59674 6.89403 4.21643 8.38239C3.83613 9.87074 4.03721 11.4465 4.77943 12.7942L3.66724 16.3392L5.14692 12.9291Z" fill="#F15D22"/>
  <path d="M4.77925 12.7937C4.10905 11.5671 3.88411 10.1497 4.14203 8.77847C4.39995 7.40726 5.12511 6.16532 6.19626 5.2603C7.26742 4.35527 8.61965 3.84201 10.0269 3.80631C11.4341 3.77061 12.8111 4.21464 13.9276 5.06417C12.8633 3.95374 11.4158 3.28139 9.8736 3.18106C8.33138 3.08073 6.80762 3.5598 5.60592 4.52282C4.40421 5.48583 3.61278 6.8621 3.38931 8.3774C3.16584 9.89271 3.52674 11.4358 4.40009 12.6993L3.669 16.3405L4.77925 12.7937Z" fill="#E31B23"/>
</svg>