<svg width="168" height="147" viewBox="0 0 168 147" fill="none" xmlns="http://www.w3.org/2000/svg">
<g clip-path="url(#clip0_2721_5180)">
<path d="M166.661 144.898C166.368 145.306 166.071 145.712 165.778 146.114C164.934 146.693 163.934 147.002 162.909 147H5.09091C4.11214 147.001 3.15411 146.719 2.33284 146.189C2.06028 145.831 1.79079 145.47 1.51823 145.11L1.79079 144.961L81.6851 100.867C82.394 100.476 83.1907 100.271 84.0007 100.27C84.8108 100.269 85.608 100.472 86.3179 100.861L166.392 144.749L166.661 144.898Z" fill="url(#paint0_linear_2721_5180)" fill-opacity="0.75"/>
<path d="M162.909 52.1805L93.6672 12.3651C90.7549 10.6905 87.4515 9.80805 84.0884 9.8064C80.7253 9.80475 77.421 10.6839 74.507 12.3557L5.09091 52.1805C3.7413 52.1824 2.44752 52.717 1.4932 53.6672C0.538887 54.6174 0.00190921 55.9056 0 57.2494V141.931C0.00157244 143.275 0.53844 144.563 1.49283 145.514C2.44722 146.464 3.7412 146.998 5.09091 147H162.909C164.259 146.998 165.552 146.463 166.506 145.513C167.461 144.563 167.998 143.275 168 141.931V57.2494C167.998 55.9056 167.461 54.6174 166.507 53.6672C165.552 52.717 164.259 52.1824 162.909 52.1805ZM167.401 141.931C167.398 143.116 166.924 144.252 166.082 145.09C165.24 145.929 164.1 146.401 162.909 146.404H5.09091C3.90022 146.401 2.75891 145.93 1.91697 145.091C1.07502 144.253 0.601073 143.117 0.59893 141.931V57.2494C0.600379 56.0636 1.07411 54.9269 1.9162 54.0884C2.7583 53.2499 3.90001 52.7782 5.09091 52.7768L74.507 12.9521C77.421 11.2803 80.7253 10.4011 84.0884 10.4027C87.4515 10.4044 90.7549 11.2868 93.6672 12.9615L162.909 52.7768C164.1 52.7782 165.242 53.2499 166.084 54.0884C166.926 54.9269 167.4 56.0636 167.401 57.2494V141.931Z" fill="#3F3D56"/>
<path d="M84.0898 100.091C83.5682 100.093 83.0501 100.007 82.5577 99.8354L82.4671 99.8035L82.4488 99.603C82.3923 99.6307 82.3354 99.6572 82.2783 99.6822L82.2181 99.7086L82.1578 99.6821C82.0316 99.6269 81.9063 99.5644 81.7854 99.4966L26.6524 68.6495V5.6654C26.6541 4.20291 27.2383 2.80079 28.2769 1.76665C29.3155 0.732511 30.7237 0.150811 32.1925 0.14917H135.807C137.276 0.150811 138.684 0.732511 139.723 1.76665C140.762 2.80079 141.346 4.20291 141.348 5.6654V68.73L141.271 68.7728L86.3943 99.4967C85.6898 99.8878 84.8964 100.092 84.0898 100.091Z" fill="white"/>
<path d="M84.0898 100.24C83.5513 100.242 83.0164 100.153 82.508 99.976L82.3267 99.9123L82.3189 99.8272L82.2181 99.8713L82.0976 99.8186C81.9668 99.7613 81.8371 99.6967 81.7119 99.6264L26.5027 68.7368V5.66532C26.5044 4.1633 27.1044 2.7233 28.1711 1.66121C29.2378 0.599127 30.684 0.00169992 32.1925 0H135.807C137.316 0.00170622 138.762 0.599133 139.829 1.66122C140.896 2.7233 141.496 4.1633 141.497 5.66532V68.8172L86.4676 99.6265C85.7407 100.03 84.9221 100.242 84.0898 100.24ZM82.8879 99.4721C83.9889 99.7868 85.1702 99.6555 86.1743 99.1066L140.898 68.4683V5.66532C140.897 4.32141 140.36 3.03297 139.406 2.08269C138.451 1.1324 137.157 0.597862 135.807 0.596349H32.1925C30.8428 0.597856 29.5488 1.13239 28.5944 2.08268C27.64 3.03297 27.1031 4.3214 27.1016 5.66532V68.3877L30.6921 70.3954L82.0056 99.1068C82.0754 99.1459 82.1463 99.1828 82.2182 99.2173C82.2902 99.1828 82.361 99.146 82.4306 99.1069L82.8339 98.8807L82.8879 99.4721Z" fill="#3F3D56"/>
<path d="M166.673 54.3812L144.941 66.5467L141.198 68.6428L86.3208 99.3667C85.6388 99.7454 84.8707 99.9436 84.0898 99.9422C83.5852 99.9437 83.084 99.86 82.6075 99.6947C82.4749 99.6525 82.3449 99.6028 82.2181 99.5456C82.0954 99.492 81.9757 99.4323 81.8588 99.3667L30.5454 70.6555L26.8021 68.5623L1.37157 54.3335C1.30242 54.294 1.2517 54.2289 1.2304 54.1525C1.2091 54.076 1.21895 53.9942 1.25781 53.925C1.29677 53.8562 1.36154 53.8057 1.43789 53.7844C1.51424 53.7632 1.59593 53.773 1.66504 53.8116L26.8021 67.8765L30.5454 69.9697L82.1523 98.8449C82.3235 98.9406 82.5017 99.0234 82.6853 99.0924C82.7632 99.1222 82.8441 99.1491 82.925 99.1729C83.4375 99.3296 83.9767 99.3813 84.5099 99.3249C85.043 99.2685 85.5593 99.1053 86.0274 98.8449L141.198 67.96L144.941 65.8639L166.38 53.8623C166.414 53.8432 166.452 53.8309 166.491 53.8262C166.53 53.8215 166.569 53.8245 166.607 53.835C166.645 53.8455 166.68 53.8634 166.711 53.8875C166.742 53.9116 166.768 53.9416 166.787 53.9756C166.806 54.0097 166.819 54.0472 166.823 54.086C166.828 54.1249 166.825 54.1642 166.815 54.2019C166.804 54.2395 166.786 54.2747 166.762 54.3055C166.738 54.3363 166.708 54.362 166.673 54.3812Z" fill="#3F3D56"/>
<path d="M49.1347 19.6795H40.7497C40.1143 19.6795 39.5049 19.4282 39.0556 18.9808C38.6064 18.5335 38.354 17.9267 38.354 17.2941C38.354 16.6614 38.6064 16.0547 39.0556 15.6074C39.5049 15.16 40.1143 14.9087 40.7497 14.9087H49.1347C49.7701 14.9087 50.3794 15.16 50.8287 15.6074C51.278 16.0547 51.5304 16.6614 51.5304 17.2941C51.5304 17.9267 51.278 18.5335 50.8287 18.9808C50.3794 19.4282 49.7701 19.6795 49.1347 19.6795Z" fill="url(#paint1_linear_2721_5180)" fill-opacity="0.75"/>
<path d="M59.0171 27.7303H40.7497C40.1143 27.7303 39.5049 27.4789 39.0556 27.0316C38.6064 26.5843 38.354 25.9775 38.354 25.3449C38.354 24.7122 38.6064 24.1055 39.0556 23.6581C39.5049 23.2108 40.1143 22.9595 40.7497 22.9595H59.0171C59.6524 22.9595 60.2618 23.2108 60.7111 23.6581C61.1604 24.1055 61.4128 24.7122 61.4128 25.3449C61.4128 25.9775 61.1604 26.5843 60.7111 27.0316C60.2618 27.4789 59.6524 27.7303 59.0171 27.7303Z" fill="#E6E6E6"/>
<path d="M110.053 49.1988H58.246C57.6106 49.1988 57.0012 48.9475 56.552 48.5001C56.1027 48.0528 55.8503 47.446 55.8503 46.8134C55.8503 46.1807 56.1027 45.574 56.552 45.1266C57.0012 44.6793 57.6106 44.428 58.246 44.428H110.053C110.689 44.428 111.298 44.6793 111.748 45.1266C112.197 45.574 112.449 46.1807 112.449 46.8134C112.449 47.446 112.197 48.0528 111.748 48.5001C111.298 48.9475 110.689 49.1988 110.053 49.1988Z" fill="url(#paint2_linear_2721_5180)" fill-opacity="0.75"/>
<path d="M114.845 58.4422H53.1551C52.5197 58.4422 51.9103 58.1909 51.461 57.7435C51.0118 57.2962 50.7594 56.6894 50.7594 56.0568C50.7594 55.4241 51.0118 54.8174 51.461 54.3701C51.9103 53.9227 52.5197 53.6714 53.1551 53.6714H114.845C115.48 53.6714 116.09 53.9227 116.539 54.3701C116.988 54.8174 117.241 55.4241 117.241 56.0568C117.241 56.6894 116.988 57.2962 116.539 57.7435C116.09 58.1909 115.48 58.4422 114.845 58.4422Z" fill="#E6E6E6"/>
<path d="M114.845 67.3875H53.1551C52.5197 67.3875 51.9103 67.1362 51.461 66.6888C51.0118 66.2415 50.7594 65.6347 50.7594 65.0021C50.7594 64.3694 51.0118 63.7627 51.461 63.3154C51.9103 62.868 52.5197 62.6167 53.1551 62.6167H114.845C115.48 62.6167 116.09 62.868 116.539 63.3154C116.988 63.7627 117.241 64.3694 117.241 65.0021C117.241 65.6347 116.988 66.2415 116.539 66.6888C116.09 67.1362 115.48 67.3875 114.845 67.3875Z" fill="#E6E6E6"/>
</g>
<defs>
<linearGradient id="paint0_linear_2721_5180" x1="4.28909" y1="106.111" x2="162.627" y2="131.908" gradientUnits="userSpaceOnUse">
<stop stop-color="#1CB1FF"/>
<stop offset="0.18943" stop-color="#1976D2"/>
<stop offset="0.669086" stop-color="#9157FF"/>
<stop offset="1" stop-color="#FF6A80"/>
</linearGradient>
<linearGradient id="paint1_linear_2721_5180" x1="38.575" y1="15.505" x2="51.3369" y2="17.13" gradientUnits="userSpaceOnUse">
<stop stop-color="#1CB1FF"/>
<stop offset="0.18943" stop-color="#1976D2"/>
<stop offset="0.669086" stop-color="#9157FF"/>
<stop offset="1" stop-color="#FF6A80"/>
</linearGradient>
<linearGradient id="paint2_linear_2721_5180" x1="56.7999" y1="45.0243" x2="99.6796" y2="68.477" gradientUnits="userSpaceOnUse">
<stop stop-color="#1CB1FF"/>
<stop offset="0.18943" stop-color="#1976D2"/>
<stop offset="0.669086" stop-color="#9157FF"/>
<stop offset="1" stop-color="#FF6A80"/>
</linearGradient>
<clipPath id="clip0_2721_5180">
<rect width="168" height="147" fill="white"/>
</clipPath>
</defs>
</svg>
