<svg width="51" height="19" viewBox="0 0 51 19" fill="none" xmlns="http://www.w3.org/2000/svg">
<g id="Go_Logo_Blue 1" clip-path="url(#clip0_2326_6111)">
<g id="Group">
<g id="Group_2">
<g id="Group_3">
<g id="Group_4">
<path id="Vector" d="M3.84932 5.74712C3.75 5.74712 3.72517 5.69758 3.77483 5.62327L4.29625 4.95443C4.34591 4.88011 4.47006 4.83057 4.56938 4.83057H13.4335C13.5329 4.83057 13.5577 4.90488 13.508 4.9792L13.0859 5.62327C13.0363 5.69758 12.9121 5.7719 12.8376 5.7719L3.84932 5.74712Z" fill="#00ACD7"/>
</g>
</g>
</g>
<g id="Group_5">
<g id="Group_6">
<g id="Group_7">
<path id="Vector_2" d="M0.0993184 8.02642C0 8.02642 -0.0248296 7.97688 0.0248296 7.90256L0.546251 7.23372C0.59591 7.15941 0.720058 7.10986 0.819377 7.10986H12.1417C12.241 7.10986 12.2907 7.18418 12.2658 7.25849L12.0672 7.85302C12.0424 7.95211 11.943 8.00165 11.8437 8.00165L0.0993184 8.02642Z" fill="#00ACD7"/>
</g>
</g>
</g>
<g id="Group_8">
<g id="Group_9">
<g id="Group_10">
<path id="Vector_3" d="M6.10713 10.3052C6.00781 10.3052 5.98298 10.2309 6.03264 10.1566L6.38026 9.5373C6.42992 9.46299 6.52923 9.38867 6.62855 9.38867H11.5945C11.6938 9.38867 11.7435 9.46299 11.7435 9.56207L11.6938 10.1566C11.6938 10.2557 11.5945 10.33 11.52 10.33L6.10713 10.3052Z" fill="#00ACD7"/>
</g>
</g>
</g>
<g id="Group_11">
<g id="CXHf1q_3_">
<g id="Group_12">
<g id="Group_13">
<path id="Vector_4" d="M31.8805 5.30138C30.3163 5.69773 29.2486 5.99499 27.7092 6.39134C27.3367 6.49042 27.3119 6.5152 26.9891 6.14362C26.6166 5.7225 26.3435 5.45001 25.8221 5.20229C24.2578 4.43436 22.7432 4.65731 21.3279 5.57387C19.6395 6.66383 18.7705 8.274 18.7953 10.2805C18.8202 12.2623 20.1858 13.8972 22.1473 14.1697C23.8357 14.3926 25.251 13.7981 26.3684 12.5348C26.5918 12.2623 26.7905 11.965 27.0388 11.6182C26.1449 11.6182 25.0276 11.6182 22.2466 11.6182C21.7252 11.6182 21.6011 11.2962 21.7749 10.875C22.0977 10.1071 22.6936 8.81898 23.0412 8.17491C23.1157 8.02628 23.2895 7.77856 23.6619 7.77856C24.9282 7.77856 29.5962 7.77856 32.6999 7.77856C32.6502 8.4474 32.6502 9.11624 32.5509 9.78508C32.2778 11.5687 31.6074 13.2036 30.5149 14.6404C28.7272 16.9937 26.3932 18.4552 23.4385 18.8516C21.0052 19.1736 18.7457 18.7029 16.7593 17.2166C14.9219 15.8294 13.8791 13.9963 13.6059 11.7173C13.2832 9.01715 14.0777 6.58951 15.7165 4.45913C17.4794 2.15535 19.8133 0.693814 22.6687 0.173605C25.0027 -0.247516 27.2374 0.0249743 29.2486 1.38743C30.5646 2.25444 31.5081 3.44349 32.1288 4.88025C32.2778 5.1032 32.1785 5.22706 31.8805 5.30138Z" fill="#00ACD7"/>
</g>
<g id="Group_14">
<path id="Vector_5" d="M40.0994 19.0003C37.8399 18.9508 35.7791 18.3067 34.041 16.8204C32.5761 15.557 31.6574 13.9469 31.3594 12.0394C30.9125 9.24021 31.6822 6.76302 33.3706 4.55833C35.1832 2.18023 37.3682 0.941642 40.3229 0.421433C42.8555 -0.0244602 45.2392 0.223258 47.3993 1.6848C49.3609 3.02248 50.5775 4.83082 50.9003 7.20892C51.3224 10.5531 50.3541 13.278 48.0449 15.6066C46.4062 17.2663 44.395 18.3067 42.0858 18.7774C41.4154 18.9012 40.745 18.926 40.0994 19.0003ZM46.0089 8.99249C45.9841 8.67045 45.9841 8.42274 45.9344 8.17502C45.4875 5.72261 43.228 4.33538 40.8692 4.88036C38.56 5.40057 37.0702 6.86211 36.524 9.19066C36.077 11.1229 37.0206 13.0798 38.8083 13.8725C40.1739 14.4671 41.5396 14.3928 42.8555 13.7239C44.8171 12.7083 45.8847 11.1229 46.0089 8.99249Z" fill="#00ACD7"/>
</g>
</g>
</g>
</g>
</g>
</g>
<defs>
<clipPath id="clip0_2326_6111">
<rect width="51" height="19" fill="white"/>
</clipPath>
</defs>
</svg>
