<svg width="47" height="54" viewBox="0 0 47 54" fill="none" xmlns="http://www.w3.org/2000/svg">
<g id="java 1">
<g id="Group">
<path id="Vector" fill-rule="evenodd" clip-rule="evenodd" d="M15.6869 39.7987C15.6869 39.7987 13.9602 40.7981 16.9161 41.1379C20.4997 41.5469 22.3305 41.4864 26.2785 40.7434C26.2785 40.7434 27.3168 41.3914 28.7688 41.953C19.9183 45.7286 8.73376 41.7341 15.6869 39.7987ZM14.6051 34.8682C14.6051 34.8682 12.6673 36.2966 15.629 36.6019C19.4584 36.9965 22.4809 37.0282 27.7131 36.0259C27.7131 36.0259 28.4362 36.7574 29.5728 37.1549C18.8684 40.271 6.94631 37.3997 14.6051 34.8682Z" fill="#3174B9"/>
<path id="Vector_2" fill-rule="evenodd" clip-rule="evenodd" d="M23.7248 26.5075C25.9085 29.0102 23.1521 31.2595 23.1521 31.2595C23.1521 31.2595 28.6909 28.4111 26.1485 24.8457C23.774 21.5222 21.9518 19.8691 31.8146 14.1753C31.8117 14.1753 16.332 18.023 23.7248 26.5075Z" fill="#CA3132"/>
<path id="Vector_3" fill-rule="evenodd" clip-rule="evenodd" d="M35.4333 43.4448C35.4333 43.4448 36.7117 44.4932 34.0247 45.3053C28.9169 46.8461 12.7576 47.3098 8.26874 45.3658C6.65773 44.666 9.68019 43.6983 10.6318 43.4938C11.6238 43.2807 12.1907 43.3181 12.1907 43.3181C10.3975 42.0596 0.59256 45.7892 7.21305 46.8576C25.2611 49.7751 40.113 45.5472 35.4333 43.4448ZM16.5176 29.762C16.5176 29.762 8.30056 31.706 13.6079 32.4116C15.8495 32.7111 20.3152 32.642 24.4801 32.2935C27.8815 32.0084 31.2973 31.4007 31.2973 31.4007C31.2973 31.4007 30.0999 31.9133 29.2293 32.5008C20.8821 34.6868 4.76037 33.6701 9.40253 31.4352C13.3274 29.546 16.5176 29.762 16.5176 29.762ZM31.2626 37.9671C39.7457 33.578 35.8238 29.3588 33.0847 29.929C32.4137 30.0672 32.1158 30.1882 32.1158 30.1882C32.1158 30.1882 32.3646 29.7994 32.8418 29.6324C38.2591 27.7373 42.424 35.2253 31.0948 38.1917C31.0919 38.1888 31.2221 38.0708 31.2626 37.9671Z" fill="#3174B9"/>
<path id="Vector_4" fill-rule="evenodd" clip-rule="evenodd" d="M26.1498 4.97656C26.1498 4.97656 30.8469 9.65656 21.6928 16.8537C14.3521 22.6281 20.0181 25.9199 21.6899 29.6812C17.4035 25.8306 14.2595 22.4409 16.368 19.2873C19.4657 14.6562 28.0443 12.4098 26.1498 4.97656Z" fill="#CA3132"/>
<path id="Vector_5" fill-rule="evenodd" clip-rule="evenodd" d="M17.3529 49.8644C25.4948 50.3828 38.0011 49.5764 38.299 45.7402C38.299 45.7402 37.7293 47.1946 31.5686 48.3495C24.6184 49.6513 16.0427 49.5015 10.9609 48.6663C10.9581 48.6634 12.0022 49.5217 17.3529 49.8644Z" fill="#3174B9"/>
</g>
</g>
</svg>
