<svg width="43" height="43" viewBox="0 0 43 43" fill="none" xmlns="http://www.w3.org/2000/svg">
<g id="JavaScript_logo_2 1" clip-path="url(#clip0_2326_6072)">
<path id="Vector" d="M43 0H0V43H43V0Z" fill="#F7DF1E"/>
<path id="Vector_2" d="M28.8854 33.594C29.7515 35.0082 30.8784 36.0477 32.8714 36.0477C34.5457 36.0477 35.6152 35.2109 35.6152 34.0547C35.6152 32.6691 34.5163 32.1784 32.6735 31.3723L31.6633 30.9389C28.7475 29.6967 26.8105 28.1405 26.8105 24.8506C26.8105 21.8202 29.1195 19.5132 32.7281 19.5132C35.2972 19.5132 37.1441 20.4073 38.4751 22.7484L35.3286 24.7687C34.6358 23.5265 33.8884 23.0371 32.7281 23.0371C31.5446 23.0371 30.7944 23.7879 30.7944 24.7687C30.7944 25.9809 31.5452 26.4717 33.2789 27.2225L34.289 27.6552C37.7222 29.1274 39.6606 30.6283 39.6606 34.0028C39.6606 37.6408 36.8028 39.6338 32.9649 39.6338C29.2123 39.6338 26.7879 37.8455 25.6017 35.5017L28.8854 33.594ZM14.6114 33.9441C15.2462 35.0703 15.8236 36.0225 17.2119 36.0225C18.5394 36.0225 19.3769 35.503 19.3769 33.4834V19.7439H23.4176V33.538C23.4176 37.722 20.9645 39.6263 17.3839 39.6263C14.1487 39.6263 12.2751 37.952 11.3223 35.9354L14.6114 33.9441Z" fill="black"/>
</g>
<defs>
<clipPath id="clip0_2326_6072">
<rect width="43" height="43" fill="white"/>
</clipPath>
</defs>
</svg>
