<svg width="17" height="17" viewBox="0 0 17 17" fill="none" xmlns="http://www.w3.org/2000/svg">
<path d="M3.41794e-07 7.52307C-0.000425541 6.50654 0.397158 5.53025 1.10763 4.80322C1.45534 4.44714 1.87051 4.16391 2.32889 3.97005C2.78728 3.77619 3.27969 3.67559 3.77738 3.67412H6.92489C6.96605 3.67412 11.0476 3.61955 14.9306 0.301147C15.1126 0.143964 15.3364 0.0431719 15.5747 0.0110783C15.813 -0.0210153 16.0555 0.0169783 16.2726 0.12042C16.49 0.223309 16.6734 0.387932 16.8023 0.59371C16.9311 0.799489 16.9991 1.03837 17 1.28262V13.7635C17.0014 14.007 16.9337 14.2458 16.8049 14.4524C16.6761 14.6582 16.4918 14.8228 16.2735 14.9248C16.0565 15.0284 15.814 15.0665 15.5757 15.0346C15.3374 15.0027 15.1135 14.902 14.9315 14.745C11.9504 12.1978 8.85294 11.5733 7.55565 11.4203V14.235C7.55565 14.4462 7.50554 14.6537 7.40713 14.8398C7.31019 15.0256 7.1688 15.1845 6.99557 15.3024L6.13041 15.8893C5.87756 16.061 5.5704 16.1336 5.26747 16.0933C4.96453 16.053 4.687 15.9027 4.48776 15.671C4.35402 15.5163 4.25896 15.332 4.21041 15.1333L3.27725 11.3362C2.36688 11.2097 1.53432 10.7543 0.936739 10.0559C0.332469 9.35035 0.000245495 8.45205 3.41794e-07 7.52307ZM5.43076 14.8219L6.29593 14.235V11.3711H4.58349L5.43076 14.8219ZM3.77738 10.089H6.29593V4.95711H3.77738C3.10994 4.95711 2.46934 5.2273 1.99695 5.70865C1.52288 6.19351 1.25786 6.84496 1.25883 7.52307C1.25883 8.20304 1.52455 8.85616 1.99695 9.33661C2.22887 9.57393 2.50577 9.76263 2.81148 9.89167C3.11719 10.0207 3.44555 10.0875 3.77738 10.0881V10.089Z" fill="#858585"/>
</svg>
