<svg width="140" height="39" viewBox="0 0 140 39" fill="none" xmlns="http://www.w3.org/2000/svg">
<path d="M14.7852 32.7416C11.8022 27.7902 10.2812 20.453 12.8044 13.0198C13.9952 9.50708 16.0821 5.97035 19.3481 2.64941L13.7712 8.32018L8.17073 14.0149L2.59384 19.6857C-2.25204 24.6131 -6.37989e-05 33.0414 6.66155 34.7917L21.5057 38.7001C19.1123 38.0168 16.6717 35.8468 14.797 32.7297L14.7852 32.7416Z" fill="#FF6A80"/>
<path style="mix-blend-mode:multiply" opacity="0.58" d="M14.7852 32.7416C11.8022 27.7902 10.2812 20.453 12.8044 13.0198C13.9952 9.50708 16.0821 5.97035 19.3481 2.64941L13.7712 8.32018L8.17073 14.0149L2.59384 19.6857C-2.25204 24.6131 -6.37989e-05 33.0414 6.66155 34.7917L21.5057 38.7001C19.1123 38.0168 16.6717 35.8468 14.797 32.7297L14.7852 32.7416Z" fill="url(#paint0_linear_375_12359)"/>
<path d="M19.3482 2.64937C16.0822 5.97031 13.9953 9.50704 12.8044 13.0198C20.1145 10.4542 27.3185 12.0007 32.188 15.0339C35.336 11.5092 35.2535 6.06622 31.9286 2.66136C28.6508 -0.671562 23.0268 -1.0672 19.3599 2.66136L19.3482 2.64937Z" fill="#9157FF"/>
<path style="mix-blend-mode:multiply" opacity="0.51" d="M19.3482 2.64937C16.0822 5.97031 13.9953 9.50704 12.8044 13.0198C20.1145 10.4542 27.3185 12.0007 32.188 15.0339C35.336 11.5092 35.2535 6.06622 31.9286 2.66136C28.6508 -0.671562 23.0268 -1.0672 19.3599 2.66136L19.3482 2.64937Z" fill="url(#paint1_linear_375_12359)"/>
<path d="M38.0595 21.8558L34.2158 6.76172H34.2041C34.9115 9.6031 34.2394 12.7202 32.1879 15.0221C32.0936 15.13 31.9992 15.2379 31.8931 15.3338L14.7852 32.7297C16.6598 35.8349 19.1005 38.0169 21.4939 38.7002C24.583 39.5155 27.8608 38.6043 30.1128 36.3144L35.7132 30.6197C37.9652 28.3298 38.8613 24.9969 38.0595 21.8558Z" fill="#1BC2F4"/>
<path style="mix-blend-mode:multiply" d="M38.0595 21.8558L34.2158 6.76172H34.2041C34.9115 9.6031 34.2394 12.7202 32.1879 15.0221C32.0936 15.13 31.9992 15.2379 31.8931 15.3338L14.7852 32.7297C16.6598 35.8349 19.1005 38.0169 21.4939 38.7002C24.583 39.5155 27.8608 38.6043 30.1128 36.3144L35.7132 30.6197C37.9652 28.3298 38.8613 24.9969 38.0595 21.8558Z" fill="url(#paint2_linear_375_12359)"/>
<path d="M81.4957 11.2696C81.307 11.2456 81.1066 11.2456 80.9297 11.2456C79.3616 11.2456 78.041 11.6652 77.0035 12.4924C75.9659 13.3197 75.1878 14.2908 74.7161 15.3818L74.5629 15.7175L74.1738 13.1039C74.0087 11.9649 73.0537 11.1377 71.9218 11.1377C70.672 11.1377 69.6462 12.1687 69.6462 13.4516V30.0682C69.6462 31.6028 70.8725 32.8377 72.3698 32.8377C73.8672 32.8377 75.0934 31.5908 75.0934 30.0682V21.8918C75.0934 19.7218 75.5768 18.1272 76.5201 17.1681C77.4633 16.209 78.6659 15.7175 80.0926 15.7175C80.3756 15.7175 80.6703 15.7414 80.9533 15.7774C82.1206 15.9213 83.1699 15.166 83.4175 14.0031C83.5472 13.3676 83.4175 12.7082 83.0284 12.1927C82.6629 11.6892 82.097 11.3535 81.4839 11.2936L81.4957 11.2696Z" fill="#161616"/>
<path d="M88.1928 32.7658C89.7019 32.7658 90.9164 31.5189 90.9164 29.9963V25.3686L92.7085 23.5463L98.0378 31.5909C98.533 32.3342 99.3465 32.7778 100.231 32.7778C101.233 32.7778 102.117 32.2383 102.577 31.3271C103.037 30.4159 102.978 29.3729 102.4 28.5457L96.7644 20.3452L100.844 15.8134C101.504 15.0821 101.669 14.063 101.28 13.1519C100.891 12.2407 100.042 11.6772 99.0636 11.6772C98.3561 11.6772 97.6841 11.9889 97.2243 12.5404L90.9282 20.0215V4.11222C90.9282 2.57763 89.7019 1.34277 88.2046 1.34277C86.7072 1.34277 85.481 2.58962 85.481 4.11222V29.9963C85.481 31.5309 86.7072 32.7658 88.2046 32.7658H88.1928Z" fill="#161616"/>
<path d="M113.754 11.2459C112.233 11.2459 110.83 11.5096 109.592 12.0491C108.354 12.5766 107.27 13.3319 106.385 14.2671C105.501 15.2142 104.805 16.3652 104.322 17.6959C103.839 19.0267 103.603 20.5373 103.603 22.1798C103.603 24.0141 103.898 25.6206 104.499 26.9394C105.088 28.2582 105.902 29.3612 106.892 30.2244C107.895 31.0876 109.074 31.735 110.418 32.1426C111.762 32.5622 113.212 32.766 114.745 32.766C116.278 32.766 117.728 32.6221 118.883 32.3584C119.237 32.2745 119.579 32.1786 119.897 32.0946C120.923 31.7949 121.524 30.7279 121.253 29.6729C121.123 29.1454 120.793 28.7018 120.322 28.438C119.862 28.1742 119.331 28.1023 118.824 28.2462C118.695 28.2821 118.565 28.3181 118.435 28.3541C117.563 28.5939 116.537 28.7018 115.381 28.7018C113.566 28.7018 112.057 28.2821 110.901 27.4549C109.734 26.6277 109.144 25.3449 109.144 23.6544V23.3667H120.369C121.689 23.3667 122.75 22.2757 122.75 20.9449V20.909C122.75 17.8638 121.925 15.466 120.31 13.7755C118.695 12.0851 116.49 11.2339 113.754 11.2339V11.2459ZM117.126 19.6261L109.262 19.7221V19.6022C109.415 18.2474 109.875 17.1564 110.642 16.3532C111.408 15.5499 112.387 15.1423 113.554 15.1423C114.202 15.1423 114.745 15.2622 115.193 15.5019C115.629 15.7417 116.006 16.0654 116.301 16.4731C116.596 16.8807 116.808 17.3482 116.938 17.8877C117.067 18.4153 117.138 18.9667 117.138 19.5302V19.6381L117.126 19.6261Z" fill="#161616"/>
<path d="M124.543 17.5518C124.543 19.1223 124.944 20.3932 125.722 21.3283C126.512 22.2634 127.762 23.0307 129.448 23.6062L130.78 24.0018C132.218 24.4095 133.209 24.7931 133.727 25.1288C134.27 25.4885 134.553 25.992 134.553 26.6394C134.553 27.2868 134.27 27.7664 133.716 28.15C133.173 28.5217 132.301 28.7135 131.145 28.7135C130.19 28.7135 129.247 28.5696 128.327 28.2939C128.139 28.2339 127.962 28.174 127.773 28.114C127.549 28.0421 127.313 27.9941 127.089 27.9941C126.759 27.9941 126.441 28.0781 126.146 28.2219C125.663 28.4737 125.297 28.9053 125.144 29.4448V29.4928C124.967 30.0203 125.026 30.5838 125.286 31.0753C125.545 31.5669 125.969 31.9145 126.488 32.0824C127.962 32.526 129.624 32.7538 131.452 32.7538C134.081 32.7538 136.192 32.1423 137.724 30.9434C139.245 29.7445 140.024 28.114 140.024 26.0999C140.024 24.5653 139.576 23.2945 138.68 22.3354C137.783 21.3643 136.439 20.609 134.694 20.0934L133.409 19.6978C132.053 19.2902 131.145 18.9065 130.697 18.5469C130.226 18.1752 129.99 17.6957 129.99 17.1082C129.99 16.5207 130.261 16.0412 130.792 15.7055C131.31 15.3818 132.041 15.2139 132.973 15.2139C133.904 15.2139 134.942 15.3698 135.956 15.6815C136.993 15.9932 138.09 15.3938 138.408 14.3507C138.562 13.8352 138.503 13.2837 138.255 12.8162C137.996 12.3486 137.583 12.0009 137.076 11.857C135.673 11.4494 134.117 11.2456 132.466 11.2456C129.99 11.2456 128.033 11.8451 126.653 13.008C125.286 14.1709 124.59 15.7055 124.59 17.5518H124.543Z" fill="#161616"/>
<path d="M65.9794 26.4236C66.51 25.0688 66.793 23.5343 66.793 21.8318C66.793 20.1294 66.5336 18.5708 66.003 17.2401C65.4842 15.9213 64.7532 14.8183 63.8336 13.9431C62.9139 13.0679 61.8174 12.3965 60.5676 11.941C59.306 11.4854 57.9266 11.2456 56.4645 11.2456C55.0025 11.2456 53.6112 11.4974 52.3379 11.9769C51.0645 12.4685 49.9444 13.1878 49.0012 14.111C48.0579 15.0461 47.3033 16.209 46.7728 17.5638C46.2422 18.9305 45.9592 20.5011 45.9592 22.2634C45.9592 24.0258 46.2186 25.4405 46.7492 26.7353C47.268 28.0421 47.999 29.1451 48.9186 30.0323C49.8383 30.9194 50.9348 31.6028 52.1846 32.0584C53.4462 32.514 54.8257 32.7538 56.2877 32.7538C57.7497 32.7538 59.141 32.502 60.4143 31.9985C61.6759 31.4949 62.8078 30.7756 63.751 29.8404C64.6943 28.9053 65.4489 27.7544 65.9794 26.4116V26.4236ZM60.7327 25.1648C60.4733 26.004 60.1196 26.6993 59.6833 27.2269C59.2471 27.7664 58.7401 28.15 58.1859 28.3658C57.6318 28.5936 57.0423 28.7015 56.4292 28.7015C55.8161 28.7015 55.2147 28.5696 54.6488 28.2939C54.0829 28.0301 53.5641 27.6225 53.1043 27.083C52.6562 26.5555 52.2907 25.8601 52.0313 25.0089C51.7719 24.1697 51.6422 23.1746 51.6422 22.0237C51.6422 20.7408 51.7719 19.6498 52.0313 18.8106C52.2907 17.9594 52.6444 17.2641 53.0807 16.7365C53.5169 16.221 54.0239 15.8374 54.5781 15.6096C55.6864 15.166 56.9597 15.154 58.1388 15.6575C58.7283 15.9093 59.2471 16.3049 59.6833 16.8444C60.1196 17.372 60.4733 18.0793 60.7327 18.9305C60.9921 19.7817 61.1218 20.8248 61.1218 22.0237C61.1218 23.2226 60.9921 24.3016 60.7327 25.1288V25.1648Z" fill="#161616"/>
<defs>
<linearGradient id="paint0_linear_375_12359" x1="-6.40536e-05" y1="20.6808" x2="21.494" y2="20.6808" gradientUnits="userSpaceOnUse">
<stop stop-color="#A36A80"/>
<stop offset="0.05" stop-color="#AB6A80" stop-opacity="0.91"/>
<stop offset="0.21" stop-color="#C46A80" stop-opacity="0.63"/>
<stop offset="0.37" stop-color="#D96A80" stop-opacity="0.4"/>
<stop offset="0.53" stop-color="#EA6A80" stop-opacity="0.23"/>
<stop offset="0.69" stop-color="#F56A80" stop-opacity="0.1"/>
<stop offset="0.85" stop-color="#FC6A80" stop-opacity="0.03"/>
<stop offset="1" stop-color="#FF6A80" stop-opacity="0"/>
</linearGradient>
<linearGradient id="paint1_linear_375_12359" x1="16.4576" y1="4.73163" x2="33.7167" y2="12.6492" gradientUnits="userSpaceOnUse">
<stop stop-color="#7741A9"/>
<stop offset="0.18" stop-color="#7845B9" stop-opacity="0.81"/>
<stop offset="0.56" stop-color="#7D4FE3" stop-opacity="0.32"/>
<stop offset="0.8" stop-color="#8057FF" stop-opacity="0"/>
</linearGradient>
<linearGradient id="paint2_linear_375_12359" x1="17.608" y1="36.3357" x2="41.723" y2="12.6199" gradientUnits="userSpaceOnUse">
<stop stop-color="#1980B2"/>
<stop offset="0.09" stop-color="#1988BE" stop-opacity="0.83"/>
<stop offset="0.24" stop-color="#1A94D2" stop-opacity="0.58"/>
<stop offset="0.4" stop-color="#1A9EE2" stop-opacity="0.37"/>
<stop offset="0.55" stop-color="#1BA6EE" stop-opacity="0.21"/>
<stop offset="0.7" stop-color="#1BACF7" stop-opacity="0.09"/>
<stop offset="0.85" stop-color="#1BAFFD" stop-opacity="0.02"/>
<stop offset="1" stop-color="#1CB1FF" stop-opacity="0"/>
</linearGradient>
</defs>
</svg>
