<svg width="20" height="20" viewBox="0 0 20 20" fill="none" xmlns="http://www.w3.org/2000/svg">
<path d="M8.16668 14.1252L13.6667 10.0002L8.16668 5.87516V14.1252ZM10 0.833496C4.94001 0.833496 0.833344 4.94016 0.833344 10.0002C0.833344 15.0602 4.94001 19.1668 10 19.1668C15.06 19.1668 19.1667 15.0602 19.1667 10.0002C19.1667 4.94016 15.06 0.833496 10 0.833496ZM10 17.3335C5.95751 17.3335 2.66668 14.0427 2.66668 10.0002C2.66668 5.95766 5.95751 2.66683 10 2.66683C14.0425 2.66683 17.3333 5.95766 17.3333 10.0002C17.3333 14.0427 14.0425 17.3335 10 17.3335Z" fill="black" fill-opacity="0.54"/>
</svg>
