<svg width="43" height="43" viewBox="0 0 43 43" fill="none" xmlns="http://www.w3.org/2000/svg">
<g id="Python_logo 1">
<g id="layer1">
<path id="path101" d="M21.5009 13.6166H8.60091C8.60091 13.6166 5.01758 13.6166 5.01758 21.4999C5.01758 29.3833 8.60091 29.3833 8.60091 29.3833H12.1842C12.1842 29.3833 12.1842 28.6666 12.1842 25.7999C12.1842 22.9333 14.3342 20.7833 17.2009 20.7833C20.0676 20.7833 23.6414 20.7833 25.7962 20.7833C27.9509 20.7833 29.3842 19.3499 29.4139 17.1655C29.4436 14.9811 29.3842 8.59993 29.3842 8.59993C29.3842 8.59993 29.3842 5.0166 21.5009 5.0166C13.6176 5.0166 13.6176 8.59993 13.6176 8.59993V12.1833H21.5009V13.6166Z" fill="#387EB8"/>
<path id="path102" d="M21.5005 29.3834H34.4005C34.4005 29.3834 37.9839 29.3834 37.9839 21.5C37.9839 13.6167 34.4005 13.6167 34.4005 13.6167H30.8172C30.8172 13.6167 30.8172 14.3334 30.8172 17.2C30.8172 20.0667 28.6672 22.2167 25.8005 22.2167C22.9339 22.2167 19.3505 22.2167 17.2005 22.2167C15.0505 22.2167 13.6172 23.65 13.6172 25.8C13.6172 27.95 13.6172 34.4 13.6172 34.4C13.6172 34.4 13.6172 37.9834 21.5005 37.9834C29.3839 37.9834 29.3839 34.4 29.3839 34.4V30.8167H21.5005V29.3834Z" fill="#FFC331"/>
<path id="path103" d="M17.2009 10.0332C17.9925 10.0332 18.6342 9.39145 18.6342 8.59984C18.6342 7.80823 17.9925 7.1665 17.2009 7.1665C16.4093 7.1665 15.7676 7.80823 15.7676 8.59984C15.7676 9.39145 16.4093 10.0332 17.2009 10.0332Z" fill="white"/>
<path id="path104" d="M25.8005 35.8335C26.5921 35.8335 27.2339 35.1917 27.2339 34.4001C27.2339 33.6085 26.5921 32.9668 25.8005 32.9668C25.0089 32.9668 24.3672 33.6085 24.3672 34.4001C24.3672 35.1917 25.0089 35.8335 25.8005 35.8335Z" fill="white"/>
</g>
</g>
</svg>
