<svg width="163" height="179" viewBox="0 0 163 179" fill="none" xmlns="http://www.w3.org/2000/svg">
<g clip-path="url(#clip0_2721_5708)">
<path d="M113.186 36.3151C101.887 34.5115 89.0193 33.5491 75.6188 33.5491C63.3549 33.5491 51.5395 34.354 40.965 35.8715C40.9675 35.7091 40.9699 35.5467 40.9771 35.3842C41.2574 25.9565 45.2136 17.0124 52 10.4636C58.7864 3.91487 67.8646 0.280945 77.2944 0.338566C86.7242 0.396186 95.7574 4.14078 102.463 10.772C109.169 17.4032 113.016 26.395 113.181 35.8254C113.183 35.9903 113.186 36.1527 113.186 36.3151Z" fill="url(#paint0_linear_2721_5708)" fill-opacity="0.75"/>
<g opacity="0.1">
<path d="M81.8113 0.325162C76.796 -0.352411 71.6943 0.0316176 66.8368 1.45236C61.9793 2.87309 57.4746 5.29884 53.6144 8.57238C49.7542 11.8459 46.6248 15.8942 44.429 20.4548C42.2331 25.0155 41.0199 29.9867 40.8679 35.0464C40.8605 35.2088 40.8582 35.3712 40.8558 35.5336C43.9973 35.0828 47.2506 34.6964 50.5905 34.3738C50.999 25.9447 54.345 17.9246 60.0479 11.7051C65.7507 5.48572 73.4506 1.45951 81.8113 0.325162Z" fill="white"/>
</g>
<path d="M128.983 39.1807C123.782 37.7704 118.506 36.6503 113.181 35.8256C104.452 34.4727 95.6525 33.6269 86.8259 33.2923C83.1491 33.142 79.4046 33.0645 75.6188 33.0645C72.6183 33.0645 69.6419 33.1129 66.7069 33.2099C58.097 33.4643 49.5076 34.1902 40.9771 35.3844C34.6624 36.2541 28.409 37.522 22.2542 39.1807C7.90358 43.149 8.10623e-06 48.4677 8.10623e-06 54.1548C8.10623e-06 59.8419 7.90359 65.1606 22.2542 69.129C32.3464 71.9216 44.7895 73.8246 58.3477 74.6973C63.9439 75.061 69.7293 75.2452 75.6188 75.2452C81.5277 75.2452 87.3324 75.0585 92.9457 74.6949C105.285 73.8973 116.7 72.2465 126.254 69.8465C126.305 69.832 126.354 69.8199 126.405 69.8077C127.049 69.6478 127.684 69.4805 128.312 69.3132C128.537 69.2502 128.76 69.1896 128.983 69.129C128.996 69.1238 129.009 69.1198 129.022 69.1169C129.235 69.0587 129.446 68.9981 129.657 68.9399C130.079 68.8187 130.496 68.6999 130.905 68.5763C130.925 68.5714 130.942 68.5666 130.959 68.5617C131.315 68.4551 131.664 68.3484 132.01 68.2417C132.294 68.152 132.575 68.0648 132.854 67.9751C133.058 67.9096 133.259 67.8442 133.457 67.7787C133.603 67.7302 133.746 67.6842 133.886 67.6357C134.078 67.5727 134.269 67.5072 134.458 67.4417C134.538 67.4151 134.618 67.3884 134.696 67.3593C134.878 67.2987 135.055 67.2357 135.232 67.1727C135.423 67.1048 135.615 67.0345 135.804 66.9666C135.961 66.9109 136.119 66.8527 136.274 66.7945C136.405 66.7436 136.533 66.6951 136.664 66.6466C137.02 66.5133 137.369 66.3751 137.713 66.2394C137.886 66.1691 138.058 66.1012 138.227 66.0309C138.394 65.963 138.564 65.8927 138.729 65.8224C139 65.7085 139.267 65.5945 139.529 65.4806C139.655 65.4224 139.783 65.3666 139.907 65.3133C140.001 65.2697 140.093 65.2285 140.188 65.1848C140.256 65.1558 140.324 65.1242 140.389 65.0927C140.634 64.9812 140.876 64.8673 141.114 64.7533C142.025 64.317 142.876 63.8709 143.666 63.4152C148.622 60.5765 151.238 57.4275 151.238 54.1548C151.238 48.4677 143.334 43.149 128.983 39.1807ZM128.852 68.6635C118.748 71.4586 106.271 73.3616 92.6766 74.227C87.1482 74.5785 81.4332 74.7603 75.6188 74.7603C69.8237 74.7603 64.1281 74.581 58.6167 74.2295C45.0004 73.3664 32.5039 71.4635 22.3851 68.6635C8.26229 64.7558 0.484744 59.6044 0.484744 54.1548C0.485533 53.6733 0.545791 53.1937 0.664153 52.727C1.90013 47.8107 9.50324 43.2096 22.3851 39.6461C28.4933 38.0004 34.6989 36.7398 40.965 35.8717C49.5468 34.6708 58.1881 33.9424 66.8499 33.6899C69.739 33.5953 72.662 33.5485 75.6188 33.5493C79.3537 33.5493 83.0473 33.6244 86.678 33.7699C95.5559 34.1014 104.407 34.9513 113.186 36.3153C118.465 37.1363 123.696 38.2483 128.852 39.6461C141.732 43.2096 149.333 47.8083 150.571 52.7221C150.691 53.1902 150.752 53.6715 150.753 54.1548C150.753 59.6044 142.975 64.7558 128.852 68.6635Z" fill="#3F3D56"/>
<path d="M151.099 54.3753C151.099 57.614 148.431 60.6782 143.666 63.4151C142.873 63.8708 142.02 64.3169 141.114 64.7532C140.876 64.8672 140.634 64.9811 140.389 65.0926C140.324 65.1241 140.256 65.1556 140.188 65.1847C140.093 65.2284 140.001 65.2696 139.907 65.3132C139.783 65.3665 139.655 65.4223 139.529 65.4805C139.267 65.5944 139 65.7083 138.729 65.8223C138.564 65.8926 138.394 65.9629 138.227 66.0307C138.058 66.1011 137.886 66.1689 137.713 66.2392C137.369 66.375 137.02 66.5132 136.664 66.6465C136.533 66.695 136.405 66.7435 136.274 66.7944C136.119 66.8525 135.961 66.9107 135.804 66.9665C135.615 67.0344 135.423 67.1047 135.232 67.1725C135.055 67.2356 134.878 67.2986 134.696 67.3592C134.618 67.3883 134.538 67.415 134.458 67.4416C134.269 67.5071 134.078 67.5725 133.886 67.6356C133.746 67.684 133.603 67.7301 133.457 67.7786C133.259 67.844 133.057 67.9095 132.854 67.9749C132.575 68.0646 132.294 68.1519 132.01 68.2416C131.664 68.3483 131.315 68.4549 130.959 68.5616C130.942 68.5664 130.925 68.5713 130.905 68.5761C130.496 68.6998 130.079 68.8186 129.657 68.9398C129.446 68.9979 129.235 69.0585 129.022 69.1167C129.009 69.1197 128.996 69.1237 128.983 69.1289C128.76 69.1895 128.537 69.2501 128.312 69.3131C127.687 69.4779 127.049 69.6452 126.405 69.8076C126.354 69.8197 126.305 69.8319 126.254 69.8464C116.959 72.1688 105.556 73.8608 92.936 74.6778C87.4076 75.0342 81.644 75.2232 75.723 75.2232C69.7487 75.2232 63.9366 75.0317 58.3646 74.6681C25.102 72.4985 0.346622 64.2369 0.346622 54.3753C0.349241 53.7752 0.440687 53.1789 0.617984 52.6056C0.632541 52.6468 0.647095 52.6856 0.664138 52.7268C4.12261 61.8127 28.6673 69.1555 60.5144 70.947C65.3933 71.2233 70.4467 71.3664 75.6188 71.3664C80.8127 71.3664 85.8854 71.2209 90.7837 70.9446C122.604 69.1458 147.125 61.8005 150.571 52.722C150.629 52.5765 150.68 52.4311 150.724 52.2856C150.969 52.9551 151.097 53.6622 151.099 54.3753Z" fill="#3F3D56"/>
<path d="M22.2177 51.766C18.184 51.766 13.897 50.898 13.897 49.2892C13.897 47.6805 18.184 46.8125 22.2177 46.8125C26.2513 46.8125 30.5383 47.6805 30.5383 49.2892C30.5383 50.898 26.2513 51.766 22.2177 51.766ZM22.2177 47.2973C17.5999 47.2973 14.3818 48.3471 14.3818 49.2892C14.3818 50.2313 17.5999 51.2811 22.2177 51.2811C26.8355 51.2811 30.0536 50.2313 30.0536 49.2892C30.0536 48.3471 26.8355 47.2973 22.2177 47.2973Z" fill="#3F3D56"/>
<path d="M39.4258 63.1595C35.3922 63.1595 31.1052 62.2915 31.1052 60.6828C31.1052 59.074 35.3922 58.2061 39.4258 58.2061C43.4595 58.2061 47.7465 59.074 47.7465 60.6828C47.7465 62.2915 43.4595 63.1595 39.4258 63.1595ZM39.4258 58.6909C34.808 58.6909 31.5899 59.7407 31.5899 60.6828C31.5899 61.6249 34.808 62.6747 39.4258 62.6747C44.0436 62.6747 47.2617 61.6249 47.2617 60.6828C47.2617 59.7407 44.0436 58.6909 39.4258 58.6909Z" fill="#3F3D56"/>
<path d="M128.86 51.766C124.826 51.766 120.539 50.898 120.539 49.2892C120.539 47.6805 124.826 46.8125 128.86 46.8125C132.893 46.8125 137.18 47.6805 137.18 49.2892C137.18 50.898 132.893 51.766 128.86 51.766ZM128.86 47.2973C124.242 47.2973 121.024 48.3471 121.024 49.2892C121.024 50.2313 124.242 51.2811 128.86 51.2811C133.477 51.2811 136.695 50.2313 136.695 49.2892C136.695 48.3471 133.477 47.2973 128.86 47.2973Z" fill="#3F3D56"/>
<path d="M111.651 63.1595C107.618 63.1595 103.331 62.2915 103.331 60.6828C103.331 59.074 107.618 58.2061 111.651 58.2061C115.685 58.2061 119.972 59.074 119.972 60.6828C119.972 62.2915 115.685 63.1595 111.651 63.1595ZM111.651 58.6909C107.034 58.6909 103.816 59.7407 103.816 60.6828C103.816 61.6249 107.034 62.6747 111.651 62.6747C116.269 62.6747 119.487 61.6249 119.487 60.6828C119.487 59.7407 116.269 58.6909 111.651 58.6909Z" fill="#3F3D56"/>
<path d="M75.5386 68.4928C71.505 68.4928 67.218 67.6248 67.218 66.016C67.218 64.4073 71.505 63.5393 75.5386 63.5393C79.5723 63.5393 83.8593 64.4073 83.8593 66.016C83.8593 67.6248 79.5723 68.4928 75.5386 68.4928ZM75.5386 64.0241C70.9208 64.0241 67.7027 65.074 67.7027 66.016C67.7027 66.9581 70.9208 68.0079 75.5386 68.0079C80.1564 68.0079 83.3745 66.9581 83.3745 66.016C83.3745 65.074 80.1564 64.0241 75.5386 64.0241Z" fill="#3F3D56"/>
<path d="M81.6726 119.443C87.2962 119.443 91.855 114.884 91.855 109.259C91.855 103.634 87.2962 99.0742 81.6726 99.0742C76.049 99.0742 71.4902 103.634 71.4902 109.259C71.4902 114.884 76.049 119.443 81.6726 119.443Z" fill="#2F2E41"/>
<path d="M77.8006 115.95L72.8449 118.432L74.23 121.199L79.1857 118.717L77.8006 115.95Z" fill="#2F2E41"/>
<path d="M74.8834 120.918C75.1772 120.472 74.4519 119.475 73.2634 118.692C72.0748 117.908 70.873 117.634 70.5791 118.08C70.2852 118.525 71.0105 119.522 72.1991 120.306C73.3877 121.09 74.5895 121.364 74.8834 120.918Z" fill="#2F2E41"/>
<path d="M85.5446 115.95L84.1595 118.717L89.1152 121.199L90.5003 118.432L85.5446 115.95Z" fill="#2F2E41"/>
<path d="M91.1461 120.306C92.3347 119.522 93.06 118.525 92.7661 118.079C92.4722 117.634 91.2704 117.908 90.0818 118.692C88.8932 119.475 88.1679 120.472 88.4618 120.918C88.7557 121.364 89.9575 121.09 91.1461 120.306Z" fill="#2F2E41"/>
<path d="M80.9597 110.248C82.8817 110.248 84.4398 108.69 84.4398 106.768C84.4398 104.845 82.8817 103.287 80.9597 103.287C79.0377 103.287 77.4797 104.845 77.4797 106.768C77.4797 108.69 79.0377 110.248 80.9597 110.248Z" fill="white"/>
<path d="M81.8063 106.1C82.2574 105.649 82.2548 104.915 81.8005 104.461C81.3462 104.006 80.6121 104.004 80.161 104.455C79.7099 104.906 79.7125 105.64 80.1668 106.095C80.6211 106.549 81.3551 106.552 81.8063 106.1Z" fill="#3F3D56"/>
<path d="M89.7051 98.1792C89.8582 94.4087 86.6093 91.2151 82.4484 91.046C78.2876 90.877 74.7904 93.7965 74.6372 97.567C74.4841 101.337 77.3765 102.194 81.5373 102.363C85.6982 102.532 89.552 101.95 89.7051 98.1792Z" fill="url(#paint1_linear_2721_5708)" fill-opacity="0.75"/>
<path d="M95.5745 114.592C96.2443 114.017 95.3025 111.821 93.471 109.687C91.6394 107.553 89.6117 106.289 88.942 106.864C88.2722 107.439 89.214 109.635 91.0455 111.769C92.8771 113.903 94.9048 115.167 95.5745 114.592Z" fill="#2F2E41"/>
<path d="M72.3281 111.769C74.1597 109.635 75.1015 107.439 74.4317 106.864C73.7619 106.289 71.7342 107.553 69.9027 109.687C68.0712 111.821 67.1294 114.017 67.7991 114.592C68.4689 115.167 70.4966 113.903 72.3281 111.769Z" fill="#2F2E41"/>
<path d="M84.4692 113.272C84.5794 113.878 84.4446 114.502 84.0945 115.008C83.7443 115.515 83.2076 115.861 82.6022 115.971C81.9968 116.081 81.3725 115.946 80.8665 115.596C80.3605 115.246 80.0143 114.709 79.9041 114.104L79.9033 114.099C79.6751 112.838 80.6499 112.392 81.9107 112.164C83.1716 111.935 84.241 112.011 84.4692 113.272Z" fill="white"/>
<path d="M64.4698 120.092C64.3413 120.092 64.218 120.041 64.1271 119.95C64.0362 119.859 63.9851 119.736 63.9851 119.608V91.0022C63.9851 90.8736 64.0362 90.7503 64.1271 90.6593C64.218 90.5684 64.3413 90.5173 64.4698 90.5173C64.5984 90.5173 64.7217 90.5684 64.8126 90.6593C64.9035 90.7503 64.9546 90.8736 64.9546 91.0022V119.608C64.9546 119.736 64.9035 119.859 64.8126 119.95C64.7217 120.041 64.5984 120.092 64.4698 120.092Z" fill="#CCCCCC"/>
<path d="M57.1988 145.789C57.0703 145.789 56.947 145.738 56.8561 145.647C56.7652 145.556 56.7141 145.433 56.7141 145.304V124.456C56.7141 124.327 56.7651 124.204 56.856 124.113C56.947 124.022 57.0702 123.971 57.1988 123.971C57.3274 123.971 57.4507 124.022 57.5416 124.113C57.6325 124.204 57.6835 124.327 57.6835 124.456V145.304C57.6835 145.433 57.6325 145.556 57.5416 145.647C57.4507 145.738 57.3274 145.789 57.1988 145.789Z" fill="#CCCCCC"/>
<path d="M75.8611 128.577C75.7326 128.577 75.6093 128.526 75.5184 128.435C75.4275 128.344 75.3764 128.221 75.3764 128.092V99.4868C75.3764 99.3582 75.4275 99.2349 75.5184 99.144C75.6093 99.053 75.7326 99.002 75.8611 99.002C75.9897 99.002 76.113 99.053 76.2039 99.144C76.2948 99.2349 76.3459 99.3582 76.3459 99.4868V128.092C76.3459 128.221 76.2948 128.344 76.2039 128.435C76.113 128.526 75.9897 128.577 75.8611 128.577Z" fill="#CCCCCC"/>
<path d="M68.8325 149.183C68.7039 149.183 68.5806 149.132 68.4897 149.041C68.3988 148.95 68.3477 148.826 68.3477 148.698V137.062C68.3477 136.933 68.3988 136.81 68.4897 136.719C68.5806 136.628 68.7039 136.577 68.8325 136.577C68.961 136.577 69.0843 136.628 69.1752 136.719C69.2661 136.81 69.3172 136.933 69.3172 137.062V148.698C69.3172 148.826 69.2661 148.95 69.1752 149.041C69.0843 149.132 68.961 149.183 68.8325 149.183Z" fill="#CCCCCC"/>
<path d="M78.7695 89.5476C78.641 89.5476 78.5177 89.4965 78.4268 89.4056C78.3359 89.3147 78.2848 89.1914 78.2848 89.0628V77.4267C78.2848 77.2981 78.3359 77.1748 78.4268 77.0839C78.5177 76.993 78.641 76.9419 78.7695 76.9419C78.8981 76.9419 79.0214 76.993 79.1123 77.0839C79.2032 77.1748 79.2543 77.2981 79.2543 77.4267V89.0628C79.2543 89.1914 79.2032 89.3147 79.1123 89.4056C79.0214 89.4965 78.8981 89.5476 78.7695 89.5476Z" fill="#CCCCCC"/>
<path d="M54.5328 94.6385C54.4042 94.6384 54.2809 94.5874 54.19 94.4964C54.0991 94.4055 54.048 94.2822 54.048 94.1536V82.5176C54.048 82.389 54.0991 82.2656 54.19 82.1747C54.2809 82.0838 54.4042 82.0327 54.5328 82.0327C54.6613 82.0327 54.7846 82.0838 54.8755 82.1747C54.9664 82.2656 55.0175 82.389 55.0175 82.5176V94.1536C55.0175 94.2822 54.9664 94.4055 54.8755 94.4964C54.7846 94.5874 54.6613 94.6384 54.5328 94.6385Z" fill="#CCCCCC"/>
<path d="M96.7048 95.8506C96.5762 95.8506 96.4529 95.7995 96.362 95.7086C96.2711 95.6177 96.22 95.4944 96.22 95.3658V83.7297C96.22 83.6011 96.2711 83.4778 96.362 83.3869C96.4529 83.296 96.5762 83.2449 96.7048 83.2449C96.8333 83.2449 96.9566 83.296 97.0475 83.3869C97.1384 83.4778 97.1895 83.6011 97.1895 83.7297V95.3658C97.1895 95.4944 97.1384 95.6177 97.0475 95.7086C96.9566 95.7995 96.8333 95.8506 96.7048 95.8506Z" fill="#CCCCCC"/>
<path d="M95.7353 132.213C95.6067 132.213 95.4834 132.162 95.3925 132.071C95.3016 131.98 95.2506 131.857 95.2506 131.728V117.668C95.2506 117.54 95.3016 117.416 95.3925 117.325C95.4834 117.234 95.6067 117.183 95.7353 117.183C95.8639 117.183 95.9871 117.234 96.078 117.325C96.169 117.416 96.22 117.54 96.22 117.668V131.728C96.22 131.857 96.1689 131.98 96.078 132.071C95.9871 132.162 95.8639 132.213 95.7353 132.213Z" fill="#CCCCCC"/>
<path d="M86.0406 144.577C85.912 144.577 85.7887 144.526 85.6978 144.435C85.6069 144.344 85.5559 144.22 85.5558 144.092V123.244C85.5558 123.115 85.6069 122.992 85.6978 122.901C85.7887 122.81 85.912 122.759 86.0406 122.759C86.1691 122.759 86.2924 122.81 86.3833 122.901C86.4742 122.992 86.5253 123.115 86.5253 123.244V144.092C86.5253 144.22 86.4742 144.344 86.3833 144.435C86.2924 144.526 86.1691 144.577 86.0406 144.577Z" fill="#CCCCCC"/>
<path d="M87.9795 108.941C87.851 108.941 87.7277 108.89 87.6368 108.799C87.5459 108.708 87.4948 108.585 87.4948 108.456V79.851C87.4948 79.7225 87.5459 79.5991 87.6368 79.5082C87.7277 79.4173 87.851 79.3662 87.9795 79.3662C88.1081 79.3662 88.2314 79.4173 88.3223 79.5082C88.4132 79.5991 88.4643 79.7225 88.4643 79.851V108.456C88.4643 108.585 88.4132 108.708 88.3223 108.799C88.2314 108.89 88.1081 108.941 87.9795 108.941Z" fill="#CCCCCC"/>
<path d="M147.406 169.812C148.1 169.231 147.163 166.968 145.312 164.757C143.462 162.547 141.399 161.226 140.706 161.807C140.012 162.388 140.949 164.651 142.8 166.861C144.65 169.072 146.713 170.393 147.406 169.812Z" fill="#2F2E41"/>
<path d="M142.856 167.298C144.679 161.828 141.724 155.915 136.255 154.092C130.786 152.268 124.874 155.225 123.051 160.695C121.228 166.165 124.184 172.078 129.653 173.901C135.122 175.724 141.033 172.768 142.856 167.298Z" fill="#2F2E41"/>
<path d="M137.372 172.19H134.201V177.873H137.372V172.19Z" fill="#2F2E41"/>
<path d="M131.03 172.19H127.859V177.873H131.03V172.19Z" fill="#2F2E41"/>
<path d="M134.729 178.93C136.189 178.93 137.372 178.486 137.372 177.939C137.372 177.391 136.189 176.948 134.729 176.948C133.27 176.948 132.087 177.391 132.087 177.939C132.087 178.486 133.27 178.93 134.729 178.93Z" fill="#2F2E41"/>
<path d="M128.387 178.798C129.847 178.798 131.03 178.354 131.03 177.807C131.03 177.259 129.847 176.815 128.387 176.815C126.928 176.815 125.745 177.259 125.745 177.807C125.745 178.354 126.928 178.798 128.387 178.798Z" fill="#2F2E41"/>
<path d="M129.676 150.873C130.608 147.118 134.723 144.909 138.866 145.938C143.009 146.967 145.612 150.845 144.68 154.599C143.748 158.353 140.655 158.365 136.512 157.336C132.369 156.307 128.744 154.627 129.676 150.873Z" fill="#CCCCCC"/>
<path d="M125.913 161.389C126.3 160.571 124.503 158.907 121.899 157.671C119.295 156.436 116.869 156.097 116.481 156.915C116.094 157.733 117.891 159.397 120.495 160.633C123.099 161.868 125.525 162.207 125.913 161.389Z" fill="#2F2E41"/>
<path d="M131.393 165.274C133.315 165.274 134.873 163.716 134.873 161.793C134.873 159.871 133.315 158.312 131.393 158.312C129.471 158.312 127.913 159.871 127.913 161.793C127.913 163.716 129.471 165.274 131.393 165.274Z" fill="white"/>
<path d="M129.963 161.706C130.604 161.706 131.123 161.187 131.123 160.546C131.123 159.905 130.604 159.385 129.963 159.385C129.322 159.385 128.803 159.905 128.803 160.546C128.803 161.187 129.322 161.706 129.963 161.706Z" fill="#3F3D56"/>
<path d="M131.363 170.515C132.167 170.515 132.818 169.864 132.818 169.061C132.818 168.258 132.167 167.606 131.363 167.606C130.56 167.606 129.909 168.258 129.909 169.061C129.909 169.864 130.56 170.515 131.363 170.515Z" fill="white"/>
<path d="M162.758 179H105.559C105.495 179 105.433 178.974 105.387 178.929C105.342 178.884 105.316 178.822 105.316 178.758C105.316 178.693 105.342 178.632 105.387 178.586C105.433 178.541 105.495 178.515 105.559 178.515H162.758C162.822 178.515 162.884 178.541 162.929 178.586C162.974 178.632 163 178.693 163 178.758C163 178.822 162.974 178.884 162.929 178.929C162.884 178.974 162.822 179 162.758 179Z" fill="#3F3D56"/>
</g>
<defs>
<linearGradient id="paint0_linear_2721_5708" x1="42.1768" y1="4.83505" x2="112.656" y2="11.3576" gradientUnits="userSpaceOnUse">
<stop stop-color="#1CB1FF"/>
<stop offset="0.18943" stop-color="#1976D2"/>
<stop offset="0.669086" stop-color="#9157FF"/>
<stop offset="1" stop-color="#FF6A80"/>
</linearGradient>
<linearGradient id="paint1_linear_2721_5708" x1="74.8844" y1="92.4578" x2="89.6702" y2="93.3634" gradientUnits="userSpaceOnUse">
<stop stop-color="#1CB1FF"/>
<stop offset="0.18943" stop-color="#1976D2"/>
<stop offset="0.669086" stop-color="#9157FF"/>
<stop offset="1" stop-color="#FF6A80"/>
</linearGradient>
<clipPath id="clip0_2721_5708">
<rect width="163" height="179" fill="white"/>
</clipPath>
</defs>
</svg>
