<svg xmlns="http://www.w3.org/2000/svg" viewBox="0 0 24 24"><title>AMQP</title><path fill="#eaedf1" d="M0 .371h23.629V24H0z"/><path fill="#cdcdcf" d="M16.246 1.847h5.906v20.676H1.476v-6.277h14.77z"/><path fill="#abb7dc" d="M8.863 1.847h5.906v13.289H1.476V9.23h7.387z"/><path fill="#231f20" d="M1.476 16.617c6.184-.367 12.561-1.249 16.785 1.16 1.322 1.23 2.45 2.555 3.524 4.008v.367H1.476z"/><path fill="#1d4195" d="M1.476 9.23c3.468-.416 6.66-.36 8.629.5 1.676 1.348 3.023 2.941 4.293 4.669v.37H1.476z"/><path fill="#cdced0" d="M1.476 1.847h5.906v5.906H1.476z"/><path fill="#312d30" d="M1.476 2.215 7.016 7.753H1.476z"/></svg>
