<svg width="256" height="239" viewBox="0 0 256 239" fill="none" xmlns="http://www.w3.org/2000/svg">
<g clip-path="url(#clip0_7304_207497)">
<path d="M178.563 89.3024H244.688C250.936 89.3024 256 94.3667 256 100.614V160.845C256 183.806 237.387 202.419 214.427 202.419H214.23C191.27 202.422 172.654 183.812 172.651 160.851C172.651 160.851 172.651 160.847 172.651 160.845V95.2142C172.651 91.9492 175.298 89.3024 178.563 89.3024Z" fill="#5059C9"/>
<path d="M223.256 77.3953C238.052 77.3953 250.047 65.4007 250.047 50.6046C250.047 35.8085 238.052 23.8139 223.256 23.8139C208.46 23.8139 196.465 35.8085 196.465 50.6046C196.465 65.4007 208.46 77.3953 223.256 77.3953Z" fill="#5059C9"/>
<path d="M139.907 77.3954C161.279 77.3954 178.605 60.0699 178.605 38.6977C178.605 17.3256 161.279 0 139.907 0C118.535 0 101.209 17.3256 101.209 38.6977C101.209 60.0699 118.535 77.3954 139.907 77.3954Z" fill="#7B83EB"/>
<path d="M191.506 89.3024H82.3546C76.1817 89.4551 71.2986 94.5779 71.4419 100.751V169.448C70.5799 206.492 99.8873 237.233 136.93 238.14C173.973 237.233 203.281 206.492 202.419 169.448V100.751C202.562 94.5779 197.679 89.4551 191.506 89.3024Z" fill="#7B83EB"/>
<path opacity="0.1" d="M142.884 89.3024V185.57C142.854 189.985 140.179 193.951 136.097 195.632C134.797 196.181 133.4 196.465 131.989 196.465H76.6809C75.907 194.501 75.1926 192.536 74.5971 190.512C72.5132 183.68 71.4498 176.579 71.4418 169.436V100.733C71.2986 94.5699 76.1737 89.4551 82.3366 89.3024H142.884Z" fill="black"/>
<path opacity="0.2" d="M136.93 89.3024V191.524C136.93 192.935 136.647 194.332 136.097 195.632C134.416 199.714 130.45 202.389 126.035 202.419H79.4791C78.4669 200.454 77.5144 198.489 76.6809 196.465C75.8474 194.441 75.1926 192.536 74.5971 190.512C72.5132 183.68 71.4498 176.579 71.4418 169.436V100.733C71.2986 94.5699 76.1737 89.4551 82.3366 89.3024H136.93Z" fill="black"/>
<path opacity="0.2" d="M136.93 89.3024V179.617C136.885 185.615 132.034 190.466 126.035 190.512H74.5973C72.5133 183.68 71.4499 176.579 71.4419 169.436V100.733C71.2988 94.5699 76.1738 89.4551 82.3368 89.3024H136.93Z" fill="black"/>
<path opacity="0.2" d="M130.977 89.3024V179.617C130.931 185.615 126.08 190.466 120.082 190.512H74.5973C72.5133 183.68 71.4499 176.579 71.4419 169.436V100.733C71.2988 94.5699 76.1738 89.4551 82.3368 89.3024H130.977Z" fill="black"/>
<path opacity="0.1" d="M142.884 58.5228V77.2763C141.872 77.3358 140.919 77.3954 139.907 77.3954C138.895 77.3954 137.942 77.3359 136.93 77.2763C134.921 77.143 132.928 76.8241 130.977 76.3238C118.921 73.4688 108.961 65.0138 104.186 53.5815C103.364 51.6616 102.727 49.6682 102.281 47.6281H131.989C137.996 47.6508 142.861 52.5152 142.884 58.5228Z" fill="black"/>
<path opacity="0.2" d="M136.93 64.4763V77.2764C134.921 77.143 132.928 76.8242 130.977 76.3238C118.921 73.4688 108.961 65.0139 104.186 53.5815H126.035C132.043 53.6043 136.907 58.4688 136.93 64.4763Z" fill="black"/>
<path opacity="0.2" d="M136.93 64.4763V77.2764C134.921 77.143 132.928 76.8242 130.977 76.3238C118.921 73.4688 108.961 65.0139 104.186 53.5815H126.035C132.043 53.6043 136.907 58.4688 136.93 64.4763Z" fill="black"/>
<path opacity="0.2" d="M130.977 64.4763V76.3237C118.921 73.4687 108.961 65.0137 104.186 53.5814H120.082C126.09 53.6043 130.954 58.4688 130.977 64.4763Z" fill="black"/>
<path d="M10.9127 53.5814H120.064C126.091 53.5814 130.977 58.4673 130.977 64.4941V173.645C130.977 179.672 126.091 184.558 120.064 184.558H10.9127C4.88573 184.558 0 179.672 0 173.645V64.4941C0 58.4673 4.88584 53.5814 10.9127 53.5814Z" fill="url(#paint0_linear_7304_207497)"/>
<path d="M94.2081 95.1249H72.3884V154.541H58.4871V95.1249H36.7688V83.5989H94.2081V95.1249Z" fill="white"/>
</g>
<defs>
<linearGradient id="paint0_linear_7304_207497" x1="2275.33" y1="-799.119" x2="10822.3" y2="14004" gradientUnits="userSpaceOnUse">
<stop stop-color="#5A62C3"/>
<stop offset="0.5" stop-color="#4D55BD"/>
<stop offset="1" stop-color="#3940AB"/>
</linearGradient>
<clipPath id="clip0_7304_207497">
<rect width="256" height="239" fill="white"/>
</clipPath>
</defs>
</svg>
