<svg width="256" height="256" viewBox="0 0 256 256" fill="none" xmlns="http://www.w3.org/2000/svg">
<g clip-path="url(#clip0_7304_207530)">
<path d="M53.8413 161.321C53.8413 176.152 41.854 188.14 27.0222 188.14C12.1905 188.14 0.203186 176.152 0.203186 161.321C0.203186 146.489 12.1905 134.502 27.0222 134.502H53.8413V161.321ZM67.2508 161.321C67.2508 146.489 79.2381 134.502 94.0698 134.502C108.902 134.502 120.889 146.489 120.889 161.321V228.368C120.889 243.2 108.902 255.187 94.0698 255.187C79.2381 255.187 67.2508 243.2 67.2508 228.368V161.321Z" fill="#E01E5A"/>
<path d="M94.0698 53.6381C79.2381 53.6381 67.2508 41.6508 67.2508 26.819C67.2508 11.9873 79.2381 0 94.0698 0C108.902 0 120.889 11.9873 120.889 26.819V53.6381H94.0698ZM94.0698 67.2508C108.902 67.2508 120.889 79.2381 120.889 94.0698C120.889 108.902 108.902 120.889 94.0698 120.889H26.819C11.9873 120.889 0 108.902 0 94.0698C0 79.2381 11.9873 67.2508 26.819 67.2508H94.0698Z" fill="#36C5F0"/>
<path d="M201.549 94.0698C201.549 79.2381 213.537 67.2508 228.368 67.2508C243.2 67.2508 255.187 79.2381 255.187 94.0698C255.187 108.902 243.2 120.889 228.368 120.889H201.549V94.0698ZM188.14 94.0698C188.14 108.902 176.152 120.889 161.321 120.889C146.489 120.889 134.502 108.902 134.502 94.0698V26.819C134.502 11.9873 146.489 0 161.321 0C176.152 0 188.14 11.9873 188.14 26.819V94.0698Z" fill="#2EB67D"/>
<path d="M161.321 201.549C176.152 201.549 188.14 213.537 188.14 228.368C188.14 243.2 176.152 255.187 161.321 255.187C146.489 255.187 134.502 243.2 134.502 228.368V201.549H161.321ZM161.321 188.14C146.489 188.14 134.502 176.152 134.502 161.321C134.502 146.489 146.489 134.502 161.321 134.502H228.571C243.403 134.502 255.39 146.489 255.39 161.321C255.39 176.152 243.403 188.14 228.571 188.14H161.321Z" fill="#ECB22E"/>
</g>
<defs>
<clipPath id="clip0_7304_207530">
<rect width="256" height="256" fill="white"/>
</clipPath>
</defs>
</svg>
