<svg width="304" height="127" viewBox="0 0 304 127" fill="none" xmlns="http://www.w3.org/2000/svg">
<path d="M304 65.3279C304 43.7207 293.529 26.6713 273.516 26.6713C253.418 26.6713 241.258 43.7207 241.258 65.159C241.258 90.5643 255.613 103.394 276.218 103.394C286.267 103.394 293.867 101.115 299.609 97.9074V81.0268C293.867 83.8965 287.28 85.669 278.92 85.669C270.729 85.669 263.467 82.7993 262.538 72.8397H303.831C303.831 71.7425 304 67.3535 304 65.3279ZM262.284 57.3096C262.284 47.772 268.111 43.8051 273.431 43.8051C278.582 43.8051 284.071 47.772 284.071 57.3096H262.284ZM208.662 26.6713C200.387 26.6713 195.067 30.5539 192.111 33.2547L191.013 28.0218H172.436V126.436L193.547 121.962L193.631 98.0762C196.671 100.271 201.147 103.394 208.578 103.394C223.693 103.394 237.458 91.2395 237.458 64.4838C237.373 40.007 223.44 26.6713 208.662 26.6713ZM203.596 84.8249C198.613 84.8249 195.658 83.0525 193.631 80.858L193.547 49.5445C195.742 47.0968 198.782 45.4088 203.596 45.4088C211.28 45.4088 216.6 54.0179 216.6 65.0746C216.6 76.3846 211.364 84.8249 203.596 84.8249ZM143.387 21.6915L164.582 17.1338V0L143.387 4.47335V21.6915ZM143.387 28.1062H164.582V101.959H143.387V28.1062ZM120.671 34.352L119.32 28.1062H101.08V101.959H122.191V51.9078C127.173 45.4088 135.618 46.5904 138.236 47.5188V28.1062C135.533 27.0933 125.653 25.2365 120.671 34.352ZM78.4489 9.79074L57.8444 14.1797L57.76 81.7864C57.76 94.2781 67.1333 103.478 79.6311 103.478C86.5556 103.478 91.6222 102.212 94.4089 100.693V83.5589C91.7067 84.6561 78.3644 88.5387 78.3644 76.047V46.084H94.4089V28.1062H78.3644L78.4489 9.79074ZM21.3644 49.5445C21.3644 46.2528 24.0667 44.9867 28.5422 44.9867C34.96 44.9867 43.0667 46.928 49.4844 50.3885V30.5539C42.4756 27.7686 35.5511 26.6713 28.5422 26.6713C11.4 26.6713 0 35.618 0 50.5573C0 73.8525 32.0889 70.1388 32.0889 80.1828C32.0889 84.0653 28.7111 85.3313 23.9822 85.3313C16.9733 85.3313 8.02222 82.4616 0.928889 78.5791V98.667C8.78222 102.043 16.72 103.478 23.9822 103.478C41.5467 103.478 53.6222 94.7845 53.6222 79.6763C53.5378 54.5243 21.3644 58.9976 21.3644 49.5445Z" fill="#635BFF"/>
</svg>
