<svg width="12" height="12" viewBox="0 0 12 12" fill="none" xmlns="http://www.w3.org/2000/svg">
<path d="M10.0667 2.37996C10.1534 2.37996 10.2401 2.34663 10.3067 2.27996C10.3667 2.21996 10.4001 2.1333 10.4001 2.04663C10.4001 1.95996 10.3667 1.87329 10.3067 1.80663C10.1801 1.68663 9.96006 1.67996 9.8334 1.80663C9.76673 1.87329 9.7334 1.9533 9.7334 2.04663C9.7334 2.1333 9.76673 2.21996 9.8334 2.27996C9.8934 2.34663 9.98006 2.37996 10.0667 2.37996Z" fill="#858585"/>
<path d="M10.5331 3.16005C10.5331 3.16005 10.5998 3.21338 10.6398 3.22671C10.6798 3.24671 10.7198 3.25338 10.7664 3.25338C10.8064 3.25338 10.8531 3.24671 10.8931 3.22671C10.9331 3.21338 10.9731 3.18671 10.9998 3.16005C11.0331 3.12671 11.0598 3.09338 11.0731 3.04671C11.0931 3.00671 11.0998 2.96671 11.0998 2.92005C11.0998 2.88005 11.0931 2.83338 11.0731 2.79338C11.0598 2.75338 11.0331 2.71338 10.9998 2.68671C10.9731 2.65338 10.9331 2.63338 10.8931 2.61338C10.8131 2.58005 10.7198 2.58005 10.6398 2.61338C10.5998 2.63338 10.5598 2.65338 10.5331 2.68671C10.4998 2.71338 10.4731 2.75338 10.4598 2.79338C10.4398 2.83338 10.4331 2.88005 10.4331 2.92005C10.4331 2.96671 10.4331 3.00671 10.4598 3.04671C10.4731 3.08671 10.4998 3.12671 10.5331 3.16005Z" fill="#858585"/>
<path d="M10.9268 3.86003C10.9268 3.9467 10.9601 4.03336 11.0201 4.09336C11.0534 4.1267 11.0868 4.15337 11.1268 4.1667C11.1734 4.1867 11.2134 4.19336 11.2601 4.19336C11.3468 4.19336 11.4334 4.16003 11.4934 4.09336C11.5534 4.03336 11.5868 3.9467 11.5868 3.86003C11.5868 3.7667 11.5534 3.6867 11.4934 3.62003C11.3734 3.50003 11.1534 3.50003 11.0201 3.62003C10.9601 3.6867 10.9268 3.7667 10.9268 3.86003Z" fill="#858585"/>
<path d="M11.8933 4.82667C11.86 4.64667 11.68 4.52667 11.5 4.56667C11.32 4.6 11.2 4.78 11.24 4.96C11.3067 5.3 11.34 5.64667 11.34 6C11.34 8.94 8.94667 11.3333 6.00667 11.3333C3.06667 11.3333 0.673333 8.94 0.673333 6C0.673333 3.06 3.06667 0.666667 6.00667 0.666667C7.07333 0.666667 8.1 0.979998 8.98 1.57333C9.13333 1.67333 9.34 1.64 9.44 1.48C9.54 1.32667 9.5 1.12 9.34667 1.02C8.35333 0.353333 7.19333 0 6 0C2.69333 0 0 2.69333 0 6C0 9.30667 2.69333 12 6 12C9.30667 12 12 9.30667 12 6C12 5.60667 11.96 5.21333 11.8867 4.83333L11.8933 4.82667Z" fill="#858585"/>
<path d="M7.31984 4.65991L5.15317 5.00658L5.01317 5.32658C5.2465 5.32658 5.61984 5.35991 5.61984 5.63991C5.61984 5.76658 5.5865 5.95325 5.51317 6.19991L4.75984 8.78658C4.69984 8.99325 4.6665 9.15991 4.6665 9.29325C4.6665 9.49325 4.73317 9.65991 4.87317 9.79325C5.01317 9.92658 5.19984 9.99325 5.43317 9.99325C6.27984 9.99325 6.97984 8.91991 7.17317 8.57325C7.2665 8.39325 7.0665 8.33325 6.9865 8.46658C6.9065 8.59992 6.5665 9.05991 6.39984 9.19325C6.33984 9.24658 6.27984 9.27325 6.21317 9.27325C6.11317 9.27325 6.05984 9.18658 6.05984 9.11325C6.05984 9.04658 6.09317 8.89992 6.15317 8.67992L7.3065 4.66658L7.31984 4.65991Z" fill="#858585"/>
<path d="M7.07349 3.9134C7.23349 3.7534 7.32016 3.5534 7.32016 3.32673C7.32016 3.10007 7.23349 2.8934 7.08016 2.74007C6.76682 2.42007 6.22016 2.4134 5.90016 2.74007C5.74016 2.90007 5.66016 3.10007 5.66016 3.32673C5.66016 3.5534 5.74682 3.76007 5.90682 3.9134C6.06682 4.0734 6.26682 4.16007 6.49349 4.16007C6.72016 4.16007 6.92016 4.0734 7.08016 3.9134H7.07349Z" fill="#858585"/>
</svg>
