<?xml version="1.0" encoding="UTF-8" standalone="no"?>
<!-- Created with Inkscape (http://www.inkscape.org/) -->

<svg
   width="121.17917mm"
   height="107.90047mm"
   viewBox="0 0 121.17917 107.90047"
   version="1.1"
   id="svg435"
   sodipodi:docname="workflow.svg"
   inkscape:version="1.1.2 (b8e25be8, 2022-02-05)"
   xmlns:inkscape="http://www.inkscape.org/namespaces/inkscape"
   xmlns:sodipodi="http://sodipodi.sourceforge.net/DTD/sodipodi-0.dtd"
   xmlns="http://www.w3.org/2000/svg"
   xmlns:svg="http://www.w3.org/2000/svg">
  <sodipodi:namedview
     id="namedview236"
     pagecolor="#ffffff"
     bordercolor="#666666"
     borderopacity="1.0"
     inkscape:pageshadow="2"
     inkscape:pageopacity="0.0"
     inkscape:pagecheckerboard="0"
     inkscape:document-units="mm"
     showgrid="false"
     fit-margin-top="0"
     fit-margin-left="0"
     fit-margin-right="0"
     fit-margin-bottom="0"
     inkscape:zoom="0.62716049"
     inkscape:cx="-234.38976"
     inkscape:cy="336.43701"
     inkscape:window-width="1619"
     inkscape:window-height="932"
     inkscape:window-x="1997"
     inkscape:window-y="322"
     inkscape:window-maximized="0"
     inkscape:current-layer="svg435" />
  <defs
     id="defs432">
    <style
       id="style453">.cls-1,.cls-3{fill:#d6d8e5;}.cls-1{opacity:0.4;}.cls-2{fill:#b1b4c4;}.cls-4{fill:#9ea1af;}.cls-5{fill:#e4e7f2;}.cls-6{fill:#fff;}.cls-7{fill:#e9eaf2;}.cls-8{fill:#dadce5;}.cls-9{fill:#232733;}.cls-10{fill:#8c50ff;}.cls-11{fill:#353c4c;}.cls-12{fill:#2b303f;}.cls-13{fill:#e7e9f2;}.cls-14{fill:#f7dc6b;}.cls-15{fill:#7c4cf2;}.cls-16{fill:#b1b6c4;}.cls-17{fill:#c4c7d6;}.cls-18{fill:#38226d;}.cls-19{fill:#9c73ff;}.cls-20{fill:#ffcea9;}.cls-21{fill:#ededed;}.cls-22{fill:#e5e5e5;}.cls-23{fill:#f4f4f4;}.cls-24{fill:#bfbfbf;}.cls-25{fill:#3a2c6d;}.cls-26{fill:#dceeff;}.cls-27{fill:#dbdbdb;}.cls-28{fill:#1e3779;}.cls-29{fill:#031f60;}.cls-30{fill:#edf0f9;}.cls-31{fill:#e2e5f2;}.cls-32{fill:#6e48e5;}</style>
  </defs>
  <g
     id="layer1"
     transform="translate(-41.082292,-59.572918)">
    <path
       class="cls-1"
       d="m 123.24071,161.60948 -12.65238,-7.31573 c -0.91281,-0.52917 -0.79375,-1.44727 0.26459,-2.05581 l 8.20208,-4.7334 15.95437,9.22602 -8.20208,4.7334 c -1.05833,0.60589 -2.64583,0.67204 -3.56658,0.14552 z"
       id="path459"
       style="stroke-width:0.264583" />
    <path
       class="cls-2"
       d="m 124.38371,160.94008 -12.65767,-7.30514 c -0.91017,-0.52917 -0.79375,-1.44727 0.26458,-2.05581 l 8.20209,-4.7334 15.95966,9.21544 -8.20208,4.73339 c -1.06098,0.6059 -2.65377,0.67204 -3.56658,0.14552 z"
       id="path461"
       style="stroke-width:0.264583" />
    <polygon
       class="cls-2"
       points="356.49,364.46 359.28,364.68 359.28,362.85 "
       id="polygon463"
       transform="matrix(0.26458333,0,0,0.26458333,41.082292,59.572918)" />
    <polygon
       class="cls-2"
       points="267.55,351.55 264.69,352.22 264.69,350.36 "
       id="polygon465"
       transform="matrix(0.26458333,0,0,0.26458333,41.082292,59.572918)" />
    <path
       class="cls-3"
       d="m 124.38371,160.45854 -12.65767,-7.30779 c -0.91017,-0.52917 -0.79375,-1.44462 0.26458,-2.05317 l 8.20209,-4.74133 15.95966,9.21279 -8.20208,4.7334 c -1.06098,0.60589 -2.65377,0.68262 -3.56658,0.1561 z"
       id="path467"
       style="stroke-width:0.264583" />
    <polygon
       class="cls-4"
       points="359.28,362.85 299.13,328.11 291.66,303.35 352.63,338.32 "
       id="polygon469"
       transform="matrix(0.26458333,0,0,0.26458333,41.082292,59.572918)" />
    <path
       class="cls-4"
       d="m 135.67348,155.84685 0.46831,-0.26458 -0.69585,-0.55562 z"
       id="path471"
       style="stroke-width:0.264583" />
    <polygon
       class="cls-2"
       points="357.51,363.87 297.2,329.04 289.74,304.28 350.71,339.25 "
       id="polygon473"
       transform="matrix(0.26458333,0,0,0.26458333,41.082292,59.572918)" />
    <path
       class="cls-2"
       d="M 160.67396,166.89056 98.232291,130.83844 c -0.875771,-0.50536 -1.5875,-1.85209 -1.5875,-3.03213 V 79.50398 c 0,-1.166812 0.709084,-1.703916 1.5875,-1.198562 l 62.441669,36.052122 c 0.87577,0.50536 1.5875,1.85209 1.5875,3.02948 V 165.692 c 0,1.16681 -0.71702,1.70392 -1.5875,1.19856 z"
       id="path475"
       style="stroke-width:0.264583" />
    <polygon
       class="cls-2"
       points="454.68,398.23 453.19,407.49 455.81,405.98 "
       id="polygon477"
       transform="matrix(0.26458333,0,0,0.26458333,41.082292,59.572918)" />
    <path
       class="cls-2"
       d="m 96.525729,78.604397 0.682625,-0.394229 0.978958,0.558271 c 0,0 -1.042458,0.15875 -1.058333,0.153458 -0.01587,-0.0053 -0.60325,-0.3175 -0.60325,-0.3175 z"
       id="path479"
       style="stroke-width:0.264583" />
    <path
       class="cls-5"
       d="M 160.09717,167.22129 97.6555,131.16917 c -0.875771,-0.50536 -1.5875,-1.85209 -1.5875,-3.03213 V 79.834709 c 0,-1.166812 0.711729,-1.703916 1.5875,-1.198562 l 62.44167,36.052123 c 0.87577,0.50536 1.5875,1.85208 1.5875,3.02948 v 48.30498 c -0.003,1.16681 -0.71173,1.70392 -1.5875,1.19856 z"
       id="path481"
       style="stroke-width:0.264583" />
    <path
       class="cls-3"
       d="M 159.98604,167.28215 97.544375,131.23002 c -0.875771,-0.50535 -1.5875,-1.85208 -1.5875,-3.02948 V 79.898209 c 0,-1.166812 0.709083,-1.703916 1.5875,-1.198562 l 62.441665,36.052123 c 0.87577,0.50536 1.5875,1.85208 1.5875,3.02948 v 48.30233 c 0,1.17475 -0.71173,1.70392 -1.5875,1.19857 z"
       id="path483"
       style="stroke-width:0.264583" />
    <path
       class="cls-6"
       d="m 160.71364,164.34792 -63.965661,-36.93054 0.0344,-47.326025 c 0,-0.484187 0.341312,-0.679979 0.759354,-0.439208 l 62.441657,36.052123 a 1.6801041,1.6801041 0 0 1 0.75936,1.32292 z"
       id="path485"
       style="stroke-width:0.264583" />
    <path
       class="cls-7"
       d="m 155.81031,148.02269 -11.21169,-6.39536 a 1.3021324,1.2865495 0 0 1 -0.54312,-1.02484 v -7.1497 c 0,-0.39586 0.24262,-0.5762 0.54312,-0.40465 l 11.21169,6.39536 a 1.2976806,1.282151 0 0 1 0.54311,1.02484 v 7.14969 c -0.009,0.39367 -0.25153,0.5762 -0.54311,0.40466 z"
       id="path489"
       style="stroke-width:0.221251" />
    <path
       class="cls-7"
       d="m 155.81031,158.88684 -11.21169,-6.39536 a 1.3021324,1.2865495 0 0 1 -0.54312,-1.02484 v -7.1497 c 0,-0.39366 0.24262,-0.5762 0.54312,-0.40465 l 11.21169,6.39535 a 1.3021324,1.2865495 0 0 1 0.53421,1.03364 v 7.1497 c 0,0.38487 -0.24263,0.5674 -0.53421,0.39586 z"
       id="path505"
       style="stroke-width:0.221251" />
    <polygon
       class="cls-9"
       points="271.68,205.33 267,224.07 267,208.03 "
       id="polygon528"
       transform="matrix(0.26458333,0,0,0.26458333,41.082292,59.572918)" />
    <polygon
       class="cls-9"
       points="217.17,173.56 212.49,192.31 212.49,176.27 "
       id="polygon530"
       transform="matrix(0.26458333,0,0,0.26458333,41.082292,59.572918)" />
    <path
       class="cls-7"
       d="M 118.90683,136.2571 89.426958,119.23646 a 1.3837708,1.3837708 0 0 1 -0.576792,-1.10596 v -15.08125 c 0,-0.42598 0.264584,-0.62177 0.576792,-0.43656 l 29.479872,17.02064 a 1.3784791,1.3784791 0 0 1 0.57944,1.10332 v 15.09448 c 0,0.41539 -0.25929,0.61118 -0.57944,0.42597 z"
       id="path532"
       style="stroke-width:0.264583" />
    <polygon
       class="cls-11"
       points="258.88,175.51 258.88,201.44 252.14,205.33 261.91,210.97 271.68,205.33 264.95,201.44 264.94,180.06 "
       id="polygon538"
       transform="matrix(0.26458333,0,0,0.26458333,41.082292,59.572918)" />
    <polygon
       class="cls-9"
       points="267,224.07 267,208.94 267,208.03 261.91,210.97 "
       id="polygon540"
       transform="matrix(0.26458333,0,0,0.26458333,41.082292,59.572918)" />
    <polygon
       class="cls-12"
       points="256.47,217.91 267,224.07 261.91,210.97 252.14,205.33 "
       id="polygon542"
       transform="matrix(0.26458333,0,0,0.26458333,41.082292,59.572918)" />
    <polygon
       class="cls-11"
       points="204.37,143.74 204.37,169.67 197.63,173.56 207.4,179.21 217.17,173.56 210.43,169.68 210.43,143.74 "
       id="polygon544"
       transform="matrix(0.26458333,0,0,0.26458333,41.082292,59.572918)" />
    <polygon
       class="cls-9"
       points="212.49,192.31 212.49,177.18 212.49,176.27 207.4,179.21 "
       id="polygon546"
       transform="matrix(0.26458333,0,0,0.26458333,41.082292,59.572918)" />
    <polygon
       class="cls-12"
       points="201.96,186.14 212.49,192.31 207.4,179.21 197.63,173.56 "
       id="polygon548"
       transform="matrix(0.26458333,0,0,0.26458333,41.082292,59.572918)" />
    <polygon
       class="cls-1"
       points="75.75,335.45 148.49,293.46 148.49,288.02 143.77,290.74 83.41,255.72 10.68,297.71 "
       id="polygon550"
       transform="matrix(0.26458333,0,0,0.26458333,41.082292,59.572918)" />
    <polygon
       class="cls-2"
       points="83.41,246.75 15.39,286.02 10.68,283.3 10.68,288.74 83.41,330.74 156.14,288.74 156.14,283.3 151.43,286.02 "
       id="polygon552"
       transform="matrix(0.26458333,0,0,0.26458333,41.082292,59.572918)" />
    <polygon
       class="cls-13"
       points="10.68,283.3 83.41,241.31 156.14,283.3 83.41,325.29 "
       id="polygon554"
       transform="matrix(0.26458333,0,0,0.26458333,41.082292,59.572918)" />
    <polygon
       class="cls-2"
       points="87.93,265.01 87.93,62.2 83.18,64.94 83.18,267.75 "
       id="polygon556"
       transform="matrix(0.26458333,0,0,0.26458333,41.082292,59.572918)" />
    <polygon
       class="cls-2"
       points="116.77,200.25 121.52,198.31 87.93,145.23 83.56,147.69 "
       id="polygon558"
       transform="matrix(0.26458333,0,0,0.26458333,41.082292,59.572918)" />
    <polygon
       class="cls-3"
       points="116.59,209.86 116.59,199.98 83.36,147.35 83.36,157.04 "
       id="polygon560"
       transform="matrix(0.26458333,0,0,0.26458333,41.082292,59.572918)" />
    <polygon
       class="cls-3"
       points="83.36,267.75 83.36,64.94 78.61,62.2 78.61,265.01 "
       id="polygon562"
       transform="matrix(0.26458333,0,0,0.26458333,41.082292,59.572918)" />
    <polygon
       class="cls-3"
       points="121.34,289.68 121.34,86.87 116.59,84.13 116.59,286.94 "
       id="polygon564"
       transform="matrix(0.26458333,0,0,0.26458333,41.082292,59.572918)" />
    <polygon
       class="cls-2"
       points="125.91,286.94 125.91,84.13 121.16,86.87 121.16,289.68 "
       id="polygon566"
       transform="matrix(0.26458333,0,0,0.26458333,41.082292,59.572918)" />
    <polygon
       class="cls-3"
       points="116.59,213.34 116.59,203.8 83.36,243.65 83.36,253.13 "
       id="polygon568"
       transform="matrix(0.26458333,0,0,0.26458333,41.082292,59.572918)" />
    <polygon
       class="cls-2"
       points="87.93,250.63 116.59,216.08 116.59,212.6 83.36,253.13 "
       id="polygon570"
       transform="matrix(0.26458333,0,0,0.26458333,41.082292,59.572918)" />
    <polygon
       class="cls-3"
       points="116.59,107.9 116.59,98.36 83.36,138.21 83.36,147.69 "
       id="polygon572"
       transform="matrix(0.26458333,0,0,0.26458333,41.082292,59.572918)" />
    <polygon
       class="cls-2"
       points="87.93,145.18 116.59,110.64 116.59,107.16 83.36,147.69 "
       id="polygon574"
       transform="matrix(0.26458333,0,0,0.26458333,41.082292,59.572918)" />
    <polygon
       class="cls-2"
       points="50.23,286.91 50.23,84.1 45.48,86.84 45.48,289.65 "
       id="polygon576"
       transform="matrix(0.26458333,0,0,0.26458333,41.082292,59.572918)" />
    <polygon
       class="cls-2"
       points="79.07,222.14 83.82,220.21 50.23,167.13 45.86,169.59 "
       id="polygon578"
       transform="matrix(0.26458333,0,0,0.26458333,41.082292,59.572918)" />
    <polygon
       class="cls-3"
       points="78.89,231.75 78.89,221.88 45.66,169.24 45.66,178.94 "
       id="polygon580"
       transform="matrix(0.26458333,0,0,0.26458333,41.082292,59.572918)" />
    <polygon
       class="cls-3"
       points="45.66,289.65 45.66,86.84 40.92,84.1 40.92,286.91 "
       id="polygon582"
       transform="matrix(0.26458333,0,0,0.26458333,41.082292,59.572918)" />
    <polygon
       class="cls-3"
       points="83.64,311.57 83.64,108.77 78.89,106.02 78.89,308.83 "
       id="polygon584"
       transform="matrix(0.26458333,0,0,0.26458333,41.082292,59.572918)" />
    <polygon
       class="cls-2"
       points="88.21,308.83 88.21,106.02 83.46,108.77 83.46,311.57 "
       id="polygon586"
       transform="matrix(0.26458333,0,0,0.26458333,41.082292,59.572918)" />
    <polygon
       class="cls-3"
       points="78.89,235.24 78.89,225.69 45.66,265.55 45.66,275.03 "
       id="polygon588"
       transform="matrix(0.26458333,0,0,0.26458333,41.082292,59.572918)" />
    <polygon
       class="cls-2"
       points="50.23,272.52 78.89,237.98 78.89,234.49 45.66,275.03 "
       id="polygon590"
       transform="matrix(0.26458333,0,0,0.26458333,41.082292,59.572918)" />
    <polygon
       class="cls-3"
       points="78.89,129.8 78.89,120.25 45.66,160.1 45.66,169.59 "
       id="polygon592"
       transform="matrix(0.26458333,0,0,0.26458333,41.082292,59.572918)" />
    <polygon
       class="cls-2"
       points="50.23,167.08 78.89,132.53 78.89,129.05 45.66,169.59 "
       id="polygon594"
       transform="matrix(0.26458333,0,0,0.26458333,41.082292,59.572918)" />
    <polygon
       class="cls-14"
       points="34.61,90.73 83.64,62.43 132.67,90.73 83.64,119.04 "
       id="polygon596"
       transform="matrix(0.26458333,0,0,0.26458333,41.082292,59.572918)" />
    <polygon
       class="cls-11"
       points="21.86,71.47 5.22,61.86 63.35,28.3 79.99,37.91 "
       id="polygon598"
       transform="matrix(0.26458333,0,0,0.26458333,41.082292,59.572918)" />
    <polygon
       class="cls-12"
       points="5.22,61.86 21.86,71.47 21.86,84.93 5.22,75.32 "
       id="polygon600"
       transform="matrix(0.26458333,0,0,0.26458333,41.082292,59.572918)" />
    <polyline
       class="cls-9"
       points="21.86 84.93 79.99 51.37 79.99 37.91 21.86 71.47 21.86 83.62"
       id="polyline602"
       transform="matrix(0.26458333,0,0,0.26458333,41.082292,59.572918)" />
    <polygon
       class="cls-11"
       points="21.86,56.37 5.22,46.76 63.35,13.2 79.99,22.81 "
       id="polygon604"
       transform="matrix(0.26458333,0,0,0.26458333,41.082292,59.572918)" />
    <polygon
       class="cls-12"
       points="5.22,46.76 21.86,56.37 21.86,69.84 5.22,60.23 "
       id="polygon606"
       transform="matrix(0.26458333,0,0,0.26458333,41.082292,59.572918)" />
    <polyline
       class="cls-9"
       points="21.86 69.84 79.99 36.28 79.99 22.81 21.86 56.37 21.86 68.53"
       id="polyline608"
       transform="matrix(0.26458333,0,0,0.26458333,41.082292,59.572918)" />
    <polygon
       class="cls-3"
       points="0,43.87 0,36.33 36.05,56.88 36.05,64.55 "
       id="polygon610"
       transform="matrix(0.26458333,0,0,0.26458333,41.082292,59.572918)" />
    <polygon
       class="cls-13"
       points="0,36.33 6.53,32.56 94.74,83.05 88.21,86.82 "
       id="polygon612"
       transform="matrix(0.26458333,0,0,0.26458333,41.082292,59.572918)" />
    <polygon
       class="cls-3"
       points="30.42,26.43 30.42,18.88 75.71,43.15 75.71,52.63 "
       id="polygon614"
       transform="matrix(0.26458333,0,0,0.26458333,41.082292,59.572918)" />
    <polygon
       class="cls-13"
       points="30.42,18.89 36.95,15.12 116.59,60.32 110.06,64.09 "
       id="polygon616"
       transform="matrix(0.26458333,0,0,0.26458333,41.082292,59.572918)" />
    <polygon
       class="cls-3"
       points="54.55,40.34 57.65,62.05 62.25,64.91 54.55,32.8 "
       id="polygon618"
       transform="matrix(0.26458333,0,0,0.26458333,41.082292,59.572918)" />
    <polygon
       class="cls-13"
       points="62.22,37.23 54.55,32.8 59.2,63.25 68.18,68.13 "
       id="polygon620"
       transform="matrix(0.26458333,0,0,0.26458333,41.082292,59.572918)" />
    <polygon
       class="cls-2"
       points="54.55,32.8 54.55,40.34 30.76,46.61 18.54,39.55 53.51,32.18 "
       id="polygon622"
       transform="matrix(0.26458333,0,0,0.26458333,41.082292,59.572918)" />
    <polygon
       class="cls-13"
       points="21.42,41.22 14.3,37.11 47.69,28.58 54.55,32.8 "
       id="polygon624"
       transform="matrix(0.26458333,0,0,0.26458333,41.082292,59.572918)" />
    <polygon
       class="cls-13"
       points="34.61,28.31 83.64,0 132.67,28.31 83.64,56.62 "
       id="polygon626"
       transform="matrix(0.26458333,0,0,0.26458333,41.082292,59.572918)" />
    <polygon
       class="cls-3"
       points="34.61,28.31 83.64,56.62 83.64,144.04 34.61,115.73 "
       id="polygon628"
       transform="matrix(0.26458333,0,0,0.26458333,41.082292,59.572918)" />
    <polygon
       class="cls-2"
       points="132.67,115.73 83.64,144.04 83.64,56.61 132.67,28.31 "
       id="polygon630"
       transform="matrix(0.26458333,0,0,0.26458333,41.082292,59.572918)" />
    <polygon
       class="cls-3"
       points="90.12,96.78 90.12,89.24 302.27,211.73 302.27,219.27 "
       id="polygon636"
       transform="matrix(0.26458333,0,0,0.26458333,41.082292,59.572918)" />
    <polygon
       class="cls-13"
       points="90.12,89.25 96.65,85.48 308.8,207.96 302.27,211.73 "
       id="polygon638"
       transform="matrix(0.26458333,0,0,0.26458333,41.082292,59.572918)" />
    <polygon
       class="cls-3"
       points="120.54,79.34 120.54,71.8 332.69,194.29 332.69,201.83 "
       id="polygon640"
       transform="matrix(0.26458333,0,0,0.26458333,41.082292,59.572918)" />
    <polygon
       class="cls-13"
       points="120.54,71.8 127.07,68.03 339.22,190.52 332.69,194.29 "
       id="polygon642"
       transform="matrix(0.26458333,0,0,0.26458333,41.082292,59.572918)" />
    <polygon
       class="cls-2"
       points="302.27,219.27 302.27,211.72 339.22,190.54 339.22,198.08 "
       id="polygon644"
       transform="matrix(0.26458333,0,0,0.26458333,41.082292,59.572918)" />
    <polygon
       class="cls-13"
       points="302.29,211.73 296.76,208.54 333.69,187.35 339.22,190.54 "
       id="polygon646"
       transform="matrix(0.26458333,0,0,0.26458333,41.082292,59.572918)" />
    <polygon
       class="cls-2"
       points="306.1,178.92 306.1,186.46 282.3,192.73 270.08,185.67 305.05,178.3 "
       id="polygon648"
       transform="matrix(0.26458333,0,0,0.26458333,41.082292,59.572918)" />
    <polygon
       class="cls-13"
       points="272.97,187.34 265.85,183.22 299.23,174.7 306.1,178.92 "
       id="polygon650"
       transform="matrix(0.26458333,0,0,0.26458333,41.082292,59.572918)" />
    <polygon
       class="cls-3"
       points="252.41,155.5 255.51,177.21 260.11,180.06 252.41,147.96 "
       id="polygon652"
       transform="matrix(0.26458333,0,0,0.26458333,41.082292,59.572918)" />
    <polygon
       class="cls-13"
       points="260.08,152.39 252.41,147.96 257.07,178.41 266.04,183.29 "
       id="polygon654"
       transform="matrix(0.26458333,0,0,0.26458333,41.082292,59.572918)" />
    <polygon
       class="cls-2"
       points="252.41,147.96 252.41,155.5 228.62,161.77 216.4,154.71 251.37,147.34 "
       id="polygon656"
       transform="matrix(0.26458333,0,0,0.26458333,41.082292,59.572918)" />
    <polygon
       class="cls-13"
       points="219.29,156.38 212.17,152.27 245.55,143.74 252.41,147.96 "
       id="polygon658"
       transform="matrix(0.26458333,0,0,0.26458333,41.082292,59.572918)" />
    <polygon
       class="cls-3"
       points="198.54,124.37 201.63,146.08 206.24,148.94 198.54,116.83 "
       id="polygon660"
       transform="matrix(0.26458333,0,0,0.26458333,41.082292,59.572918)" />
    <polygon
       class="cls-13"
       points="206.21,121.26 198.54,116.83 203.19,147.28 212.17,152.16 "
       id="polygon662"
       transform="matrix(0.26458333,0,0,0.26458333,41.082292,59.572918)" />
    <polygon
       class="cls-2"
       points="198.54,116.83 198.54,124.37 174.75,130.64 162.53,123.58 197.5,116.21 "
       id="polygon664"
       transform="matrix(0.26458333,0,0,0.26458333,41.082292,59.572918)" />
    <polygon
       class="cls-13"
       points="165.41,125.25 158.29,121.14 191.68,112.61 198.54,116.83 "
       id="polygon666"
       transform="matrix(0.26458333,0,0,0.26458333,41.082292,59.572918)" />
    <polygon
       class="cls-3"
       points="144.67,93.26 147.76,114.97 152.37,117.82 144.67,85.72 "
       id="polygon668"
       transform="matrix(0.26458333,0,0,0.26458333,41.082292,59.572918)" />
    <polygon
       class="cls-13"
       points="152.34,90.15 144.67,85.72 149.32,116.17 158.29,121.05 "
       id="polygon670"
       transform="matrix(0.26458333,0,0,0.26458333,41.082292,59.572918)" />
    <polygon
       class="cls-2"
       points="144.67,85.72 144.67,93.26 120.88,99.53 108.66,92.47 143.63,85.1 "
       id="polygon672"
       transform="matrix(0.26458333,0,0,0.26458333,41.082292,59.572918)" />
    <polygon
       class="cls-13"
       points="111.54,94.14 104.42,90.03 137.8,81.5 144.67,85.72 "
       id="polygon674"
       transform="matrix(0.26458333,0,0,0.26458333,41.082292,59.572918)" />
    <path
       class="cls-1"
       d="m 49.482813,151.02085 -7.077604,-4.15131 c -0.79375,-0.47096 -0.703792,-1.29381 0.224895,-1.83621 l 3.598334,-2.11666 c 0.928687,-0.52917 2.330979,-0.60061 3.135312,-0.12965 l 7.088188,4.15131 c 0.79375,0.46832 0.701145,1.29117 -0.224896,1.83621 l -3.598333,2.11667 c -0.939271,0.54239 -2.344209,0.6006 -3.145896,0.12964 z"
       id="path857"
       style="stroke-width:0.264583" />
    <path
       class="cls-3"
       d="M 58.280208,146.92775 V 136.8921 L 43.14075,135.16438 v 10.09914 0 a 0.92868749,0.92868749 0 0 0 0.529167,0.82286 l 7.096125,4.15131 c 0.79375,0.47096 2.209271,0.41275 3.135312,-0.13229 l 3.598334,-2.11667 c 0.529166,-0.30692 0.79375,-0.70115 0.767291,-1.05833 z"
       id="path859"
       style="stroke-width:0.264583" />
    <path
       class="cls-30"
       d="m 58.264333,137.98748 v -1.09538 h -1.164166 l -6.461125,-3.78883 c -0.79375,-0.47096 -2.209271,-0.4101 -3.135313,0.13229 l -3.598333,2.11667 a 1.9076458,1.9076458 0 0 0 -0.187854,0.12171 l -0.576792,-0.30956 c 0,0 0,1.15622 0,1.19591 v 0 a 0.93397915,0.93397915 0 0 0 0.529167,0.82021 l 7.096125,4.14867 c 0.79375,0.47096 2.209271,0.4101 3.135312,-0.13229 l 3.598334,-2.11667 c 0.529166,-0.31486 0.79375,-0.72231 0.764645,-1.10331 z"
       id="path861"
       style="stroke-width:0.264583" />
    <path
       class="cls-31"
       d="M 50.766042,140.13854 43.6805,135.98723 c -0.79375,-0.47096 -0.703791,-1.29381 0.224896,-1.83621 l 3.598333,-2.11667 c 0.926042,-0.52916 2.33098,-0.60325 3.135313,-0.13229 l 7.088187,4.15132 c 0.79375,0.47095 0.701146,1.29381 -0.227541,1.8362 l -3.598334,2.11667 c -0.912812,0.5424 -2.330979,0.60325 -3.135312,0.13229 z"
       id="path863"
       style="stroke-width:0.264583" />
    <g
       id="g3184"
       style="fill:#242a3f;fill-opacity:1">
      <path
         class="cls-32"
         d="m 49.170604,134.47117 v -0.39952 h -0.24077 l -0.07673,-0.0476 a 1.666875,1.666875 0 0 0 -1.531937,0 0.77522916,0.77522916 0 0 0 -0.127,0.09 l -0.187854,-0.0423 v 0.39952 a 0.52916666,0.52916666 0 0 0 0.314854,0.44979 1.68275,1.68275 0 0 0 1.531937,0 0.55033333,0.55033333 0 0 0 0.3175,-0.44979 z"
         id="path865"
         style="fill:#242a3f;fill-opacity:1;stroke-width:0.264583" />
      <path
         class="cls-32"
         d="m 51.784688,135.97665 v -0.39952 h -0.240771 l -0.07408,-0.0476 a 1.666875,1.666875 0 0 0 -1.531938,0 0.69849999,0.69849999 0 0 0 -0.129646,0.09 l -0.187854,-0.0423 v 0.39952 a 0.55033333,0.55033333 0 0 0 0.3175,0.44979 1.68275,1.68275 0 0 0 1.531938,0 0.52916666,0.52916666 0 0 0 0.314854,-0.44979 z"
         id="path869"
         style="fill:#242a3f;fill-opacity:1;stroke-width:0.264583" />
      <path
         class="cls-32"
         d="m 54.404063,137.58531 v -0.39952 h -0.243417 l -0.07408,-0.0476 a 1.666875,1.666875 0 0 0 -1.531938,0 0.85460416,0.85460416 0 0 0 -0.129646,0.09 l -0.187854,-0.0423 v 0.39952 a 0.54504166,0.54504166 0 0 0 0.3175,0.44979 1.666875,1.666875 0 0 0 1.531938,0 0.54504166,0.54504166 0 0 0 0.3175,-0.44979 z"
         id="path873"
         style="fill:#242a3f;fill-opacity:1;stroke-width:0.264583" />
    </g>
    <g
       id="g1986"
       style="opacity:1;fill:#1976d2;fill-opacity:1">
      <polygon
         class="cls-10"
         points="55.49,70.82 46.44,42.02 83.64,63.5 83.64,87.07 "
         id="polygon632"
         transform="matrix(0.26458333,0,0,0.26458333,41.082292,59.572918)"
         style="fill:#1976d2;fill-opacity:1" />
      <polygon
         class="cls-15"
         points="132.67,58.76 83.64,87.08 83.64,63.51 132.67,35.19 "
         id="polygon634"
         transform="matrix(0.26458333,0,0,0.26458333,41.082292,59.572918)"
         style="fill:#1976d2;fill-opacity:1" />
      <ellipse
         class="cls-10"
         cx="48.088459"
         cy="134.07166"
         rx="1.0821458"
         ry="0.63499999"
         id="ellipse867"
         style="fill:#1976d2;fill-opacity:1;stroke-width:0.264583" />
      <ellipse
         class="cls-10"
         cx="50.702541"
         cy="135.57713"
         rx="1.0821458"
         ry="0.63499999"
         id="ellipse871"
         style="fill:#1976d2;fill-opacity:1;stroke-width:0.264583" />
      <ellipse
         class="cls-10"
         cx="53.319271"
         cy="137.18579"
         rx="1.0821458"
         ry="0.63499999"
         id="ellipse875"
         style="fill:#1976d2;fill-opacity:1;stroke-width:0.264583" />
    </g>
    <g
       transform="matrix(0.00134665,8.1896773e-4,0,-0.00134665,96.352827,115.81084)"
       id="g1643"
       style="fill:#1976d2;fill-opacity:1">
      <path
         d="m 6516.2,3301.5 c -71.1,-34.6 -103.8,-88.4 -176.9,-282.6 -55.7,-146.1 -157.6,-223 -307.6,-234.5 -151.8,-11.5 -251.8,46.1 -361.4,211.4 -101.9,153.8 -148,188.4 -246,190.3 -100,0 -265.3,-84.6 -311.4,-163.4 -53.8,-86.5 -48.1,-169.2 23.1,-307.6 119.2,-232.6 63.4,-436.4 -146.1,-540.2 -107.7,-55.8 -115.3,-55.8 -221.1,-32.7 -59.6,13.5 -146.1,28.8 -194.2,32.7 -161.5,17.3 -263.4,-96.1 -282.6,-321 -11.5,-107.7 -7.7,-115.3 53.8,-176.9 42.3,-40.4 111.5,-80.7 192.2,-107.6 194.2,-63.4 286.4,-178.8 286.4,-357.6 0,-157.6 -61.5,-248 -242.2,-359.5 -163.4,-98 -198,-213.4 -115.3,-376.8 100,-198 217.2,-238.4 407.5,-142.3 63.4,32.7 146.1,63.4 184.5,71.1 144.2,26.9 307.6,-59.6 380.6,-203.8 46.1,-86.5 48.1,-180.7 9.6,-324.9 -50,-186.5 13.5,-303.7 192.2,-357.5 223,-67.3 317.2,-13.5 396,223 75,221.1 255.7,338.3 444.1,286.4 119.2,-30.8 167.2,-71.1 257.6,-213.4 132.8,-205.3 246.3,-236.1 442.3,-113.1 157.6,96.1 180.7,205.7 84.6,409.4 -69.2,144.2 -75,271 -21.1,376.8 73,142.3 190.3,205.7 351.8,188.4 372.9,-38.4 330.6,-42.3 407.5,28.8 50,48.1 76.9,94.2 96.1,174.9 50,194.1 -9.6,294.1 -213.4,363.3 -207.6,69.2 -313.3,192.2 -313.3,367.1 0,136.5 63.4,238.4 211.4,332.6 71.1,46.1 144.2,103.8 161.5,126.9 42.3,61.5 38.4,176.8 -9.6,272.9 -57.7,115.3 -109.6,165.3 -194.2,188.4 -67.3,17.3 -90.4,11.5 -224.9,-50 -228.7,-101.9 -371,-86.5 -495.9,53.8 -98,111.5 -115.3,196.1 -73,376.8 19.2,86.5 28.8,173 21.1,203.8 -21.1,82.7 -107.6,155.7 -226.8,190.3 -134.6,38.6 -144.2,38.6 -226.9,-3.7 z M 6335.5,2161.6 c 236.5,-44.2 457.5,-215.3 561.3,-436.4 46.1,-98 51.9,-132.6 51.9,-321 0,-192.2 -5.8,-221.1 -53.8,-322.9 C 6818,927.4 6679.6,791 6522,716 c -119.2,-55.8 -148,-61.5 -313.3,-61.5 -144.2,1.9 -205.7,9.6 -294.1,46.1 -153.8,61.5 -322.9,221.1 -401.8,380.6 -182.6,371 -15.4,845.8 361.4,1018.8 169.1,76.9 288.3,94.2 461.3,61.6 z"
         id="path1637"
         style="fill:#1976d2;fill-opacity:1" />
      <path
         d="m 2254.5,1971.2 c -86.5,-19.2 -155.7,-69.2 -198,-140.3 -32.7,-51.9 -38.4,-98 -38.4,-286.4 0,-123 -9.6,-248 -21.1,-278.7 -65.4,-176.8 -213.4,-290.3 -399.8,-307.6 -146.1,-13.4 -230.7,15.4 -394.1,134.6 -121.1,88.4 -144.2,100 -249.9,105.7 C 809,1206.2 755.2,1175.4 636,1021.7 564.9,931.3 549.5,892.9 541.8,810.2 530.3,669.9 570.6,596.8 720.6,471.9 878.2,341.2 941.7,223.9 941.7,64.4 941.7,-68.2 910.9,-149 826.4,-247 743.7,-339.3 655.3,-383.5 490,-410.4 292,-443.1 238.2,-466.2 174.7,-537.3 c -73.1,-84.6 -88.4,-167.2 -63.4,-340.2 21.1,-142.2 55.8,-205.7 146.1,-272.9 46.1,-36.5 80.7,-40.4 296,-42.3 269.1,0 321,-15.4 442.1,-130.7 80.7,-73.1 115.3,-140.3 136.5,-251.8 26.9,-144.2 -5.8,-249.9 -134.6,-440.2 -113.4,-167.2 -117.3,-176.9 -109.6,-276.8 11.5,-121.1 46.1,-174.9 194.1,-290.3 198,-153.8 359.5,-125 542.1,96.1 125,149.9 244.1,213.4 403.7,215.3 253.8,0 424.8,-151.8 472.9,-424.8 9.6,-59.6 23.1,-138.4 28.8,-173 13.4,-88.4 128.8,-209.5 219.1,-234.5 48.1,-13.5 115.3,-13.5 203.8,0 73,9.6 138.4,19.2 146.1,19.2 28.8,0 134.6,103.8 163.4,161.5 25,46.1 30.8,105.7 26.9,274.9 -3.9,240.3 11.5,301.8 113.4,417.1 117.3,132.6 309.5,192.2 471,148 42.3,-11.5 132.6,-59.6 199.9,-109.6 165.3,-121.1 238.4,-148 344.1,-132.6 96.1,13.5 199.9,98.1 292.2,234.5 44.2,71.1 57.7,109.6 57.7,186.5 0,123 -38.4,186.5 -192.2,321 -211.5,182.6 -267.2,396 -161.5,609.4 86.5,174.9 167.2,223 476.7,280.7 257.6,50 342.2,173 305.7,442.1 -25,173 -75,251.8 -192.2,303.7 -73,32.7 -109.6,34.6 -251.8,25 -101.9,-9.6 -198,-5.8 -244.1,7.7 -121.1,32.7 -232.6,124.9 -290.3,242.2 -44.2,90.4 -50,125 -44.2,244.1 7.7,136.5 11.5,146.1 121.1,301.8 132.6,186.5 155.7,290.3 96.1,415.2 -40.4,86.5 -221.1,232.6 -321,261.4 -138.4,36.5 -199.9,9.6 -369.1,-165.3 -192.2,-199.9 -248,-228.7 -422.9,-228.7 -157.6,0 -257.6,42.3 -353.7,153.8 -76.9,86.5 -94.2,130.7 -130.7,334.5 -30.7,176.9 -80.7,267.2 -178.8,317.2 -59.7,30.5 -252,36.3 -359.6,9.3 z M 2890.8,404.6 c 182.6,-48.1 319.1,-126.9 455.6,-259.5 394.1,-388.3 403.7,-980.4 23.1,-1386 -196.1,-207.6 -424.8,-305.7 -717,-305.7 -292.2,0 -520.9,98 -717,305.7 -292.2,313.3 -359.5,730.5 -174.9,1113 201.7,417.1 688,647.8 1130.2,532.5 z"
         id="path1639"
         style="fill:#1976d2;fill-opacity:1" />
      <path
         d="m 8261.7,912.1 c -59.6,-32.7 -80.7,-100 -80.7,-242.2 -1.9,-134.6 -3.8,-142.2 -71.1,-209.5 -105.7,-103.8 -196.1,-109.6 -342.2,-19.2 -142.2,86.5 -223,92.3 -294.1,17.3 -125,-134.6 -125,-213.4 3.9,-330.6 57.5,-52 103.7,-115.5 115.2,-153.9 38.4,-138.4 -53.8,-290.3 -192.2,-317.2 -30.8,-5.8 -82.7,-17.3 -115.3,-23.1 -84.6,-15.4 -134.6,-90.4 -134.6,-203.8 0,-78.8 9.6,-103.8 55.8,-151.9 51.9,-50 69.2,-55.8 188.4,-55.8 149.9,0 236.4,-40.4 284.5,-132.6 48.1,-94.2 36.5,-178.8 -38.4,-288.3 -92.3,-134.6 -92.3,-211.4 5.8,-299.9 111.5,-103.8 190.3,-100 311.4,17.3 103.8,101.9 151.9,126.9 230.7,126.9 119.2,0 249.9,-115.3 249.9,-221.1 0,-96.1 40.4,-182.6 100,-213.4 78.8,-40.4 215.3,-21.2 276.8,40.4 40.4,40.4 46.1,63.4 46.1,194.2 0,144.2 0,148 75,221.1 65.4,67.3 84.6,75 167.2,75 73.1,0 117.3,-15.4 199.9,-67.3 57.7,-36.5 123,-67.3 146.1,-67.3 53.8,0 153.8,82.7 192.2,157.6 42.3,82.7 19.2,149.9 -88.4,251.8 -142.3,134.6 -153.8,267.2 -32.7,388.3 48.1,48.1 86.5,65.4 167.2,76.9 180.7,25 251.8,140.3 190.3,315.3 -30.8,84.6 -111.5,123 -228.8,107.6 -173,-23.1 -307.6,86.5 -307.6,249.9 0,55.8 19.2,107.7 67.3,182.6 100,155.7 86.5,238.4 -55.8,324.9 -103.8,65.3 -151.8,53.8 -280.6,-65.4 C 8965.3,496.7 8951.8,491 8859.5,491 c -88.4,0 -105.7,7.7 -171.1,73 -57.7,57.7 -75,90.4 -86.5,174.9 C 8582.7,885 8530.8,933 8396.2,933 8340.5,933.2 8279,923.6 8261.7,912.1 Z M 8740.3,49 c 186.5,-82.7 294.1,-236.4 309.5,-444 11.5,-165.3 -26.9,-278.7 -138.4,-397.9 -98,-107.6 -201.8,-159.6 -336.4,-171.1 -371,-34.6 -659.3,299.9 -569,655.5 84.6,328.6 424.8,493.9 734.3,357.5 z"
         id="path1641"
         style="fill:#1976d2;fill-opacity:1" />
    </g>
    <rect
       style="opacity:1;fill:#e9eaf2;fill-opacity:1;stroke-width:0.199868"
       id="rect5170"
       width="12.498425"
       height="8.063015"
       x="157.62192"
       y="-39.240314"
       transform="matrix(0.64213635,0.76659044,-0.99537116,0.0961054,0,0)" />
    <path
       class="cls-7"
       d="m 135.86238,140.48147 -11.21169,-6.39536 a 1.3021324,1.2865495 0 0 1 -0.54312,-1.02484 v -7.1497 c 0,-0.39366 0.24262,-0.5762 0.54312,-0.40465 l 11.21169,6.39535 a 1.3021324,1.2865495 0 0 1 0.53421,1.03364 v 7.1497 c 0,0.38487 -0.24263,0.5674 -0.53421,0.39586 z"
       id="path505-0"
       style="fill:#e9eaf2;stroke-width:0.221251" />
    <ellipse
       style="opacity:1;fill:#e9eaf2;fill-opacity:1;stroke-width:0.36069"
       id="path5546"
       cx="151.81891"
       cy="54.6348"
       rx="3.3791173"
       ry="2.936496"
       transform="matrix(0.92694681,0.37519277,0,1,0,0)" />
    <g
       id="g5766"
       style="stroke:#e9eaf2;stroke-opacity:1">
      <path
         style="fill:none;stroke:#e9eaf2;stroke-width:0.264583px;stroke-linecap:butt;stroke-linejoin:miter;stroke-opacity:1"
         d="m 148.2604,126.5583 2.0136,1.11867 -0.0746,8.42727"
         id="path5325" />
      <path
         style="fill:none;stroke:#e9eaf2;stroke-width:0.264583px;stroke-linecap:butt;stroke-linejoin:miter;stroke-opacity:1"
         d="m 132.2262,117.75814 -1.93902,-1.04409 -0.0746,12.30531"
         id="path5327" />
      <path
         style="fill:none;stroke:#e9eaf2;stroke-width:0.264583px;stroke-linecap:butt;stroke-linejoin:miter;stroke-opacity:1"
         d="m 149.97569,144.53152 v 2.46106"
         id="path5442" />
      <path
         style="fill:none;stroke:#e9eaf2;stroke-width:0.264583px;stroke-linecap:butt;stroke-linejoin:miter;stroke-opacity:1"
         d="m 140.28059,117.16151 0.0746,-2.83394"
         id="path5680" />
    </g>
  </g>
</svg>
