<?xml version="1.0" encoding="UTF-8" standalone="no"?>
<svg
   viewBox="0 0 874.92162 185.39999"
   version="1.1"
   id="svg39"
   sodipodi:docname="02_Conductor_LogoHorizontal_Original.svg"
   width="874.92163"
   height="185.39999"
   inkscape:version="1.1.2 (b8e25be8, 2022-02-05)"
   xmlns:inkscape="http://www.inkscape.org/namespaces/inkscape"
   xmlns:sodipodi="http://sodipodi.sourceforge.net/DTD/sodipodi-0.dtd"
   xmlns="http://www.w3.org/2000/svg"
   xmlns:svg="http://www.w3.org/2000/svg">
  <sodipodi:namedview
     id="namedview41"
     pagecolor="#ffffff"
     bordercolor="#666666"
     borderopacity="1.0"
     inkscape:pageshadow="2"
     inkscape:pageopacity="0.0"
     inkscape:pagecheckerboard="0"
     showgrid="false"
     inkscape:zoom="1.1183844"
     inkscape:cx="436.7908"
     inkscape:cy="92.544213"
     inkscape:window-width="2584"
     inkscape:window-height="1065"
     inkscape:window-x="2467"
     inkscape:window-y="203"
     inkscape:window-maximized="0"
     inkscape:current-layer="Layer_2" />
  <defs
     id="defs11">
    <style
       id="style9">.cls-1{fill:none;}.cls-2{fill:#242a36;}.cls-3{fill:#1976d2;}</style>
  </defs>
  <g
     id="Layer_2"
     data-name="Layer 2"
     transform="translate(-73.828358,-68)">
    <rect
       class="cls-1"
       width="1022.01"
       height="320.70001"
       id="rect13"
       x="0"
       y="0" />
    <path
       class="cls-2"
       d="m 433.91,140.05 q -14.78,0 -25,9.56 -10.22,9.56 -10.22,24.58 0,15 10.22,24.65 10.22,9.65 25,9.62 a 34.71,34.71 0 0 0 24.78,-9.62 q 10.14,-9.63 10.15,-24.65 0.01,-15.02 -10.09,-24.58 -10.08,-9.55 -24.84,-9.56 z m 15.15,50.29 a 21.72,21.72 0 0 1 -30.51,0 q -6.39,-6.27 -6.39,-16.15 0,-9.88 6.39,-16.19 a 21.72,21.72 0 0 1 30.51,0 q 6.46,6.27 6.46,16.15 0,9.88 -6.46,16.19 z"
       id="path15" />
    <path
       class="cls-2"
       d="m 515.55,139.66 q -14.37,0 -22.67,9.88 v -8 h -13.71 v 65.38 h 13.71 v -30.23 q 0,-12 5.21,-18.18 5.21,-6.18 14.3,-6.2 a 14.28,14.28 0 0 1 11.27,4.88 q 4.29,4.88 4.28,12.91 v 36.78 h 13.84 v -39.54 q 0,-12.27 -7.25,-20 -7.25,-7.73 -18.98,-7.68 z"
       id="path17" />
    <path
       class="cls-2"
       d="m 607,149 q -9.09,-9.34 -23.72,-9.35 a 31,31 0 0 0 -22.8,9.75 q -9.63,9.75 -9.62,24.78 0.01,15.03 9.59,24.82 a 31,31 0 0 0 22.8,9.75 q 14.5,0 23.72,-9.22 v 7.38 h 13.85 V 112 H 607 Z m -6.45,41.39 a 21.06,21.06 0 0 1 -15,6.2 20.48,20.48 0 0 1 -15.16,-6.13 q -6.06,-6.14 -6.06,-16.28 0,-10.14 6,-16.18 a 20.35,20.35 0 0 1 15.16,-6.2 21,21 0 0 1 15,6.26 q 6.45,6.27 6.45,16.15 0,9.88 -6.42,16.19 z"
       id="path19" />
    <path
       class="cls-2"
       d="m 682.64,171.68 q 0,12 -5.14,18.2 -5.14,6.2 -14.23,6.19 a 14.35,14.35 0 0 1 -11.4,-4.94 q -4.29,-4.95 -4.28,-13 V 141.5 h -13.71 v 39.41 q 0,12.39 7.18,20.1 7.18,7.71 19.05,7.71 14.24,0 22.53,-9.88 v 8 h 13.71 V 141.5 h -13.71 z"
       id="path21" />
    <path
       class="cls-2"
       d="m 860.21,140.05 q -14.76,0 -25,9.56 -10.24,9.56 -10.21,24.58 0,15 10.22,24.65 10.22,9.65 25,9.62 A 34.67,34.67 0 0 0 885,198.84 q 10.15,-9.63 10.15,-24.65 0,-15.02 -10.08,-24.58 -10.07,-9.55 -24.86,-9.56 z m 15.16,50.29 a 21.72,21.72 0 0 1 -30.51,0 q -6.39,-6.27 -6.39,-16.15 0,-9.88 6.39,-16.19 a 21.72,21.72 0 0 1 30.51,0 q 6.46,6.27 6.46,16.15 0,9.88 -6.46,16.19 z"
       id="path23" />
    <path
       class="cls-2"
       d="m 944.1,140.71 q -15.95,0 -24.91,14.76 v -14 h -13.71 v 65.38 h 13.71 v -23.04 q 0,-13.83 6.33,-21.68 6.33,-7.85 18.48,-7.84 a 36,36 0 0 1 3.82,0.13 l 0.93,-13.18 a 16.36,16.36 0 0 0 -4.65,-0.53 z"
       id="path25" />
    <path
       class="cls-2"
       d="m 347.63,130.18 a 30.08,30.08 0 0 1 21,9.28 31.21,31.21 0 0 1 7.7,13.48 h 14.73 a 44.39,44.39 0 0 0 -87.87,9.78 q 0,19.38 13.38,32.69 a 43,43 0 0 0 62.07,0 43.7,43.7 0 0 0 12.28,-22.27 h -14.75 a 31.37,31.37 0 0 1 -7.52,12.86 28.48,28.48 0 0 1 -42,0 q -9.15,-9.44 -9.16,-23.27 -0.01,-13.83 9.16,-23.26 a 30.08,30.08 0 0 1 20.98,-9.29 z"
       id="path27" />
    <path
       class="cls-2"
       d="m 740.55,152.31 a 20.21,20.21 0 0 1 19.85,14.1 h 13.91 a 31.94,31.94 0 0 0 -9.31,-17 35.54,35.54 0 0 0 -48.91,0 Q 706,159.16 706,174.19 q 0,15.03 10.09,24.81 a 35.7,35.7 0 0 0 48.91,0 31.68,31.68 0 0 0 9.23,-16.67 h -13.88 a 19.45,19.45 0 0 1 -4.65,7.71 20.38,20.38 0 0 1 -15.15,6 q -9.24,0 -15.16,-6 -5.92,-6 -5.93,-15.88 0,-9.62 6,-15.75 a 20.23,20.23 0 0 1 15.09,-6.1 z"
       id="path29" />
    <path
       class="cls-2"
       d="m 808.24,195.81 a 10.32,10.32 0 0 1 -7.91,-3.1 q -2.9,-3.11 -2.9,-9 v -30.87 h 22.41 V 141.5 h -22.41 v -20.3 h -13.7 v 63.4 q 0,11.86 6.32,18 6.32,6.14 17.27,6.13 7.77,0 16.21,-5 l -4.22,-11.46 a 19.91,19.91 0 0 1 -11.07,3.54 z"
       id="path31" />
    <path
       class="cls-3"
       d="m 237.69,171.63 -25.39,44 a 5.75,5.75 0 0 1 -5,2.88 h -8.51 l 27.06,-46.86 h -15.1 l -27.06,46.86 h -36.44 a 5.76,5.76 0 0 1 -5,-2.88 l -30,-52 a 5.74,5.74 0 0 1 0,-5.75 l 30,-52 a 5.75,5.75 0 0 1 5,-2.87 h 28.86 l -5.69,-9.86 a 23,23 0 0 0 -2.37,-3.24 h -20.8 a 18.88,18.88 0 0 0 -16.31,9.42 l -30,52 a 18.87,18.87 0 0 0 0,18.84 l 30,52 a 18.91,18.91 0 0 0 16.32,9.42 h 60.07 a 18.91,18.91 0 0 0 16.32,-9.42 l 29.17,-50.53 z"
       id="path33" />
    <path
       class="cls-3"
       d="m 167.15,238.13 a 23.94,23.94 0 0 1 -9.88,2.18 H 143 a 24,24 0 0 1 -20.73,-12 L 90.11,172.69 a 24,24 0 0 1 0,-23.94 l 32.13,-55.66 a 24,24 0 0 1 20.73,-12 h 14.3 a 24,24 0 0 1 20.74,12 l 32.74,56.71 h 15.12 L 198.81,103 h 8.51 a 5.76,5.76 0 0 1 5,2.87 l 25.39,44 h 15.12 l -29.19,-50.6 a 18.91,18.91 0 0 0 -16.32,-9.42 h -16.07 l -1.9,-3.31 A 37.15,37.15 0 0 0 157.27,68 H 143 A 37.12,37.12 0 0 0 110.9,86.54 L 78.77,142.2 a 37.1,37.1 0 0 0 0,37 l 32.13,55.66 A 37.12,37.12 0 0 0 143,253.4 h 14.3 a 37.11,37.11 0 0 0 29.9,-15.27 z"
       id="path35" />
  </g>
</svg>
