<svg xmlns="http://www.w3.org/2000/svg" width="78" height="78" viewBox="0 0 78 78" fill="none">
<path d="M47.4604 45.8599L47.6057 46H47.8075H50.1676L65.8857 61.7496L61.7496 65.8857L46 50.1676V47.8075V47.6057L45.8599 47.4604L44.9824 46.5504L44.6546 46.2105L44.2966 46.5183C40.6787 49.6285 35.9832 51.5 30.875 51.5C19.4836 51.5 10.25 42.2664 10.25 30.875C10.25 19.4836 19.4836 10.25 30.875 10.25C42.2664 10.25 51.5 19.4836 51.5 30.875C51.5 35.9832 49.6285 40.6787 46.5183 44.2966L46.2105 44.6546L46.5504 44.9824L47.4604 45.8599ZM15.75 30.875C15.75 39.2436 22.5064 46 30.875 46C39.2436 46 46 39.2436 46 30.875C46 22.5064 39.2436 15.75 30.875 15.75C22.5064 15.75 15.75 22.5064 15.75 30.875Z" fill="#F0E9FF" stroke="#F0E9FF"/>
</svg>