<svg width="27" height="25" viewBox="0 0 27 25" fill="none" xmlns="http://www.w3.org/2000/svg">
<path d="M0.161799 12.2145V10.2873C1.26762 10.2873 2.03467 10.0668 2.46294 9.62571C2.8912 9.18466 3.10534 8.47195 3.10534 7.48757V5.36861C3.10534 4.18608 3.26833 3.24006 3.59433 2.53054C3.92671 1.81463 4.38694 1.2745 4.97501 0.910156C5.56947 0.545809 6.27259 0.302911 7.08438 0.181462C7.89617 0.0600135 8.78467 -0.000710666 9.74987 -0.000710666V3.04829C8.99561 3.04829 8.42032 3.14737 8.02402 3.34553C7.6341 3.53729 7.36883 3.83771 7.22821 4.2468C7.08758 4.6495 7.01727 5.16087 7.01727 5.78089V8.58061C7.01727 9.06641 6.92778 9.52983 6.7488 9.97088C6.56982 10.4055 6.23744 10.7923 5.75164 11.131C5.26585 11.4634 4.57231 11.7287 3.67103 11.9268C2.76975 12.1186 1.60001 12.2145 0.161799 12.2145ZM9.74987 24.2667C8.78467 24.2667 7.89617 24.206 7.08438 24.0845C6.27259 23.9631 5.56947 23.7202 4.97501 23.3558C4.38694 22.9915 3.92671 22.4513 3.59433 21.7354C3.26833 21.0259 3.10534 20.0799 3.10534 18.8974V16.7688C3.10534 15.7844 2.8912 15.0717 2.46294 14.6307C2.03467 14.1896 1.26762 13.9691 0.161799 13.9691V12.0419C1.60001 12.0419 2.76975 12.141 3.67103 12.3391C4.57231 12.5309 5.26585 12.7962 5.75164 13.1349C6.23744 13.4673 6.56982 13.854 6.7488 14.2951C6.92778 14.7298 7.01727 15.1932 7.01727 15.6854V18.4851C7.01727 19.0987 7.08758 19.6069 7.22821 20.0096C7.36883 20.4187 7.6341 20.7191 8.02402 20.9109C8.42032 21.109 8.99561 21.2081 9.74987 21.2081V24.2667ZM0.161799 13.9691V10.2873H3.60392V13.9691H0.161799ZM26.8358 12.0419V13.9691C25.7364 13.9691 24.9693 14.1896 24.5347 14.6307C24.1064 15.0717 23.8923 15.7844 23.8923 16.7688V18.8974C23.8923 20.0799 23.7261 21.0259 23.3937 21.7354C23.0677 22.4513 22.6075 22.9915 22.013 23.3558C21.4249 23.7202 20.725 23.9631 19.9132 24.0845C19.1078 24.206 18.2193 24.2667 17.2477 24.2667V21.2081C18.002 21.2081 18.5741 21.109 18.964 20.9109C19.3603 20.7191 19.6288 20.4187 19.7694 20.0096C19.91 19.6069 19.9803 19.0987 19.9803 18.4851V15.6854C19.9803 15.1932 20.0698 14.7298 20.2488 14.2951C20.4278 13.854 20.7602 13.4673 21.246 13.1349C21.7318 12.7962 22.4253 12.5309 23.3266 12.3391C24.2279 12.141 25.3976 12.0419 26.8358 12.0419ZM17.2477 -0.000710666C18.2193 -0.000710666 19.1078 0.0600135 19.9132 0.181462C20.725 0.302911 21.4249 0.545809 22.013 0.910156C22.6075 1.2745 23.0677 1.81463 23.3937 2.53054C23.7261 3.24006 23.8923 4.18608 23.8923 5.36861V7.48757C23.8923 8.47195 24.1064 9.18466 24.5347 9.62571C24.9693 10.0668 25.7364 10.2873 26.8358 10.2873V12.2145C25.3976 12.2145 24.2279 12.1186 23.3266 11.9268C22.4253 11.7287 21.7318 11.4634 21.246 11.131C20.7602 10.7923 20.4278 10.4055 20.2488 9.97088C20.0698 9.52983 19.9803 9.06641 19.9803 8.58061V5.78089C19.9803 5.16087 19.91 4.6495 19.7694 4.2468C19.6288 3.83771 19.3603 3.53729 18.964 3.34553C18.5741 3.14737 18.002 3.04829 17.2477 3.04829V-0.000710666ZM26.8358 10.2873V13.9691H23.3937V10.2873H26.8358Z" fill="black"/>
</svg>
