<svg xmlns="http://www.w3.org/2000/svg" xmlns:xlink="http://www.w3.org/1999/xlink" width="24px" height="24px" viewBox="0 0 24 24" version="1.1">
<g id="surface1">
<path style=" stroke:none;fill-rule:nonzero;fill:rgb(91.764706%,93.333333%,94.509804%);fill-opacity:1;" d="M 0 0.371094 C 7.796875 0.371094 15.597656 0.371094 23.628906 0.371094 C 23.628906 8.167969 23.628906 15.964844 23.628906 24 C 15.832031 24 8.035156 24 0 24 C 0 16.203125 0 8.402344 0 0.371094 Z M 0 0.371094 "/>
<path style=" stroke:none;fill-rule:nonzero;fill:rgb(80%,80.392157%,81.176471%);fill-opacity:1;" d="M 16.246094 1.847656 C 18.195312 1.847656 20.144531 1.847656 22.152344 1.847656 C 22.152344 8.667969 22.152344 15.492188 22.152344 22.523438 C 15.332031 22.523438 8.507812 22.523438 1.476562 22.523438 C 1.476562 20.453125 1.476562 18.378906 1.476562 16.246094 C 6.351562 16.246094 11.226562 16.246094 16.246094 16.246094 C 16.246094 11.496094 16.246094 6.742188 16.246094 1.847656 Z M 16.246094 1.847656 "/>
<path style=" stroke:none;fill-rule:nonzero;fill:rgb(67.058824%,71.764706%,86.27451%);fill-opacity:1;" d="M 8.863281 1.847656 C 10.8125 1.847656 12.761719 1.847656 14.769531 1.847656 C 14.769531 6.234375 14.769531 10.617188 14.769531 15.136719 C 10.382812 15.136719 5.996094 15.136719 1.476562 15.136719 C 1.476562 13.1875 1.476562 11.238281 1.476562 9.230469 C 3.914062 9.230469 6.351562 9.230469 8.863281 9.230469 C 8.863281 6.792969 8.863281 4.355469 8.863281 1.847656 Z M 8.863281 1.847656 "/>
<path style=" stroke:none;fill-rule:nonzero;fill:rgb(13.72549%,12.156863%,12.54902%);fill-opacity:1;" d="M 1.476562 16.617188 C 3.539062 16.484375 5.597656 16.394531 7.660156 16.332031 C 8.359375 16.304688 9.058594 16.269531 9.757812 16.226562 C 15.859375 15.839844 15.859375 15.839844 18.261719 17.777344 C 19.582031 19.007812 20.710938 20.332031 21.785156 21.785156 C 21.785156 21.90625 21.785156 22.027344 21.785156 22.152344 C 15.082031 22.152344 8.382812 22.152344 1.476562 22.152344 C 1.476562 20.324219 1.476562 18.5 1.476562 16.617188 Z M 1.476562 16.617188 "/>
<path style=" stroke:none;fill-rule:nonzero;fill:rgb(11.372549%,25.490196%,58.431373%);fill-opacity:1;" d="M 1.476562 9.230469 C 7.886719 8.460938 7.886719 8.460938 10.105469 9.730469 C 11.78125 11.078125 13.128906 12.671875 14.398438 14.398438 C 14.398438 14.523438 14.398438 14.644531 14.398438 14.769531 C 10.136719 14.769531 5.871094 14.769531 1.476562 14.769531 C 1.476562 12.941406 1.476562 11.113281 1.476562 9.230469 Z M 1.476562 9.230469 "/>
<path style=" stroke:none;fill-rule:nonzero;fill:rgb(80.392157%,80.784314%,81.568627%);fill-opacity:1;" d="M 1.476562 1.847656 C 3.425781 1.847656 5.375 1.847656 7.382812 1.847656 C 7.382812 3.796875 7.382812 5.746094 7.382812 7.753906 C 5.433594 7.753906 3.484375 7.753906 1.476562 7.753906 C 1.476562 5.804688 1.476562 3.855469 1.476562 1.847656 Z M 1.476562 1.847656 "/>
<path style=" stroke:none;fill-rule:nonzero;fill:rgb(19.215686%,17.647059%,18.431373%);fill-opacity:1;" d="M 1.476562 2.214844 C 2.082031 2.730469 2.6875 3.25 3.289062 3.769531 C 3.820312 4.222656 4.355469 4.675781 4.890625 5.128906 C 5.15625 5.355469 5.425781 5.582031 5.699219 5.816406 C 5.949219 6.027344 6.203125 6.238281 6.460938 6.457031 C 7.015625 7.015625 7.015625 7.015625 7.015625 7.753906 C 5.1875 7.753906 3.359375 7.753906 1.476562 7.753906 C 1.476562 5.925781 1.476562 4.097656 1.476562 2.214844 Z M 1.476562 2.214844 "/>
</g>
</svg>