<svg xmlns="http://www.w3.org/2000/svg" width="26" height="16" viewBox="0 0 26 16" fill="none">
<g clip-path="url(#clip0_7060_205258)">
<path d="M7.38936 5.53333C7.38936 5.84167 7.42357 6.09167 7.48344 6.275C7.55186 6.45833 7.63739 6.65833 7.75713 6.875C7.79989 6.94167 7.81699 7.00833 7.81699 7.06667C7.81699 7.15 7.76568 7.23333 7.65449 7.31667L7.11568 7.66667C7.0387 7.71667 6.96173 7.74167 6.89331 7.74167C6.80778 7.74167 6.72226 7.7 6.63673 7.625C6.51699 7.5 6.41436 7.36667 6.32884 7.23333C6.24331 7.09167 6.15778 6.93333 6.06371 6.74167C5.3966 7.50833 4.55844 7.89167 3.54923 7.89167C2.83081 7.89167 2.25778 7.69167 1.83871 7.29167C1.41963 6.89167 1.20581 6.35833 1.20581 5.69167C1.20581 4.98333 1.46239 4.40833 1.9841 3.975C2.50581 3.54167 3.19857 3.325 4.07949 3.325C4.37028 3.325 4.66963 3.35 4.98607 3.39167C5.30252 3.43333 5.62752 3.5 5.96963 3.575V2.96667C5.96963 2.33333 5.83278 1.89167 5.56765 1.63333C5.29397 1.375 4.83213 1.25 4.17357 1.25C3.87423 1.25 3.56634 1.28333 3.24989 1.35833C2.93344 1.43333 2.62555 1.525 2.32621 1.64167C2.18936 1.7 2.08673 1.73333 2.02686 1.75C1.96699 1.76667 1.92423 1.775 1.89002 1.775C1.77028 1.775 1.71042 1.69167 1.71042 1.51667V1.10833C1.71042 0.975 1.72752 0.875 1.77028 0.816667C1.81305 0.758334 1.89002 0.7 2.00976 0.641667C2.3091 0.491667 2.66831 0.366667 3.08739 0.266667C3.50647 0.158334 3.9512 0.108334 4.4216 0.108334C5.43936 0.108334 6.18344 0.333334 6.66239 0.783334C7.13278 1.23333 7.37226 1.91667 7.37226 2.83333V5.53333H7.38936ZM3.91699 6.8C4.19923 6.8 4.49002 6.75 4.79792 6.65C5.10581 6.55 5.37949 6.36667 5.61042 6.11667C5.74726 5.95833 5.84989 5.78333 5.90121 5.58333C5.95252 5.38333 5.98673 5.14167 5.98673 4.85833V4.50833C5.73871 4.45 5.47357 4.4 5.19989 4.36667C4.9262 4.33333 4.66107 4.31667 4.39594 4.31667C3.82292 4.31667 3.40384 4.425 3.1216 4.65C2.83936 4.875 2.70252 5.19167 2.70252 5.60833C2.70252 6 2.80515 6.29167 3.01897 6.49167C3.22423 6.7 3.52357 6.8 3.91699 6.8ZM10.7848 7.7C10.6308 7.7 10.5282 7.675 10.4598 7.61667C10.3913 7.56667 10.3315 7.45 10.2802 7.29167L8.27028 0.85C8.21897 0.683334 8.19331 0.575 8.19331 0.516667C8.19331 0.383334 8.26173 0.308334 8.39857 0.308334H9.23673C9.39923 0.308334 9.51042 0.333334 9.57028 0.391667C9.6387 0.441667 9.69002 0.558334 9.74134 0.716667L11.1782 6.23333L12.5124 0.716667C12.5552 0.550001 12.6065 0.441667 12.6749 0.391667C12.7433 0.341667 12.863 0.308334 13.017 0.308334H13.7012C13.8637 0.308334 13.9749 0.333334 14.0433 0.391667C14.1117 0.441667 14.1716 0.558334 14.2058 0.716667L15.5571 6.3L17.0367 0.716667C17.088 0.550001 17.1479 0.441667 17.2078 0.391667C17.2762 0.341667 17.3874 0.308334 17.5413 0.308334H18.3367C18.4736 0.308334 18.5505 0.375 18.5505 0.516667C18.5505 0.558334 18.542 0.600001 18.5334 0.65C18.5249 0.7 18.5078 0.766667 18.4736 0.858334L16.4124 7.3C16.3611 7.46667 16.3012 7.575 16.2328 7.625C16.1644 7.675 16.0532 7.70833 15.9078 7.70833H15.1723C15.0098 7.70833 14.8986 7.68333 14.8302 7.625C14.7617 7.56667 14.7019 7.45833 14.6677 7.29167L13.342 1.91667L12.0249 7.28333C11.9821 7.45 11.9308 7.55833 11.8624 7.61667C11.794 7.675 11.6742 7.7 11.5203 7.7H10.7848ZM21.7749 7.925C21.3302 7.925 20.8854 7.875 20.4578 7.775C20.0302 7.675 19.6966 7.56667 19.4742 7.44167C19.3374 7.36667 19.2433 7.28333 19.2091 7.20833C19.1749 7.13333 19.1578 7.05 19.1578 6.975V6.55C19.1578 6.375 19.2262 6.29167 19.3545 6.29167C19.4058 6.29167 19.4571 6.3 19.5084 6.31667C19.5598 6.33333 19.6367 6.36667 19.7223 6.4C20.013 6.525 20.3295 6.625 20.663 6.69167C21.0052 6.75833 21.3387 6.79167 21.6808 6.79167C22.2196 6.79167 22.6387 6.7 22.9295 6.51667C23.2203 6.33333 23.3742 6.06667 23.3742 5.725C23.3742 5.49167 23.2973 5.3 23.1433 5.14167C22.9894 4.98333 22.6986 4.84167 22.2795 4.70833L21.0394 4.33333C20.415 4.14167 19.9532 3.85833 19.6709 3.48333C19.3887 3.11667 19.2433 2.70833 19.2433 2.275C19.2433 1.925 19.3203 1.61667 19.4742 1.35C19.6282 1.08333 19.8334 0.85 20.09 0.666667C20.3466 0.475 20.6374 0.333334 20.9795 0.233334C21.3216 0.133334 21.6808 0.0916672 22.0571 0.0916672C22.2453 0.0916672 22.442 0.100001 22.6302 0.125001C22.8269 0.150001 23.0065 0.183334 23.1861 0.216667C23.3571 0.258334 23.5196 0.3 23.6736 0.35C23.8275 0.4 23.9473 0.45 24.0328 0.5C24.1525 0.566667 24.238 0.633334 24.2894 0.708334C24.3407 0.775 24.3663 0.866667 24.3663 0.983334V1.375C24.3663 1.55 24.2979 1.64167 24.1696 1.64167C24.1012 1.64167 23.99 1.60833 23.8446 1.54167C23.3571 1.325 22.8098 1.21667 22.2025 1.21667C21.715 1.21667 21.3302 1.29167 21.065 1.45C20.7999 1.60833 20.663 1.85 20.663 2.19167C20.663 2.425 20.7486 2.625 20.9196 2.78333C21.0907 2.94167 21.4071 3.1 21.8604 3.24167L23.0749 3.61667C23.6907 3.80833 24.1354 4.075 24.4005 4.41667C24.6657 4.75833 24.794 5.15 24.794 5.58333C24.794 5.94167 24.717 6.26667 24.5716 6.55C24.4176 6.83333 24.2124 7.08333 23.9473 7.28333C23.6821 7.49167 23.3657 7.64167 22.9979 7.75C22.613 7.86667 22.2111 7.925 21.7749 7.925Z" fill="#252F3E"/>
<path fill-rule="evenodd" clip-rule="evenodd" d="M23.3914 11.975C20.5776 14 16.4894 15.075 12.9743 15.075C8.04795 15.075 3.60913 13.3 0.256501 10.35C-0.00863093 10.1167 0.230843 9.8 0.54729 9.98334C4.17361 12.0333 8.64663 13.275 13.2736 13.275C16.3953 13.275 19.8249 12.6417 22.9808 11.3417C23.4512 11.1333 23.8532 11.6417 23.3914 11.975Z" fill="#FF9900"/>
<path fill-rule="evenodd" clip-rule="evenodd" d="M24.5632 10.675C24.2039 10.225 22.1855 10.4583 21.2704 10.5667C20.9967 10.6 20.9539 10.3667 21.202 10.1917C22.8099 9.09167 25.4526 9.40834 25.7605 9.775C26.0684 10.15 25.675 12.725 24.1697 13.9583C23.9388 14.15 23.7164 14.05 23.8191 13.8C24.1612 12.975 24.9224 11.1167 24.5632 10.675Z" fill="#FF9900"/>
</g>
<defs>
<clipPath id="clip0_7060_205258">
<rect width="26" height="15.1667" fill="white"/>
</clipPath>
</defs>
</svg>