<svg xmlns="http://www.w3.org/2000/svg" version="1.0" width="1000.000000pt" height="1000.000000pt" viewBox="0 0 1000.000000 1000.000000" preserveAspectRatio="xMidYMid meet">
<metadata>
Created by potrace 1.16, written by Peter Selinger 2001-2019
</metadata>
<g transform="translate(0.000000,1000.000000) scale(0.100000,-0.100000)" fill="#000000" stroke="none">
<path d="M4805 9994 c-251 -38 -475 -122 -676 -255 -84 -56 -278 -246 -1917 -1883 -1003 -1002 -1852 -1857 -1887 -1901 -151 -192 -246 -398 -301 -655 -27 -122 -27 -478 0 -600 45 -210 124 -400 237 -571 56 -84 246 -278 1883 -1917 1002 -1003 1857 -1852 1901 -1887 192 -151 398 -246 655 -301 122 -27 478 -27 600 0 210 45 400 124 571 237 85 56 277 245 1950 1918 1692 1691 1862 1864 1919 1951 113 174 191 361 236 570 27 122 27 478 1 600 -47 215 -136 424 -252 591 -46 67 -435 461 -1874 1902 -999 1000 -1852 1847 -1896 1882 -188 147 -381 238 -630 296 -71 16 -131 21 -290 24 -110 2 -213 1 -230 -1z m888 -4296 l-698 -698 698 -698 697 -697 -695 -695 -695 -695 -1390 1390 -1390 1390 1392 1392 1393 1393 692 -692 693 -693 -697 -697z"/>
</g>
</svg>