<svg xmlns="http://www.w3.org/2000/svg" version="1.0" width="221.000000pt" height="228.000000pt" viewBox="0 0 221.000000 228.000000" preserveAspectRatio="xMidYMid meet">
<metadata>
Created by potrace 1.16, written by Peter Selinger 2001-2019
</metadata>
<g transform="translate(0.000000,228.000000) scale(0.100000,-0.100000)" fill="#000000" stroke="none">
<path d="M752 2269 c-68 -13 -158 -67 -216 -130 -36 -38 -105 -145 -204 -316 -314 -542 -322 -558 -322 -688 1 -95 12 -125 120 -323 263 -481 331 -594 405 -667 115 -115 195 -144 395 -145 150 0 223 11 296 44 50 23 164 118 164 137 0 16 -224 10 -263 -6 -27 -11 -76 -15 -189 -15 -256 1 -250 -5 -536 497 -117 204 -219 390 -227 413 -23 66 -19 120 14 181 15 30 119 212 230 404 274 477 265 470 542 463 173 -4 219 -17 278 -79 18 -19 123 -196 235 -394 l204 -360 97 -3 c76 -2 96 0 92 10 -3 7 -77 136 -165 286 -125 212 -158 274 -146 279 29 11 127 -5 144 -24 10 -10 82 -128 160 -263 78 -135 148 -253 154 -263 9 -16 26 -19 98 -20 l87 -2 -19 30 c-10 17 -90 155 -178 307 -199 343 -186 324 -237 353 -39 23 -51 25 -181 25 l-139 1 -35 61 c-59 102 -169 181 -288 207 -60 13 -306 13 -370 0z"/>
<path d="M793 1981 c-54 -39 -66 -58 -291 -451 -212 -370 -214 -376 -172 -467 27 -61 358 -641 392 -688 16 -22 47 -52 70 -67 l41 -28 460 0 460 0 40 43 c23 23 121 184 223 362 l182 320 -80 3 c-57 2 -85 -1 -93 -10 -7 -7 -80 -133 -164 -279 -83 -147 -157 -272 -165 -278 -9 -7 -40 -11 -80 -9 l-66 3 128 225 c70 124 142 251 161 283 l32 57 -89 0 -89 0 -48 -82 c-26 -46 -102 -174 -168 -285 l-121 -203 -236 0 c-213 0 -238 2 -252 18 -37 42 -398 669 -398 691 0 28 361 669 392 698 18 16 40 18 209 18 104 0 189 2 189 5 0 3 -19 37 -43 75 l-43 70 -170 3 -170 2 -41 -29z"/>
</g>
</svg>