<svg width="24" height="24" viewBox="0 0 24 24" fill="none" xmlns="http://www.w3.org/2000/svg">
<g clip-path="url(#clip0_814_13093)">
<path fill-rule="evenodd" clip-rule="evenodd" d="M11.8667 23.9333C5.33333 23.9333 0.0333252 18.6333 0.0333252 12.1C0.0333252 5.56666 5.33333 0.266663 11.8667 0.266663C18.4 0.266663 23.7 5.56666 23.7 12.1C23.7 18.6333 18.3667 23.9333 11.8667 23.9333ZM11.8667 1.39999C5.96666 1.39999 1.13333 6.19999 1.13333 12.1333C1.13333 18.0667 5.93333 22.8667 11.8667 22.8667C17.8 22.8667 22.6 18.0667 22.6 12.1333C22.6 6.19999 17.7667 1.39999 11.8667 1.39999Z" fill="#0574A2"/>
<path fill-rule="evenodd" clip-rule="evenodd" d="M17.9166 12.75C17.6083 12.7667 17.3 12.7834 17 12.8C17 12.8 15.1666 12.8667 15.1666 12.9C14.6666 12.9334 14.1333 12.9334 13.6333 12.9334C14.0999 13.1667 14.5665 13.3666 15.0331 13.5666L15.0333 13.5667L16.7 14.3334L16.7002 14.3335C17.2668 14.6001 17.8334 14.8667 18.3666 15.1334L18.2 15.5667C17.778 15.4495 17.3725 15.2993 16.9719 15.1509C16.8029 15.0883 16.6347 15.026 16.4666 14.9667L14.7666 14.3334C14.5333 14.2334 14.2916 14.1417 14.0499 14.05C13.8083 13.9584 13.5666 13.8667 13.3333 13.7667C13.5166 13.95 13.6916 14.1334 13.8666 14.3167C14.0416 14.5 14.2166 14.6834 14.4 14.8667L15.6666 16.2C16.1 16.6667 16.4999 17.1 16.9 17.5667L16.5666 17.9C16.3333 17.7 16.1083 17.4917 15.8833 17.2833C15.6583 17.075 15.4333 16.8667 15.2 16.6667L13.8666 15.4C13.5 15.0667 13.1333 14.7 12.7667 14.3334L12.7666 14.3334C12.9666 14.8 13.1666 15.3 13.3333 15.7667L13.9666 17.4667C14.1666 18.0667 14.3666 18.6334 14.5666 19.2L14.1333 19.3667C13.9599 19.0393 13.8089 18.7119 13.6607 18.3909C13.5525 18.1563 13.4459 17.9252 13.3333 17.7L12.5666 16.0334C12.3333 15.5334 12.1333 15.0668 11.9333 14.6002L11.9333 14.6C11.9333 14.85 11.925 15.1084 11.9166 15.3667C11.9083 15.625 11.9 15.8834 11.9 16.1334L11.8333 17.9667C11.8166 18.2667 11.8 18.575 11.7833 18.8833C11.7666 19.1917 11.75 19.5 11.7333 19.8H11.2666C11.25 19.5 11.2333 19.1917 11.2166 18.8833C11.2 18.575 11.1833 18.2667 11.1666 17.9667L11.1 16.1334C11.0666 15.0667 11.0666 14 11.0666 12.9334C9.99995 12.9334 8.93328 12.9334 7.86662 12.9L6.03328 12.8334C5.73332 12.8167 5.42503 12.8 5.11674 12.7834C4.80837 12.7667 4.49999 12.75 4.19995 12.7334V12.2334C4.5976 12.1892 5.00989 12.1743 5.41741 12.1595C5.62479 12.152 5.83093 12.1446 6.03328 12.1334L7.86662 12.0667C8.36657 12.0334 8.86653 12.0334 9.36649 12.0334H9.36662L7.96662 11.4334L6.29995 10.7C5.73329 10.4334 5.16662 10.1667 4.63329 9.90002L4.83328 9.43335C5.25526 9.55057 5.66075 9.70076 6.06134 9.84914C6.23035 9.91174 6.39848 9.97401 6.56662 10.0334L8.26662 10.7C8.49995 10.8 8.73328 10.8917 8.96661 10.9834C9.19995 11.075 9.43328 11.1667 9.66662 11.2667C9.49995 11.0834 9.32495 10.9 9.14995 10.7167C8.97495 10.5334 8.79995 10.35 8.63329 10.1667L7.36662 8.83335C7.16662 8.60002 6.95828 8.37502 6.74995 8.15002C6.54162 7.92502 6.33329 7.70002 6.13329 7.46669L6.49995 7.10002C6.73328 7.30002 6.95828 7.50835 7.18328 7.71669C7.40828 7.92502 7.63328 8.13335 7.86662 8.33335L9.19995 9.60002L9.20009 9.60015C9.56671 9.93344 9.93333 10.2667 10.3 10.6334L10.2999 10.6333C10.0999 10.1666 9.89994 9.7 9.73328 9.23335L9.06662 7.53336C8.86662 6.93336 8.66662 6.36669 8.46662 5.80002L8.93329 5.60002C9.10662 5.92744 9.25771 6.25486 9.40582 6.57584C9.51405 6.81039 9.6207 7.04151 9.73328 7.26669L10.4666 8.93335L11.0666 10.3334C11.0666 10.0834 11.075 9.83335 11.0833 9.58335C11.0916 9.33335 11.1 9.08335 11.1 8.83335L11.1666 7.00002C11.1833 6.70002 11.2 6.39169 11.2166 6.08335C11.2333 5.77502 11.25 5.46669 11.2666 5.16669H11.7666C11.8108 5.56433 11.8257 5.97662 11.8404 6.38414C11.8479 6.59152 11.8554 6.79766 11.8666 7.00002L11.9333 8.83335C11.9666 9.90001 11.9666 10.9667 11.9666 12.0333V12.0334H11.9669C13.0335 12.0334 14.1 12.0334 15.1666 12.0667L17 12.1334C17.3 12.15 17.6083 12.1667 17.9166 12.1834C18.225 12.2 18.5333 12.2167 18.8333 12.2334V12.7C18.5333 12.7167 18.225 12.7334 17.9166 12.75Z" fill="#0574A2"/>
</g>
<defs>
<clipPath id="clip0_814_13093">
<rect width="24" height="24" fill="white"/>
</clipPath>
</defs>
</svg>
