<?xml version="1.0" encoding="UTF-8"?>
<svg id="standard_product_icon" xmlns="http://www.w3.org/2000/svg" version="1.1" viewBox="0 0 512 512">
  <!-- Generator: Adobe Illustrator 29.1.0, SVG Export Plug-In . SVG Version: 2.1.0 Build 142)  -->
  <defs>
    <style>
      .st0 {
        fill: none;
      }

      .st1 {
        fill: #4285f4;
      }

      .st2 {
        fill: #34a853;
      }

      .st3 {
        fill: #fbbc04;
      }

      .st4 {
        fill: #ea4335;
      }
    </style>
  </defs>
  <g id="bounding_box">
    <rect class="st0" width="512" height="512"/>
  </g>
  <g id="art">
    <path class="st3" d="M144.4,272c-6.4,0-12.4-3.8-14.9-10.1L55.4,75.9c-3.3-8.2.7-17.5,8.9-20.8,8.2-3.3,17.5.7,20.8,8.9l74.2,186c3.3,8.2-.7,17.5-8.9,20.8-1.9.8-3.9,1.1-5.9,1.1h-.1Z"/>
    <g id="b">
      <path class="st4" d="M256,272c-6.4,0-12.4-3.8-14.9-10.1l-74.1-186c-2.6-6.6-.6-14.1,5-18.5s13.4-4.5,19.2-.4l260.1,186c7.2,5.1,8.9,15.1,3.7,22.3s-15.1,8.9-22.3,3.7L216.9,114.7l54,135.3c3.3,8.2-.7,17.5-8.9,20.8-1.9.8-4,1.1-5.9,1.1h-.1Z"/>
    </g>
    <path class="st2" d="M127.2,256l-72,180c-3.3,8.2.7,17.5,8.9,20.8,3.1,1.2,4,1.1,5.9,1.1,6.3,0,12.4-3.8,14.9-10.1l74.4-186c.8-2,1.1-4,1.1-5.9h-33.2Z"/>
    <path class="st1" d="M414.5,256l-197.7,141.2,54.1-135.3c.8-2,1.1-4,1.1-5.9h-33.2l-72,180c-2.6,6.6-.6,14.1,5,18.5,2.9,2.3,6.4,3.4,9.9,3.4s6.5-1,9.3-3l260.4-186c4.4-3.1,6.7-8,6.7-13h-43.6Z"/>
  </g>
</svg>