<svg xmlns="http://www.w3.org/2000/svg" xmlns:xlink="http://www.w3.org/1999/xlink" width="24px" height="21px" viewBox="0 0 24 21" version="1.1">
<g id="surface1">
<path style=" stroke:none;fill-rule:nonzero;fill:rgb(35.686275%,48.235294%,70.980392%);fill-opacity:1;" d="M 6.488281 0.503906 C 6.539062 0.503906 6.539062 0.503906 6.589844 0.503906 C 6.652344 0.503906 6.652344 0.503906 6.710938 0.503906 C 6.753906 0.503906 6.800781 0.503906 6.84375 0.503906 C 6.890625 0.503906 6.9375 0.503906 6.984375 0.503906 C 7.113281 0.503906 7.242188 0.503906 7.371094 0.503906 C 7.507812 0.503906 7.648438 0.503906 7.789062 0.503906 C 8.058594 0.503906 8.332031 0.503906 8.601562 0.503906 C 8.824219 0.503906 9.046875 0.503906 9.265625 0.503906 C 9.894531 0.507812 10.519531 0.507812 11.148438 0.507812 C 11.199219 0.511719 11.199219 0.511719 11.25 0.511719 C 11.285156 0.511719 11.316406 0.511719 11.351562 0.511719 C 11.902344 0.511719 12.449219 0.511719 12.996094 0.511719 C 13.558594 0.511719 14.125 0.511719 14.6875 0.515625 C 15.003906 0.515625 15.316406 0.515625 15.632812 0.515625 C 15.902344 0.515625 16.171875 0.515625 16.441406 0.515625 C 16.578125 0.515625 16.714844 0.519531 16.855469 0.515625 C 17.003906 0.515625 17.152344 0.515625 17.300781 0.519531 C 17.34375 0.519531 17.386719 0.515625 17.433594 0.515625 C 17.71875 0.523438 17.71875 0.523438 17.839844 0.644531 C 17.902344 0.738281 17.953125 0.828125 18 0.929688 C 18.023438 0.96875 18.046875 1.007812 18.070312 1.050781 C 18.09375 1.085938 18.113281 1.121094 18.132812 1.15625 C 18.15625 1.195312 18.179688 1.238281 18.203125 1.277344 C 18.226562 1.320312 18.25 1.363281 18.273438 1.410156 C 18.328125 1.503906 18.382812 1.597656 18.433594 1.691406 C 18.449219 1.714844 18.460938 1.738281 18.476562 1.761719 C 18.621094 2.015625 18.769531 2.269531 18.921875 2.523438 C 19.230469 3.054688 19.535156 3.585938 19.839844 4.121094 C 20.144531 4.65625 20.453125 5.195312 20.765625 5.726562 C 21.09375 6.289062 21.417969 6.847656 21.742188 7.414062 C 21.996094 7.863281 22.257812 8.3125 22.519531 8.757812 C 22.785156 9.207031 23.046875 9.660156 23.300781 10.113281 C 23.335938 10.175781 23.375 10.242188 23.414062 10.300781 C 23.460938 10.375 23.460938 10.375 23.519531 10.5 C 23.476562 10.648438 23.402344 10.777344 23.324219 10.914062 C 23.300781 10.953125 23.277344 10.996094 23.253906 11.039062 C 23.226562 11.082031 23.203125 11.125 23.175781 11.171875 C 23.148438 11.21875 23.121094 11.265625 23.09375 11.3125 C 22.878906 11.6875 22.660156 12.0625 22.441406 12.433594 C 22.203125 12.832031 21.976562 13.234375 21.746094 13.636719 C 21.386719 14.269531 21.019531 14.894531 20.65625 15.523438 C 20.371094 16.015625 20.085938 16.507812 19.800781 17 C 19.472656 17.570312 19.144531 18.136719 18.8125 18.707031 C 18.675781 18.941406 18.539062 19.179688 18.402344 19.417969 C 18.375 19.464844 18.351562 19.507812 18.324219 19.550781 C 18.277344 19.632812 18.230469 19.714844 18.1875 19.792969 C 18.164062 19.832031 18.144531 19.867188 18.121094 19.90625 C 18.105469 19.9375 18.085938 19.96875 18.066406 20 C 18.046875 20.035156 18.023438 20.074219 18 20.113281 C 17.988281 20.140625 17.980469 20.171875 17.96875 20.199219 C 17.910156 20.320312 17.863281 20.390625 17.761719 20.476562 C 17.507812 20.53125 17.257812 20.523438 17 20.519531 C 16.921875 20.519531 16.84375 20.519531 16.765625 20.519531 C 16.550781 20.523438 16.335938 20.519531 16.121094 20.519531 C 15.890625 20.519531 15.664062 20.519531 15.4375 20.519531 C 15 20.523438 14.566406 20.519531 14.132812 20.519531 C 13.648438 20.519531 13.164062 20.519531 12.679688 20.519531 C 12.074219 20.519531 11.464844 20.519531 10.855469 20.519531 C 10.675781 20.515625 10.492188 20.515625 10.3125 20.515625 C 10.265625 20.515625 10.222656 20.515625 10.175781 20.515625 C 9.609375 20.515625 9.039062 20.515625 8.46875 20.527344 C 8.261719 20.53125 8.054688 20.53125 7.847656 20.535156 C 7.660156 20.535156 7.472656 20.539062 7.28125 20.546875 C 7.199219 20.546875 7.113281 20.546875 7.027344 20.550781 C 6.925781 20.550781 6.820312 20.550781 6.71875 20.554688 C 6.402344 20.558594 6.402344 20.558594 6.277344 20.4375 C 6.214844 20.34375 6.167969 20.253906 6.121094 20.152344 C 6.097656 20.113281 6.074219 20.074219 6.050781 20.035156 C 6.035156 20 6.015625 19.96875 5.996094 19.933594 C 5.976562 19.894531 5.953125 19.855469 5.933594 19.816406 C 5.898438 19.753906 5.898438 19.753906 5.863281 19.691406 C 5.660156 19.320312 5.453125 18.957031 5.238281 18.59375 C 5.015625 18.21875 4.800781 17.84375 4.589844 17.464844 C 4.414062 17.148438 4.234375 16.835938 4.054688 16.523438 C 3.804688 16.097656 3.5625 15.667969 3.316406 15.238281 C 3.191406 15.015625 3.066406 14.796875 2.941406 14.578125 C 2.789062 14.316406 2.640625 14.050781 2.488281 13.789062 C 2.222656 13.324219 1.957031 12.863281 1.691406 12.402344 C 1.566406 12.1875 1.441406 11.96875 1.320312 11.753906 C 1.300781 11.71875 1.300781 11.71875 1.28125 11.683594 C 1.214844 11.570312 1.148438 11.457031 1.085938 11.34375 C 1.0625 11.304688 1.039062 11.261719 1.015625 11.21875 C 0.980469 11.160156 0.980469 11.160156 0.949219 11.101562 C 0.902344 11.023438 0.855469 10.945312 0.804688 10.871094 C 0.773438 10.820312 0.773438 10.820312 0.738281 10.765625 C 0.71875 10.738281 0.695312 10.707031 0.675781 10.675781 C 0.625 10.539062 0.664062 10.46875 0.71875 10.339844 C 0.757812 10.261719 0.800781 10.1875 0.84375 10.117188 C 0.871094 10.074219 0.894531 10.03125 0.921875 9.988281 C 0.933594 9.964844 0.949219 9.941406 0.964844 9.917969 C 1.035156 9.796875 1.109375 9.675781 1.179688 9.554688 C 1.195312 9.527344 1.210938 9.503906 1.226562 9.476562 C 1.382812 9.210938 1.535156 8.945312 1.683594 8.675781 C 1.949219 8.203125 2.21875 7.734375 2.492188 7.265625 C 2.605469 7.066406 2.722656 6.867188 2.835938 6.667969 C 2.871094 6.609375 2.871094 6.609375 2.90625 6.546875 C 3.078125 6.253906 3.246094 5.957031 3.414062 5.660156 C 3.621094 5.300781 3.828125 4.945312 4.039062 4.589844 C 4.269531 4.195312 4.496094 3.800781 4.71875 3.402344 C 4.941406 3.007812 5.167969 2.617188 5.398438 2.230469 C 5.628906 1.839844 5.851562 1.445312 6.074219 1.046875 C 6.113281 0.980469 6.113281 0.980469 6.152344 0.910156 C 6.183594 0.851562 6.183594 0.851562 6.21875 0.792969 C 6.371094 0.53125 6.371094 0.53125 6.488281 0.503906 Z M 6.488281 0.503906 "/>
<path style=" stroke:none;fill-rule:nonzero;fill:rgb(63.137255%,70.196078%,83.137255%);fill-opacity:1;" d="M 6.488281 0.503906 C 6.539062 0.503906 6.539062 0.503906 6.589844 0.503906 C 6.652344 0.503906 6.652344 0.503906 6.710938 0.503906 C 6.753906 0.503906 6.800781 0.503906 6.84375 0.503906 C 6.890625 0.503906 6.9375 0.503906 6.984375 0.503906 C 7.113281 0.503906 7.242188 0.503906 7.371094 0.503906 C 7.507812 0.503906 7.648438 0.503906 7.789062 0.503906 C 8.058594 0.503906 8.332031 0.503906 8.601562 0.503906 C 8.824219 0.503906 9.046875 0.503906 9.265625 0.503906 C 9.894531 0.507812 10.519531 0.507812 11.148438 0.507812 C 11.199219 0.511719 11.199219 0.511719 11.25 0.511719 C 11.285156 0.511719 11.316406 0.511719 11.351562 0.511719 C 11.902344 0.511719 12.449219 0.511719 12.996094 0.511719 C 13.558594 0.511719 14.125 0.511719 14.6875 0.515625 C 15.003906 0.515625 15.316406 0.515625 15.632812 0.515625 C 15.902344 0.515625 16.171875 0.515625 16.441406 0.515625 C 16.578125 0.515625 16.714844 0.519531 16.855469 0.515625 C 17.003906 0.515625 17.152344 0.515625 17.300781 0.519531 C 17.34375 0.519531 17.386719 0.515625 17.433594 0.515625 C 17.71875 0.523438 17.71875 0.523438 17.839844 0.644531 C 17.902344 0.738281 17.953125 0.828125 18 0.929688 C 18.023438 0.96875 18.046875 1.007812 18.070312 1.050781 C 18.09375 1.085938 18.113281 1.121094 18.132812 1.15625 C 18.15625 1.195312 18.179688 1.238281 18.203125 1.277344 C 18.226562 1.320312 18.25 1.363281 18.273438 1.410156 C 18.328125 1.503906 18.382812 1.597656 18.433594 1.691406 C 18.449219 1.714844 18.460938 1.738281 18.476562 1.761719 C 18.621094 2.015625 18.769531 2.269531 18.921875 2.523438 C 19.230469 3.054688 19.535156 3.585938 19.839844 4.121094 C 20.144531 4.65625 20.453125 5.195312 20.765625 5.726562 C 21.09375 6.289062 21.417969 6.847656 21.742188 7.414062 C 21.996094 7.863281 22.257812 8.3125 22.519531 8.757812 C 22.785156 9.207031 23.046875 9.660156 23.300781 10.113281 C 23.335938 10.175781 23.375 10.242188 23.414062 10.300781 C 23.460938 10.375 23.460938 10.375 23.519531 10.5 C 23.476562 10.648438 23.402344 10.777344 23.324219 10.914062 C 23.300781 10.953125 23.277344 10.996094 23.253906 11.039062 C 23.226562 11.082031 23.203125 11.125 23.175781 11.171875 C 23.148438 11.21875 23.121094 11.265625 23.09375 11.3125 C 22.878906 11.6875 22.660156 12.0625 22.441406 12.433594 C 22.203125 12.832031 21.976562 13.234375 21.746094 13.636719 C 21.386719 14.269531 21.019531 14.894531 20.65625 15.523438 C 20.371094 16.015625 20.085938 16.507812 19.800781 17 C 19.472656 17.570312 19.144531 18.136719 18.8125 18.707031 C 18.675781 18.941406 18.539062 19.179688 18.402344 19.417969 C 18.375 19.464844 18.351562 19.507812 18.324219 19.550781 C 18.277344 19.632812 18.230469 19.714844 18.1875 19.792969 C 18.164062 19.832031 18.144531 19.867188 18.121094 19.90625 C 18.105469 19.9375 18.085938 19.96875 18.066406 20 C 18.046875 20.035156 18.023438 20.074219 18 20.113281 C 17.988281 20.140625 17.980469 20.171875 17.96875 20.199219 C 17.910156 20.320312 17.863281 20.390625 17.761719 20.476562 C 17.507812 20.53125 17.257812 20.523438 17 20.519531 C 16.921875 20.519531 16.84375 20.519531 16.765625 20.519531 C 16.550781 20.523438 16.335938 20.519531 16.121094 20.519531 C 15.890625 20.519531 15.664062 20.519531 15.4375 20.519531 C 15 20.523438 14.566406 20.519531 14.132812 20.519531 C 13.648438 20.519531 13.164062 20.519531 12.679688 20.519531 C 12.074219 20.519531 11.464844 20.519531 10.855469 20.519531 C 10.675781 20.515625 10.492188 20.515625 10.3125 20.515625 C 10.265625 20.515625 10.222656 20.515625 10.175781 20.515625 C 9.609375 20.515625 9.039062 20.515625 8.46875 20.527344 C 8.261719 20.53125 8.054688 20.53125 7.847656 20.535156 C 7.660156 20.535156 7.472656 20.539062 7.28125 20.546875 C 7.199219 20.546875 7.113281 20.546875 7.027344 20.550781 C 6.925781 20.550781 6.820312 20.550781 6.71875 20.554688 C 6.402344 20.558594 6.402344 20.558594 6.277344 20.4375 C 6.214844 20.34375 6.167969 20.253906 6.121094 20.152344 C 6.097656 20.113281 6.074219 20.074219 6.050781 20.035156 C 6.035156 20 6.015625 19.96875 5.996094 19.933594 C 5.976562 19.894531 5.953125 19.855469 5.933594 19.816406 C 5.898438 19.753906 5.898438 19.753906 5.863281 19.691406 C 5.660156 19.320312 5.453125 18.957031 5.238281 18.59375 C 5.015625 18.21875 4.800781 17.84375 4.589844 17.464844 C 4.414062 17.148438 4.234375 16.835938 4.054688 16.523438 C 3.804688 16.097656 3.5625 15.667969 3.316406 15.238281 C 3.191406 15.015625 3.066406 14.796875 2.941406 14.578125 C 2.789062 14.316406 2.640625 14.050781 2.488281 13.789062 C 2.222656 13.324219 1.957031 12.863281 1.691406 12.402344 C 1.566406 12.1875 1.441406 11.96875 1.320312 11.753906 C 1.300781 11.71875 1.300781 11.71875 1.28125 11.683594 C 1.214844 11.570312 1.148438 11.457031 1.085938 11.34375 C 1.0625 11.304688 1.039062 11.261719 1.015625 11.21875 C 0.980469 11.160156 0.980469 11.160156 0.949219 11.101562 C 0.902344 11.023438 0.855469 10.945312 0.804688 10.871094 C 0.773438 10.820312 0.773438 10.820312 0.738281 10.765625 C 0.71875 10.738281 0.695312 10.707031 0.675781 10.675781 C 0.625 10.539062 0.664062 10.46875 0.71875 10.339844 C 0.757812 10.261719 0.800781 10.1875 0.84375 10.117188 C 0.871094 10.074219 0.894531 10.03125 0.921875 9.988281 C 0.933594 9.964844 0.949219 9.941406 0.964844 9.917969 C 1.035156 9.796875 1.109375 9.675781 1.179688 9.554688 C 1.195312 9.527344 1.210938 9.503906 1.226562 9.476562 C 1.382812 9.210938 1.535156 8.945312 1.683594 8.675781 C 1.949219 8.203125 2.21875 7.734375 2.492188 7.265625 C 2.605469 7.066406 2.722656 6.867188 2.835938 6.667969 C 2.871094 6.609375 2.871094 6.609375 2.90625 6.546875 C 3.078125 6.253906 3.246094 5.957031 3.414062 5.660156 C 3.621094 5.300781 3.828125 4.945312 4.039062 4.589844 C 4.269531 4.195312 4.496094 3.800781 4.71875 3.402344 C 4.941406 3.007812 5.167969 2.617188 5.398438 2.230469 C 5.628906 1.839844 5.851562 1.445312 6.074219 1.046875 C 6.113281 0.980469 6.113281 0.980469 6.152344 0.910156 C 6.183594 0.851562 6.183594 0.851562 6.21875 0.792969 C 6.371094 0.53125 6.371094 0.53125 6.488281 0.503906 Z M 10.652344 1.851562 C 10.453125 1.851562 10.257812 1.851562 10.058594 1.847656 C 10.019531 1.847656 10.019531 1.847656 9.976562 1.847656 C 9.839844 1.847656 9.707031 1.847656 9.570312 1.847656 C 9.304688 1.847656 9.039062 1.84375 8.777344 1.839844 C 8.53125 1.835938 8.28125 1.835938 8.035156 1.839844 C 7.945312 1.839844 7.855469 1.835938 7.761719 1.835938 C 7.328125 1.804688 7.328125 1.804688 6.933594 1.949219 C 6.808594 2.089844 6.746094 2.25 6.679688 2.421875 C 6.632812 2.503906 6.589844 2.585938 6.539062 2.664062 C 6.492188 2.746094 6.445312 2.832031 6.398438 2.914062 C 6.191406 3.28125 5.976562 3.652344 5.761719 4.019531 C 5.523438 4.417969 5.289062 4.824219 5.058594 5.226562 C 4.824219 5.640625 4.585938 6.050781 4.347656 6.460938 C 4.234375 6.664062 4.117188 6.867188 4 7.066406 C 3.953125 7.148438 3.90625 7.230469 3.859375 7.308594 C 3.835938 7.347656 3.8125 7.390625 3.789062 7.429688 C 3.535156 7.875 3.277344 8.320312 3.019531 8.761719 C 2.984375 8.824219 2.984375 8.824219 2.949219 8.886719 C 2.902344 8.964844 2.855469 9.046875 2.8125 9.125 C 2.6875 9.335938 2.566406 9.550781 2.441406 9.761719 C 2.417969 9.808594 2.390625 9.851562 2.367188 9.898438 C 2.316406 9.984375 2.265625 10.066406 2.21875 10.152344 C 2.183594 10.210938 2.183594 10.210938 2.152344 10.269531 C 2.121094 10.320312 2.121094 10.320312 2.089844 10.371094 C 2.050781 10.441406 2.003906 10.511719 1.960938 10.582031 C 1.972656 10.730469 2.023438 10.839844 2.097656 10.972656 C 2.128906 11.027344 2.128906 11.027344 2.160156 11.082031 C 2.195312 11.140625 2.195312 11.140625 2.226562 11.199219 C 2.25 11.238281 2.273438 11.28125 2.296875 11.324219 C 2.507812 11.695312 2.722656 12.0625 2.9375 12.433594 C 3.160156 12.820312 3.382812 13.210938 3.605469 13.597656 C 3.730469 13.816406 3.855469 14.035156 3.980469 14.253906 C 4.03125 14.34375 4.078125 14.429688 4.128906 14.519531 C 4.15625 14.5625 4.179688 14.605469 4.203125 14.648438 C 5.628906 17.144531 5.628906 17.144531 5.707031 17.273438 C 5.753906 17.363281 5.804688 17.449219 5.855469 17.535156 C 5.96875 17.738281 6.085938 17.941406 6.203125 18.144531 C 6.242188 18.214844 6.28125 18.285156 6.324219 18.359375 C 6.375 18.445312 6.425781 18.535156 6.476562 18.625 C 6.6875 19.046875 6.6875 19.046875 6.960938 19.425781 C 7.011719 19.429688 7.066406 19.429688 7.121094 19.433594 C 7.15625 19.433594 7.191406 19.433594 7.226562 19.433594 C 7.285156 19.433594 7.285156 19.433594 7.34375 19.4375 C 7.386719 19.4375 7.425781 19.4375 7.46875 19.4375 C 7.605469 19.441406 7.742188 19.441406 7.882812 19.445312 C 7.980469 19.445312 8.078125 19.445312 8.175781 19.449219 C 9.078125 19.460938 9.976562 19.46875 10.878906 19.472656 C 11 19.476562 11.121094 19.476562 11.242188 19.476562 C 11.269531 19.476562 11.300781 19.476562 11.332031 19.476562 C 11.816406 19.480469 12.300781 19.488281 12.785156 19.496094 C 13.285156 19.503906 13.78125 19.507812 14.28125 19.511719 C 14.589844 19.511719 14.894531 19.515625 15.203125 19.523438 C 15.4375 19.527344 15.671875 19.527344 15.910156 19.527344 C 16.003906 19.527344 16.101562 19.527344 16.199219 19.53125 C 16.632812 19.550781 16.632812 19.550781 17.039062 19.425781 C 17.261719 19.207031 17.390625 18.925781 17.515625 18.640625 C 17.570312 18.511719 17.640625 18.390625 17.714844 18.273438 C 17.753906 18.199219 17.796875 18.128906 17.835938 18.058594 C 17.882812 17.976562 17.929688 17.894531 17.980469 17.8125 C 18 17.773438 18.023438 17.730469 18.050781 17.691406 C 18.167969 17.488281 18.28125 17.285156 18.398438 17.082031 C 18.445312 17 18.492188 16.921875 18.539062 16.839844 C 18.820312 16.355469 19.101562 15.871094 19.378906 15.386719 C 19.402344 15.347656 19.425781 15.304688 19.449219 15.265625 C 19.496094 15.183594 19.542969 15.105469 19.589844 15.023438 C 19.707031 14.824219 19.820312 14.625 19.9375 14.425781 C 20.132812 14.085938 20.328125 13.746094 20.523438 13.40625 C 20.828125 12.882812 21.132812 12.359375 21.433594 11.832031 C 21.542969 11.640625 21.652344 11.449219 21.765625 11.257812 C 21.785156 11.226562 21.800781 11.195312 21.820312 11.164062 C 21.855469 11.105469 21.890625 11.046875 21.925781 10.992188 C 22.007812 10.855469 22.066406 10.742188 22.078125 10.582031 C 22.042969 10.480469 22.042969 10.480469 21.984375 10.386719 C 21.949219 10.328125 21.949219 10.328125 21.914062 10.273438 C 21.890625 10.230469 21.867188 10.191406 21.839844 10.148438 C 21.789062 10.0625 21.734375 9.972656 21.683594 9.886719 C 21.65625 9.839844 21.628906 9.796875 21.601562 9.75 C 21.472656 9.53125 21.347656 9.3125 21.226562 9.09375 C 21.019531 8.734375 20.8125 8.375 20.601562 8.015625 C 20.363281 7.613281 20.128906 7.210938 19.898438 6.808594 C 19.664062 6.394531 19.425781 5.984375 19.1875 5.570312 C 19.050781 5.328125 18.910156 5.089844 18.769531 4.847656 C 18.652344 4.644531 18.539062 4.445312 18.421875 4.242188 C 18.152344 3.777344 17.882812 3.308594 17.617188 2.839844 C 17.570312 2.761719 17.523438 2.679688 17.476562 2.601562 C 17.421875 2.5 17.382812 2.414062 17.34375 2.308594 C 17.273438 2.128906 17.191406 1.976562 17.039062 1.859375 C 16.722656 1.742188 16.359375 1.785156 16.027344 1.796875 C 15.921875 1.796875 15.820312 1.800781 15.714844 1.800781 C 15.464844 1.800781 15.210938 1.804688 14.960938 1.8125 C 14.667969 1.816406 14.375 1.820312 14.082031 1.824219 C 13.933594 1.828125 13.785156 1.828125 13.632812 1.832031 C 13.605469 1.832031 13.574219 1.832031 13.542969 1.832031 C 13.332031 1.835938 13.117188 1.839844 12.902344 1.84375 C 12.152344 1.855469 11.402344 1.859375 10.652344 1.851562 Z M 10.652344 1.851562 "/>
<path style=" stroke:none;fill-rule:nonzero;fill:rgb(97.647059%,98.039216%,98.823529%);fill-opacity:1;" d="M 13.304688 1.519531 C 13.488281 1.515625 13.671875 1.515625 13.851562 1.511719 C 13.898438 1.511719 13.898438 1.511719 13.941406 1.511719 C 14.058594 1.507812 14.179688 1.507812 14.296875 1.507812 C 14.613281 1.503906 14.933594 1.5 15.25 1.492188 C 15.519531 1.488281 15.792969 1.484375 16.0625 1.484375 C 16.164062 1.480469 16.261719 1.480469 16.363281 1.476562 C 17.09375 1.457031 17.09375 1.457031 17.269531 1.585938 C 17.398438 1.722656 17.457031 1.882812 17.519531 2.058594 C 17.566406 2.140625 17.613281 2.222656 17.660156 2.300781 C 17.707031 2.382812 17.753906 2.46875 17.800781 2.550781 C 18.007812 2.917969 18.222656 3.285156 18.4375 3.648438 C 18.671875 4.046875 18.902344 4.449219 19.128906 4.851562 C 19.324219 5.199219 19.523438 5.542969 19.726562 5.886719 C 19.890625 6.167969 20.050781 6.449219 20.210938 6.730469 C 20.417969 7.09375 20.628906 7.453125 20.839844 7.8125 C 21.125 8.300781 21.40625 8.785156 21.683594 9.273438 C 21.804688 9.492188 21.929688 9.707031 22.050781 9.921875 C 22.089844 9.992188 22.132812 10.058594 22.171875 10.128906 C 22.195312 10.171875 22.21875 10.210938 22.242188 10.253906 C 22.261719 10.292969 22.285156 10.328125 22.304688 10.367188 C 22.347656 10.4375 22.394531 10.511719 22.441406 10.582031 C 22.425781 10.746094 22.359375 10.867188 22.277344 11.011719 C 22.253906 11.054688 22.226562 11.101562 22.203125 11.148438 C 22.171875 11.195312 22.144531 11.242188 22.117188 11.292969 C 22.089844 11.34375 22.058594 11.394531 22.03125 11.445312 C 21.808594 11.832031 21.582031 12.214844 21.359375 12.597656 C 21.148438 12.953125 20.945312 13.308594 20.738281 13.667969 C 20.503906 14.082031 20.265625 14.492188 20.03125 14.902344 C 19.914062 15.105469 19.796875 15.304688 19.679688 15.507812 C 19.632812 15.589844 19.585938 15.667969 19.539062 15.75 C 19.515625 15.789062 19.492188 15.828125 19.46875 15.871094 C 18.699219 17.203125 18.699219 17.203125 18.628906 17.324219 C 18.582031 17.40625 18.535156 17.488281 18.488281 17.566406 C 18.371094 17.769531 18.253906 17.972656 18.136719 18.175781 C 18.113281 18.21875 18.089844 18.257812 18.066406 18.300781 C 18.019531 18.378906 17.976562 18.453125 17.933594 18.53125 C 17.699219 18.933594 17.46875 19.339844 17.238281 19.75 C 13.78125 19.75 10.324219 19.75 6.761719 19.75 C 3.609375 14.234375 3.609375 14.234375 3.535156 14.105469 C 3.484375 14.015625 3.433594 13.929688 3.386719 13.84375 C 3.257812 13.621094 3.132812 13.402344 3.007812 13.183594 C 2.761719 12.75 2.515625 12.320312 2.265625 11.890625 C 2.246094 11.851562 2.222656 11.8125 2.199219 11.769531 C 2.09375 11.585938 1.984375 11.402344 1.875 11.222656 C 1.855469 11.191406 1.835938 11.160156 1.816406 11.128906 C 1.78125 11.070312 1.746094 11.011719 1.710938 10.953125 C 1.597656 10.769531 1.597656 10.769531 1.609375 10.644531 C 1.644531 10.53125 1.6875 10.4375 1.746094 10.335938 C 1.765625 10.296875 1.789062 10.257812 1.8125 10.214844 C 1.835938 10.171875 1.859375 10.128906 1.886719 10.085938 C 1.910156 10.042969 1.933594 9.996094 1.960938 9.949219 C 2.160156 9.601562 2.363281 9.253906 2.570312 8.910156 C 2.757812 8.59375 2.9375 8.277344 3.117188 7.960938 C 3.328125 7.585938 3.542969 7.210938 3.761719 6.839844 C 4 6.441406 4.230469 6.039062 4.460938 5.636719 C 4.695312 5.222656 4.933594 4.8125 5.171875 4.402344 C 5.289062 4.199219 5.402344 3.996094 5.519531 3.796875 C 5.660156 3.550781 5.804688 3.308594 5.945312 3.0625 C 5.96875 3.019531 5.992188 2.980469 6.015625 2.9375 C 6.0625 2.859375 6.105469 2.78125 6.152344 2.703125 C 6.183594 2.652344 6.183594 2.652344 6.214844 2.59375 C 6.246094 2.542969 6.246094 2.542969 6.28125 2.488281 C 6.34375 2.378906 6.390625 2.269531 6.433594 2.152344 C 6.652344 1.640625 6.652344 1.640625 6.898438 1.53125 C 7.191406 1.460938 7.496094 1.480469 7.796875 1.492188 C 7.898438 1.492188 8 1.492188 8.101562 1.492188 C 8.351562 1.492188 8.597656 1.496094 8.84375 1.5 C 9.132812 1.507812 9.421875 1.511719 9.707031 1.511719 C 9.855469 1.511719 10.003906 1.515625 10.152344 1.515625 C 10.183594 1.515625 10.210938 1.515625 10.242188 1.515625 C 10.453125 1.519531 10.667969 1.519531 10.878906 1.523438 C 11.691406 1.535156 12.496094 1.53125 13.304688 1.519531 Z M 10.652344 1.851562 C 10.453125 1.851562 10.257812 1.851562 10.058594 1.847656 C 10.019531 1.847656 10.019531 1.847656 9.976562 1.847656 C 9.839844 1.847656 9.707031 1.847656 9.570312 1.847656 C 9.304688 1.847656 9.039062 1.84375 8.777344 1.839844 C 8.53125 1.835938 8.28125 1.835938 8.035156 1.839844 C 7.945312 1.839844 7.855469 1.835938 7.761719 1.835938 C 7.328125 1.804688 7.328125 1.804688 6.933594 1.949219 C 6.808594 2.089844 6.746094 2.25 6.679688 2.421875 C 6.632812 2.503906 6.589844 2.585938 6.539062 2.664062 C 6.492188 2.746094 6.445312 2.832031 6.398438 2.914062 C 6.191406 3.28125 5.976562 3.652344 5.761719 4.019531 C 5.523438 4.417969 5.289062 4.824219 5.058594 5.226562 C 4.824219 5.640625 4.585938 6.050781 4.347656 6.460938 C 4.234375 6.664062 4.117188 6.867188 4 7.066406 C 3.953125 7.148438 3.90625 7.230469 3.859375 7.308594 C 3.835938 7.347656 3.8125 7.390625 3.789062 7.429688 C 3.535156 7.875 3.277344 8.320312 3.019531 8.761719 C 2.984375 8.824219 2.984375 8.824219 2.949219 8.886719 C 2.902344 8.964844 2.855469 9.046875 2.8125 9.125 C 2.6875 9.335938 2.566406 9.550781 2.441406 9.761719 C 2.417969 9.808594 2.390625 9.851562 2.367188 9.898438 C 2.316406 9.984375 2.265625 10.066406 2.21875 10.152344 C 2.183594 10.210938 2.183594 10.210938 2.152344 10.269531 C 2.121094 10.320312 2.121094 10.320312 2.089844 10.371094 C 2.050781 10.441406 2.003906 10.511719 1.960938 10.582031 C 1.972656 10.730469 2.023438 10.839844 2.097656 10.972656 C 2.128906 11.027344 2.128906 11.027344 2.160156 11.082031 C 2.195312 11.140625 2.195312 11.140625 2.226562 11.199219 C 2.25 11.238281 2.273438 11.28125 2.296875 11.324219 C 2.507812 11.695312 2.722656 12.0625 2.9375 12.433594 C 3.160156 12.820312 3.382812 13.210938 3.605469 13.597656 C 3.730469 13.816406 3.855469 14.035156 3.980469 14.253906 C 4.03125 14.34375 4.078125 14.429688 4.128906 14.519531 C 4.15625 14.5625 4.179688 14.605469 4.203125 14.648438 C 5.628906 17.144531 5.628906 17.144531 5.707031 17.273438 C 5.753906 17.363281 5.804688 17.449219 5.855469 17.535156 C 5.96875 17.738281 6.085938 17.941406 6.203125 18.144531 C 6.242188 18.214844 6.28125 18.285156 6.324219 18.359375 C 6.375 18.445312 6.425781 18.535156 6.476562 18.625 C 6.6875 19.046875 6.6875 19.046875 6.960938 19.425781 C 7.011719 19.429688 7.066406 19.429688 7.121094 19.433594 C 7.15625 19.433594 7.191406 19.433594 7.226562 19.433594 C 7.285156 19.433594 7.285156 19.433594 7.34375 19.4375 C 7.386719 19.4375 7.425781 19.4375 7.46875 19.4375 C 7.605469 19.441406 7.742188 19.441406 7.882812 19.445312 C 7.980469 19.445312 8.078125 19.445312 8.175781 19.449219 C 9.078125 19.460938 9.976562 19.46875 10.878906 19.472656 C 11 19.476562 11.121094 19.476562 11.242188 19.476562 C 11.269531 19.476562 11.300781 19.476562 11.332031 19.476562 C 11.816406 19.480469 12.300781 19.488281 12.785156 19.496094 C 13.285156 19.503906 13.78125 19.507812 14.28125 19.511719 C 14.589844 19.511719 14.894531 19.515625 15.203125 19.523438 C 15.4375 19.527344 15.671875 19.527344 15.910156 19.527344 C 16.003906 19.527344 16.101562 19.527344 16.199219 19.53125 C 16.632812 19.550781 16.632812 19.550781 17.039062 19.425781 C 17.261719 19.207031 17.390625 18.925781 17.515625 18.640625 C 17.570312 18.511719 17.640625 18.390625 17.714844 18.273438 C 17.753906 18.199219 17.796875 18.128906 17.835938 18.058594 C 17.882812 17.976562 17.929688 17.894531 17.980469 17.8125 C 18 17.773438 18.023438 17.730469 18.050781 17.691406 C 18.167969 17.488281 18.28125 17.285156 18.398438 17.082031 C 18.445312 17 18.492188 16.921875 18.539062 16.839844 C 18.820312 16.355469 19.101562 15.871094 19.378906 15.386719 C 19.402344 15.347656 19.425781 15.304688 19.449219 15.265625 C 19.496094 15.183594 19.542969 15.105469 19.589844 15.023438 C 19.707031 14.824219 19.820312 14.625 19.9375 14.425781 C 20.132812 14.085938 20.328125 13.746094 20.523438 13.40625 C 20.828125 12.882812 21.132812 12.359375 21.433594 11.832031 C 21.542969 11.640625 21.652344 11.449219 21.765625 11.257812 C 21.785156 11.226562 21.800781 11.195312 21.820312 11.164062 C 21.855469 11.105469 21.890625 11.046875 21.925781 10.992188 C 22.007812 10.855469 22.066406 10.742188 22.078125 10.582031 C 22.042969 10.480469 22.042969 10.480469 21.984375 10.386719 C 21.949219 10.328125 21.949219 10.328125 21.914062 10.273438 C 21.890625 10.230469 21.867188 10.191406 21.839844 10.148438 C 21.789062 10.0625 21.734375 9.972656 21.683594 9.886719 C 21.65625 9.839844 21.628906 9.796875 21.601562 9.75 C 21.472656 9.53125 21.347656 9.3125 21.226562 9.09375 C 21.019531 8.734375 20.8125 8.375 20.601562 8.015625 C 20.363281 7.613281 20.128906 7.210938 19.898438 6.808594 C 19.664062 6.394531 19.425781 5.984375 19.1875 5.570312 C 19.050781 5.328125 18.910156 5.089844 18.769531 4.847656 C 18.652344 4.644531 18.539062 4.445312 18.421875 4.242188 C 18.152344 3.777344 17.882812 3.308594 17.617188 2.839844 C 17.570312 2.761719 17.523438 2.679688 17.476562 2.601562 C 17.421875 2.5 17.382812 2.414062 17.34375 2.308594 C 17.273438 2.128906 17.191406 1.976562 17.039062 1.859375 C 16.722656 1.742188 16.359375 1.785156 16.027344 1.796875 C 15.921875 1.796875 15.820312 1.800781 15.714844 1.800781 C 15.464844 1.800781 15.210938 1.804688 14.960938 1.8125 C 14.667969 1.816406 14.375 1.820312 14.082031 1.824219 C 13.933594 1.828125 13.785156 1.828125 13.632812 1.832031 C 13.605469 1.832031 13.574219 1.832031 13.542969 1.832031 C 13.332031 1.835938 13.117188 1.839844 12.902344 1.84375 C 12.152344 1.855469 11.402344 1.859375 10.652344 1.851562 Z M 10.652344 1.851562 "/>
<path style=" stroke:none;fill-rule:nonzero;fill:rgb(99.607843%,99.607843%,99.607843%);fill-opacity:1;" d="M 14.960938 8.5625 C 14.960938 9.496094 14.960938 10.425781 14.960938 11.386719 C 12.992188 11.386719 11.027344 11.386719 9 11.386719 C 9 10.46875 9 9.550781 9 8.601562 C 9.144531 8.683594 9.289062 8.761719 9.441406 8.84375 C 9.511719 8.882812 9.585938 8.925781 9.660156 8.964844 C 10.070312 9.1875 10.476562 9.410156 10.878906 9.640625 C 10.917969 9.664062 10.957031 9.683594 10.996094 9.707031 C 11.167969 9.808594 11.34375 9.90625 11.515625 10.007812 C 11.558594 10.035156 11.558594 10.035156 11.605469 10.0625 C 11.65625 10.09375 11.710938 10.125 11.765625 10.160156 C 11.890625 10.238281 11.890625 10.238281 12.035156 10.246094 C 12.132812 10.210938 12.214844 10.167969 12.304688 10.113281 C 12.339844 10.09375 12.378906 10.070312 12.417969 10.046875 C 12.457031 10.023438 12.496094 10 12.539062 9.976562 C 12.625 9.921875 12.710938 9.871094 12.796875 9.820312 C 12.84375 9.792969 12.890625 9.765625 12.9375 9.738281 C 13.082031 9.648438 13.230469 9.5625 13.378906 9.476562 C 14.046875 9.082031 14.046875 9.082031 14.703125 8.671875 C 14.871094 8.5625 14.871094 8.5625 14.960938 8.5625 Z M 14.960938 8.5625 "/>
<path style=" stroke:none;fill-rule:nonzero;fill:rgb(69.019608%,75.294118%,86.666667%);fill-opacity:1;" d="M 15.441406 5.695312 C 15.902344 5.695312 16.363281 5.695312 16.839844 5.695312 C 16.839844 5.839844 16.839844 5.988281 16.839844 6.136719 C 16.523438 6.136719 16.207031 6.136719 15.878906 6.136719 C 15.878906 8.191406 15.878906 10.242188 15.878906 12.359375 C 13.304688 12.359375 10.730469 12.359375 8.078125 12.359375 C 8.078125 10.320312 8.078125 8.28125 8.078125 6.179688 C 7.777344 6.179688 7.472656 6.179688 7.160156 6.179688 C 7.160156 6.03125 7.160156 5.886719 7.160156 5.734375 C 7.609375 5.734375 8.058594 5.734375 8.519531 5.734375 C 8.519531 7.773438 8.519531 9.8125 8.519531 11.914062 C 10.804688 11.914062 13.085938 11.914062 15.441406 11.914062 C 15.441406 9.859375 15.441406 7.808594 15.441406 5.695312 Z M 15.441406 5.695312 "/>
<path style=" stroke:none;fill-rule:nonzero;fill:rgb(98.823529%,98.823529%,99.215686%);fill-opacity:1;" d="M 9 8.035156 C 10.96875 8.035156 12.933594 8.035156 14.960938 8.035156 C 14.960938 8.277344 14.960938 8.277344 14.90625 8.339844 C 14.878906 8.355469 14.851562 8.371094 14.824219 8.382812 C 14.796875 8.402344 14.765625 8.417969 14.734375 8.4375 C 14.699219 8.457031 14.667969 8.472656 14.632812 8.492188 C 14.558594 8.535156 14.484375 8.578125 14.410156 8.621094 C 14.351562 8.65625 14.351562 8.65625 14.289062 8.691406 C 14.078125 8.808594 13.871094 8.933594 13.660156 9.058594 C 13.585938 9.101562 13.511719 9.144531 13.4375 9.1875 C 13.199219 9.328125 12.960938 9.472656 12.726562 9.621094 C 12.6875 9.648438 12.644531 9.675781 12.601562 9.703125 C 12.523438 9.75 12.445312 9.800781 12.367188 9.851562 C 12.332031 9.875 12.296875 9.898438 12.261719 9.917969 C 12.230469 9.9375 12.199219 9.957031 12.167969 9.980469 C 12.050781 10.027344 12 10.015625 11.878906 9.976562 C 11.796875 9.933594 11.71875 9.894531 11.640625 9.847656 C 11.617188 9.835938 11.59375 9.824219 11.570312 9.808594 C 11.496094 9.765625 11.417969 9.726562 11.34375 9.683594 C 11.292969 9.652344 11.242188 9.625 11.1875 9.59375 C 10.832031 9.394531 10.480469 9.191406 10.125 8.988281 C 9.753906 8.777344 9.375 8.566406 9 8.359375 C 9 8.253906 9 8.144531 9 8.035156 Z M 9 8.035156 "/>
<path style=" stroke:none;fill-rule:nonzero;fill:rgb(97.647059%,98.039216%,98.823529%);fill-opacity:1;" d="M 16.5625 14.699219 C 16.847656 14.894531 17.011719 15.171875 17.078125 15.507812 C 17.125 15.894531 16.992188 16.195312 16.800781 16.515625 C 16.824219 16.527344 16.851562 16.539062 16.875 16.550781 C 16.976562 16.605469 17 16.65625 17.039062 16.757812 C 16.988281 16.8125 16.933594 16.867188 16.878906 16.921875 C 16.789062 16.878906 16.730469 16.851562 16.664062 16.773438 C 16.605469 16.710938 16.605469 16.710938 16.523438 16.726562 C 16.496094 16.734375 16.464844 16.742188 16.4375 16.753906 C 16.082031 16.84375 15.800781 16.824219 15.480469 16.636719 C 15.261719 16.503906 15.132812 16.28125 15.054688 16.035156 C 14.984375 15.644531 15.03125 15.3125 15.253906 14.984375 C 15.5625 14.582031 16.105469 14.46875 16.5625 14.699219 Z M 16.5625 14.699219 "/>
<path style=" stroke:none;fill-rule:nonzero;fill:rgb(97.254902%,97.647059%,98.823529%);fill-opacity:1;" d="M 12.558594 14.660156 C 12.785156 14.660156 13.007812 14.660156 13.238281 14.660156 C 13.261719 14.726562 13.285156 14.796875 13.304688 14.867188 C 13.335938 14.960938 13.363281 15.050781 13.390625 15.140625 C 13.40625 15.1875 13.421875 15.230469 13.4375 15.277344 C 13.515625 15.53125 13.597656 15.78125 13.679688 16.03125 C 13.769531 15.828125 13.839844 15.628906 13.898438 15.414062 C 13.96875 15.15625 14.054688 14.90625 14.160156 14.660156 C 14.371094 14.660156 14.582031 14.660156 14.800781 14.660156 C 14.800781 15.351562 14.800781 16.046875 14.800781 16.757812 C 14.65625 16.757812 14.507812 16.757812 14.359375 16.757812 C 14.347656 16.320312 14.332031 15.878906 14.320312 15.425781 C 14.101562 16.066406 14.101562 16.066406 13.878906 16.71875 C 13.746094 16.71875 13.617188 16.71875 13.480469 16.71875 C 13.460938 16.660156 13.441406 16.605469 13.421875 16.546875 C 13.398438 16.46875 13.371094 16.390625 13.347656 16.316406 C 13.335938 16.277344 13.324219 16.238281 13.308594 16.199219 C 13.238281 15.980469 13.160156 15.765625 13.078125 15.546875 C 13.066406 15.507812 13.054688 15.46875 13.039062 15.425781 C 13.027344 15.867188 13.011719 16.304688 13 16.757812 C 12.855469 16.757812 12.710938 16.757812 12.558594 16.757812 C 12.558594 16.066406 12.558594 15.375 12.558594 14.660156 Z M 12.558594 14.660156 "/>
<path style=" stroke:none;fill-rule:nonzero;fill:rgb(95.294118%,96.078431%,97.647059%);fill-opacity:1;" d="M 7.601562 14.660156 C 7.78125 14.65625 7.960938 14.65625 8.144531 14.652344 C 8.203125 14.652344 8.257812 14.648438 8.316406 14.648438 C 8.359375 14.648438 8.40625 14.648438 8.453125 14.648438 C 8.519531 14.648438 8.519531 14.648438 8.589844 14.644531 C 8.78125 14.667969 8.914062 14.738281 9.054688 14.867188 C 9.140625 15.015625 9.152344 15.140625 9.121094 15.304688 C 9.039062 15.457031 8.980469 15.535156 8.839844 15.628906 C 8.878906 15.652344 8.914062 15.675781 8.953125 15.699219 C 9.144531 15.835938 9.144531 15.835938 9.199219 15.953125 C 9.230469 16.140625 9.21875 16.277344 9.136719 16.449219 C 8.996094 16.609375 8.875 16.710938 8.664062 16.738281 C 8.613281 16.738281 8.566406 16.734375 8.515625 16.734375 C 8.464844 16.734375 8.417969 16.734375 8.367188 16.734375 C 8.277344 16.730469 8.277344 16.730469 8.183594 16.730469 C 7.992188 16.726562 7.800781 16.722656 7.601562 16.71875 C 7.601562 16.039062 7.601562 15.359375 7.601562 14.660156 Z M 7.601562 14.660156 "/>
<path style=" stroke:none;fill-rule:nonzero;fill:rgb(94.901961%,95.686275%,97.647059%);fill-opacity:1;" d="M 9.519531 14.660156 C 9.613281 14.660156 9.703125 14.660156 9.800781 14.660156 C 9.96875 15.019531 10.109375 15.382812 10.25 15.753906 C 10.28125 15.839844 10.316406 15.925781 10.347656 16.011719 C 10.375 16.089844 10.40625 16.167969 10.433594 16.242188 C 10.46875 16.351562 10.46875 16.351562 10.519531 16.394531 C 10.542969 16.332031 10.542969 16.332031 10.570312 16.265625 C 10.628906 16.109375 10.691406 15.949219 10.753906 15.789062 C 10.777344 15.722656 10.804688 15.652344 10.832031 15.585938 C 10.871094 15.484375 10.90625 15.386719 10.945312 15.289062 C 10.957031 15.257812 10.96875 15.226562 10.980469 15.195312 C 11.050781 15.015625 11.125 14.835938 11.199219 14.660156 C 11.304688 14.660156 11.410156 14.660156 11.519531 14.660156 C 11.519531 15.351562 11.519531 16.046875 11.519531 16.757812 C 11.453125 16.757812 11.386719 16.757812 11.320312 16.757812 C 11.308594 16.1875 11.292969 15.613281 11.28125 15.023438 C 11.101562 15.492188 11.101562 15.492188 10.921875 15.957031 C 10.898438 16.015625 10.875 16.078125 10.855469 16.136719 C 10.84375 16.164062 10.832031 16.195312 10.820312 16.226562 C 10.753906 16.394531 10.683594 16.558594 10.601562 16.71875 C 10.535156 16.71875 10.46875 16.71875 10.398438 16.71875 C 10.1875 16.1875 9.976562 15.652344 9.761719 15.105469 C 9.746094 15.648438 9.734375 16.195312 9.71875 16.757812 C 9.652344 16.757812 9.589844 16.757812 9.519531 16.757812 C 9.519531 16.066406 9.519531 15.375 9.519531 14.660156 Z M 9.519531 14.660156 "/>
<path style=" stroke:none;fill-rule:nonzero;fill:rgb(36.862745%,49.019608%,71.372549%);fill-opacity:1;" d="M 16.199219 14.984375 C 16.394531 15.082031 16.496094 15.195312 16.601562 15.386719 C 16.617188 15.535156 16.617188 15.535156 16.613281 15.695312 C 16.613281 15.773438 16.613281 15.773438 16.613281 15.851562 C 16.601562 15.976562 16.585938 16.050781 16.519531 16.152344 C 16.496094 16.140625 16.472656 16.128906 16.449219 16.117188 C 16.367188 16.074219 16.289062 16.050781 16.199219 16.03125 C 16.148438 16.097656 16.09375 16.164062 16.039062 16.234375 C 16.066406 16.246094 16.089844 16.257812 16.117188 16.269531 C 16.199219 16.316406 16.199219 16.316406 16.238281 16.394531 C 15.851562 16.417969 15.851562 16.417969 15.679688 16.273438 C 15.511719 16.09375 15.460938 15.878906 15.46875 15.632812 C 15.5 15.371094 15.601562 15.195312 15.800781 15.023438 C 15.929688 14.957031 16.058594 14.964844 16.199219 14.984375 Z M 16.199219 14.984375 "/>
<path style=" stroke:none;fill-rule:nonzero;fill:rgb(35.686275%,48.235294%,70.980392%);fill-opacity:1;" d="M 7.800781 15.75 C 7.949219 15.746094 8.097656 15.742188 8.246094 15.738281 C 8.285156 15.738281 8.328125 15.738281 8.371094 15.734375 C 8.621094 15.734375 8.773438 15.738281 8.960938 15.910156 C 9.019531 16.035156 9.007812 16.136719 9 16.273438 C 8.933594 16.429688 8.875 16.496094 8.71875 16.558594 C 8.617188 16.566406 8.617188 16.566406 8.503906 16.566406 C 8.441406 16.566406 8.441406 16.566406 8.378906 16.566406 C 8.335938 16.5625 8.292969 16.5625 8.25 16.5625 C 8.183594 16.5625 8.183594 16.5625 8.121094 16.5625 C 8.011719 16.5625 7.90625 16.558594 7.800781 16.558594 C 7.800781 16.292969 7.800781 16.023438 7.800781 15.75 Z M 7.800781 15.75 "/>
<path style=" stroke:none;fill-rule:nonzero;fill:rgb(36.078431%,48.627451%,70.980392%);fill-opacity:1;" d="M 7.800781 14.820312 C 7.941406 14.816406 8.085938 14.8125 8.226562 14.8125 C 8.289062 14.808594 8.289062 14.808594 8.351562 14.808594 C 8.648438 14.804688 8.648438 14.804688 8.804688 14.898438 C 8.902344 15.007812 8.917969 15.046875 8.933594 15.199219 C 8.921875 15.347656 8.921875 15.347656 8.84375 15.441406 C 8.714844 15.542969 8.644531 15.554688 8.480469 15.550781 C 8.441406 15.550781 8.402344 15.550781 8.359375 15.550781 C 8.320312 15.550781 8.277344 15.550781 8.234375 15.550781 C 8.171875 15.550781 8.171875 15.550781 8.109375 15.550781 C 8.007812 15.550781 7.902344 15.550781 7.800781 15.546875 C 7.800781 15.308594 7.800781 15.066406 7.800781 14.820312 Z M 7.800781 14.820312 "/>
<path style=" stroke:none;fill-rule:nonzero;fill:rgb(96.078431%,96.862745%,98.039216%);fill-opacity:1;" d="M 6.960938 14.660156 C 7.027344 14.660156 7.09375 14.660156 7.160156 14.660156 C 7.160156 15.351562 7.160156 16.046875 7.160156 16.757812 C 7.09375 16.757812 7.027344 16.757812 6.960938 16.757812 C 6.960938 16.066406 6.960938 15.375 6.960938 14.660156 Z M 6.960938 14.660156 "/>
</g>
</svg>