<svg width="16" height="16" viewBox="0 0 16 16" fill="none" xmlns="http://www.w3.org/2000/svg">
<g clip-path="url(#clip0_814_13023)">
<path d="M3.51545 0.167053H0.0131836V3.13564H3.51545V0.167053Z" fill="#00BBEB"/>
<path d="M3.51545 4.40314H0.0131836V7.37172H3.51545V4.40314Z" fill="#001050"/>
<path d="M3.51545 8.65588H0.0131836V11.6245H3.51545V8.65588Z" fill="#001050"/>
<path d="M3.51545 12.892H0.0131836V15.8606H3.51545V12.892Z" fill="#001050"/>
<path d="M14.8895 5.42045C14.5726 5.00352 14.1223 4.66997 13.572 4.41981C13.0216 4.18632 12.3212 4.06958 11.4873 4.06958C10.8202 4.06958 10.1531 4.21968 9.50268 4.53655C9.03571 4.75335 8.61878 5.0869 8.28523 5.48716V4.36978H4.91638V15.8939H8.41865V9.87334C8.41865 8.80598 8.58542 8.03882 8.91897 7.58852C9.25252 7.15491 9.76952 6.9381 10.52 6.9381C11.1704 6.9381 11.604 7.12156 11.8375 7.50514C12.1044 7.9054 12.2211 8.55582 12.2211 9.42304V15.8939H15.7234V8.85601C15.7234 8.15555 15.6567 7.52181 15.5399 6.9381C15.4399 6.3544 15.2064 5.83739 14.8895 5.42045Z" fill="#001050"/>
</g>
<defs>
<clipPath id="clip0_814_13023">
<rect width="16" height="16" fill="white"/>
</clipPath>
</defs>
</svg>
 