<svg width="32" height="32" viewBox="0 0 96 96" fill="none" xmlns="http://www.w3.org/2000/svg">
<rect x="16" y="16" width="64" height="64" fill="url(#paint0_linear_1433_3018)"/>
<path fill-rule="evenodd" clip-rule="evenodd" d="M45.3729 45.6081V38.4905H46.9365V41.6533L49.0465 38.4905H50.7771L48.332 41.8183L50.9787 45.6081H49.1246L46.9365 42.1683V45.6081H45.3729ZM69 55.3776L68.4762 55.8366C66.292 57.7705 62.5976 57.7695 60.4094 55.8326L59.3657 54.9187C57.9307 53.6487 55.3244 53.6477 53.8933 54.9147L52.8427 55.8356C50.6605 57.7695 46.9622 57.7685 44.776 55.8326L43.7323 54.9187C42.2962 53.6477 39.691 53.6497 38.2609 54.9147L37.2083 55.8366C36.1182 56.8016 34.6485 57.2855 33.1799 57.2855C31.7092 57.2855 30.2376 56.8016 29.1425 55.8326L28.6227 55.3776L29.9154 53.8647L30.4402 54.3237C31.8743 55.5926 34.4795 55.5936 35.9116 54.3277L36.9632 53.4057C39.1454 51.4738 42.8428 51.4738 45.029 53.4097L46.0736 54.3237C47.5097 55.5946 50.1149 55.5926 51.5451 54.3277L52.5966 53.4067C54.7789 51.4728 58.4752 51.4738 60.6634 53.4097L61.7061 54.3237C63.1412 55.5926 65.7464 55.5936 67.1785 54.3277L67.7073 53.8647L69 55.3776ZM67.0846 64.5792L68.3773 66.0911L67.8535 66.5501C66.7624 67.516 65.2928 68 63.8241 68C62.3535 68 60.8808 67.515 59.7878 66.5461L58.7431 65.6331C57.307 64.3612 54.7018 64.3632 53.2717 65.6291L52.2201 66.5501C50.0388 68.482 46.3405 68.483 44.1543 66.5461L43.1106 65.6321C41.6756 64.3622 39.0693 64.3622 37.6382 65.6291L36.5866 66.5501C34.4044 68.483 30.708 68.483 28.5199 66.5461L28 66.0911L29.2927 64.5792L29.8175 65.0381C31.2516 66.3071 33.8578 66.3081 35.2899 65.0421L36.3405 64.1212C38.5228 62.1883 42.2201 62.1873 44.4073 64.1242L45.451 65.0381C46.8851 66.3071 49.4903 66.3081 50.9224 65.0421L51.975 64.1202C54.1572 62.1883 57.8546 62.1873 60.0408 64.1242L61.0844 65.0381C62.5195 66.3071 65.1238 66.3081 66.5568 65.0421L67.0846 64.5792ZM67.0846 59.5654L68.3773 61.0774L67.8535 61.5363C66.7624 62.5023 65.2928 62.9853 63.8241 62.9853C62.3535 62.9853 60.8808 62.5013 59.7878 61.5323L58.7431 60.6194C57.307 59.3484 54.7018 59.3494 53.2717 60.6154L52.2201 61.5363C50.0388 63.4692 46.3405 63.4692 44.1543 61.5323L43.1106 60.6184C41.6756 59.3484 39.0693 59.3464 37.6382 60.6154L36.5866 61.5363C34.4044 63.4692 30.708 63.4692 28.5199 61.5323L28 61.0774L29.2927 59.5654L29.8175 60.0244C31.2516 61.2943 33.8578 61.2943 35.2899 60.0274L36.3405 59.1074C38.5238 57.1725 42.2221 57.1745 44.4073 59.1104L45.451 60.0244C46.8851 61.2933 49.4903 61.2943 50.9224 60.0274L51.975 59.1064C54.1572 57.1735 57.8546 57.1725 60.0408 59.1104L61.0844 60.0244C62.5195 61.2943 65.1238 61.2943 66.5568 60.0274L67.0846 59.5654ZM36.1458 45.9991C36.9632 45.9991 37.6283 46.6721 37.6283 47.499C37.6283 48.326 36.9632 48.999 36.1458 48.999C35.3285 48.999 34.6633 48.326 34.6633 47.499C34.6633 46.6721 35.3285 45.9991 36.1458 45.9991ZM48.0058 29.9999C48.8232 29.9999 49.4883 30.6729 49.4883 31.4998C49.4883 32.3268 48.8232 32.9998 48.0058 32.9998C47.1885 32.9998 46.5233 32.3268 46.5233 31.4998C46.5233 30.6729 47.1885 29.9999 48.0058 29.9999ZM61.3483 47.499C61.3483 48.326 60.6832 48.999 59.8658 48.999C59.0485 48.999 58.3833 48.326 58.3833 47.499C58.3833 46.6721 59.0485 45.9991 59.8658 45.9991C60.6832 45.9991 61.3483 46.6721 61.3483 47.499ZM48.0058 34.9997C48.5435 34.9997 49.0465 34.8637 49.5012 34.6417L57.2892 45.1881C56.8504 45.6871 56.5549 46.3081 56.4571 46.999H39.5546C39.4568 46.3081 39.1612 45.6871 38.7224 45.1881L46.5105 34.6417C46.9651 34.8637 47.4682 34.9997 48.0058 34.9997ZM36.1458 50.9989C37.5206 50.9989 38.7007 50.1769 39.2581 48.999H56.7546C57.311 50.1769 58.4911 50.9989 59.8658 50.9989C61.7733 50.9989 63.325 49.4289 63.325 47.499C63.325 45.5691 61.7733 43.9992 59.8658 43.9992C59.5565 43.9992 59.262 44.0542 58.9763 44.1312L50.9649 33.2837C51.2762 32.7598 51.465 32.1538 51.465 31.4998C51.465 29.5699 49.9133 28 48.0058 28C46.0984 28 44.5467 29.5699 44.5467 31.4998C44.5467 32.1538 44.7354 32.7598 45.0468 33.2837L37.0353 44.1312C36.7497 44.0542 36.4562 43.9992 36.1458 43.9992C34.2384 43.9992 32.6867 45.5691 32.6867 47.499C32.6867 49.4289 34.2384 50.9989 36.1458 50.9989Z" fill="white"/>
<defs>
<linearGradient id="paint0_linear_1433_3018" x1="48" y1="112" x2="112" y2="48" gradientUnits="userSpaceOnUse">
<stop stop-color="#4D27A8"/>
<stop offset="1" stop-color="#A166FF"/>
</linearGradient>
</defs>
</svg>
