<svg xmlns="http://www.w3.org/2000/svg" width="20" height="20" viewBox="0 0 20 20" fill="none">
  <path d="M9.69785 5.39835L10 5.6276L10.3022 5.39835C11.3844 4.57741 13.005 4.25 14.5834 4.25C15.5172 4.25 16.4801 4.36989 17.3458 4.64231C17.849 4.81026 18.2771 5.00086 18.6667 5.25894V17.0428C17.4286 16.4103 15.9697 16.1667 14.5834 16.1667C13.8195 16.1667 12.9098 16.3113 12.0518 16.5434C11.3239 16.7402 10.6052 17.0075 10.0256 17.3229C9.89423 17.2366 9.75854 17.1559 9.61915 17.0807L10.2664 16.6731C10.7721 16.3547 11.5124 16.0585 12.3129 15.842C13.1111 15.6262 13.9306 15.5 14.5834 15.5C15.5437 15.5 16.4909 15.6203 17.3484 15.8931L18 16.1005V15.4167V5.83333V5.46772L17.6516 5.35687C16.6759 5.04639 15.623 4.91667 14.5834 4.91667C13.8195 4.91667 12.9098 5.06135 12.0518 5.29338C11.1961 5.52481 10.353 5.8536 9.73363 6.24355L9.50004 6.39063V6.66667V16.25V17.0181C8.27105 16.3907 6.77528 16.1667 5.41671 16.1667C4.16397 16.1667 2.51851 16.5397 1.33337 17.0894V5.25765C2.40952 4.53978 3.93183 4.25 5.41671 4.25C6.99506 4.25 8.6157 4.57741 9.69785 5.39835ZM11.3334 13.2311V12.9719C12.2535 12.6299 13.3584 12.4417 14.5834 12.4417C15.1251 12.4417 15.6595 12.4815 16.1667 12.5603V12.8077C15.6601 12.7312 15.1272 12.6917 14.5834 12.6917C13.3738 12.6917 12.2583 12.8737 11.3334 13.2311ZM16.1667 10.5828C15.6601 10.5062 15.1272 10.4668 14.5834 10.4668C13.3738 10.4668 12.2583 10.6488 11.3334 11.0062V10.749C12.2561 10.4107 13.3616 10.2168 14.5834 10.2168C15.1213 10.2168 15.6557 10.2612 16.1667 10.3386V10.5828ZM11.3334 8.78937V8.53017C12.2535 8.18814 13.3584 8 14.5834 8C15.1213 8 15.6557 8.04441 16.1667 8.12183V8.36595C15.6601 8.28942 15.1272 8.25 14.5834 8.25C13.3738 8.25 12.2583 8.43201 11.3334 8.78937Z" fill="white" stroke="#494949"/>
</svg>