<svg xmlns="http://www.w3.org/2000/svg" xmlns:xlink="http://www.w3.org/1999/xlink" width="24px" height="24px" viewBox="0 0 24 24" version="1.1">
<g id="surface1">
<path style=" stroke:none;fill-rule:nonzero;fill:rgb(99.607843%,99.607843%,99.215686%);fill-opacity:1;" d="M 0 0 C 7.921875 0 15.839844 0 24 0 C 24 7.921875 24 15.839844 24 24 C 16.078125 24 8.160156 24 0 24 C 0 16.078125 0 8.160156 0 0 Z M 0 0 "/>
<path style=" stroke:none;fill-rule:nonzero;fill:rgb(98.039216%,43.529412%,1.176471%);fill-opacity:1;" d="M 4.488281 4.199219 C 4.671875 4.203125 4.855469 4.207031 5.035156 4.214844 C 5.179688 4.21875 5.179688 4.21875 5.328125 4.222656 C 5.632812 4.230469 5.941406 4.242188 6.246094 4.253906 C 6.453125 4.257812 6.664062 4.265625 6.871094 4.269531 C 7.378906 4.285156 7.890625 4.304688 8.398438 4.320312 C 8.398438 5.269531 8.398438 6.222656 8.398438 7.199219 C 9.390625 7.199219 10.378906 7.199219 11.398438 7.199219 C 11.398438 8.152344 11.398438 9.101562 11.398438 10.078125 C 11.875 10.078125 12.351562 10.078125 12.839844 10.078125 C 12.839844 9.089844 12.839844 8.101562 12.839844 7.078125 C 13.789062 7.078125 14.742188 7.078125 15.71875 7.078125 C 15.71875 6.128906 15.71875 5.179688 15.71875 4.199219 C 17.246094 4.179688 18.746094 4.257812 20.28125 4.320312 C 20.28125 9.152344 20.28125 13.980469 20.28125 18.960938 C 18.773438 18.960938 17.269531 18.960938 15.71875 18.960938 C 15.71875 17.019531 15.71875 15.078125 15.71875 13.078125 C 15.324219 13.078125 14.929688 13.078125 14.519531 13.078125 C 14.519531 14.03125 14.519531 14.980469 14.519531 15.960938 C 12.976562 15.960938 11.429688 15.960938 9.839844 15.960938 C 9.839844 15.007812 9.839844 14.058594 9.839844 13.078125 C 9.40625 13.078125 8.96875 13.078125 8.519531 13.078125 C 8.519531 13.253906 8.519531 13.425781 8.523438 13.605469 C 8.523438 14.25 8.527344 14.890625 8.527344 15.535156 C 8.527344 15.8125 8.527344 16.089844 8.527344 16.371094 C 8.53125 16.769531 8.53125 17.167969 8.53125 17.566406 C 8.53125 17.695312 8.53125 17.820312 8.535156 17.949219 C 8.535156 18.0625 8.535156 18.179688 8.535156 18.296875 C 8.535156 18.398438 8.535156 18.5 8.535156 18.605469 C 8.519531 18.839844 8.519531 18.839844 8.398438 18.960938 C 8.070312 18.96875 7.746094 18.972656 7.417969 18.972656 C 7.320312 18.972656 7.21875 18.972656 7.117188 18.972656 C 6.804688 18.96875 6.488281 18.96875 6.171875 18.96875 C 5.960938 18.96875 5.746094 18.964844 5.53125 18.964844 C 5.007812 18.964844 4.484375 18.960938 3.960938 18.960938 C 3.957031 17.054688 3.957031 15.148438 3.953125 13.238281 C 3.953125 12.355469 3.953125 11.46875 3.949219 10.582031 C 3.949219 9.8125 3.949219 9.042969 3.949219 8.269531 C 3.949219 7.859375 3.949219 7.453125 3.949219 7.042969 C 3.945312 6.589844 3.945312 6.132812 3.945312 5.675781 C 3.945312 5.542969 3.945312 5.40625 3.945312 5.265625 C 3.945312 5.140625 3.945312 5.015625 3.945312 4.890625 C 3.945312 4.78125 3.945312 4.675781 3.945312 4.5625 C 3.972656 4.140625 4.054688 4.199219 4.488281 4.199219 Z M 4.488281 4.199219 "/>
<path style=" stroke:none;fill-rule:nonzero;fill:rgb(98.823529%,43.529412%,0.784314%);fill-opacity:1;" d="M 14.519531 10.078125 C 16.382812 10.078125 18.242188 10.078125 20.160156 10.078125 C 20.160156 12.972656 20.160156 15.863281 20.160156 18.839844 C 18.734375 18.839844 17.308594 18.839844 15.839844 18.839844 C 15.839844 16.9375 15.839844 15.039062 15.839844 13.078125 C 15.445312 13.039062 15.046875 13 14.640625 12.960938 C 14.601562 12.921875 14.5625 12.878906 14.519531 12.839844 C 14.519531 11.929688 14.519531 11.019531 14.519531 10.078125 Z M 14.519531 10.078125 "/>
<path style=" stroke:none;fill-rule:nonzero;fill:rgb(99.215686%,63.137255%,0.784314%);fill-opacity:1;" d="M 15.71875 4.199219 C 17.246094 4.179688 18.746094 4.257812 20.28125 4.320312 C 20.28125 9.152344 20.28125 13.980469 20.28125 18.960938 C 18.773438 18.960938 17.269531 18.960938 15.71875 18.960938 C 15.71875 17.019531 15.71875 15.078125 15.71875 13.078125 C 15.324219 13.078125 14.929688 13.078125 14.519531 13.078125 C 14.519531 14.03125 14.519531 14.980469 14.519531 15.960938 C 13.492188 15.960938 12.460938 15.960938 11.398438 15.960938 C 11.398438 15.921875 11.398438 15.878906 11.398438 15.839844 C 12.351562 15.839844 13.300781 15.839844 14.28125 15.839844 C 14.28125 12.988281 14.28125 10.136719 14.28125 7.199219 C 13.804688 7.199219 13.328125 7.199219 12.839844 7.199219 C 12.839844 7.160156 12.839844 7.121094 12.839844 7.078125 C 13.789062 7.078125 14.742188 7.078125 15.71875 7.078125 C 15.71875 6.128906 15.71875 5.179688 15.71875 4.199219 Z M 14.519531 10.078125 C 14.519531 10.992188 14.519531 11.902344 14.519531 12.839844 C 14.835938 13.15625 15.394531 13.035156 15.839844 13.078125 C 15.839844 14.980469 15.839844 16.882812 15.839844 18.839844 C 17.265625 18.839844 18.691406 18.839844 20.160156 18.839844 C 20.160156 15.949219 20.160156 13.058594 20.160156 10.078125 C 18.296875 10.078125 16.4375 10.078125 14.519531 10.078125 Z M 14.519531 10.078125 "/>
<path style=" stroke:none;fill-rule:nonzero;fill:rgb(99.215686%,63.137255%,1.568627%);fill-opacity:1;" d="M 5.640625 4.320312 C 6.550781 4.320312 7.460938 4.320312 8.398438 4.320312 C 8.398438 5.269531 8.398438 6.222656 8.398438 7.199219 C 9.390625 7.199219 10.378906 7.199219 11.398438 7.199219 C 11.398438 8.152344 11.398438 9.101562 11.398438 10.078125 C 11.875 10.078125 12.351562 10.078125 12.839844 10.078125 C 12.839844 10.121094 12.839844 10.160156 12.839844 10.199219 C 10.433594 10.21875 8.042969 10.164062 5.640625 10.078125 C 5.640625 8.179688 5.640625 6.277344 5.640625 4.320312 Z M 5.640625 4.320312 "/>
<path style=" stroke:none;fill-rule:nonzero;fill:rgb(0.392157%,0%,0.392157%);fill-opacity:1;" d="M 4.078125 4.199219 C 4.554688 4.199219 5.03125 4.199219 5.519531 4.199219 C 5.519531 9.03125 5.519531 13.863281 5.519531 18.839844 C 5.042969 18.839844 4.570312 18.839844 4.078125 18.839844 C 4.078125 14.007812 4.078125 9.175781 4.078125 4.199219 Z M 4.078125 4.199219 "/>
<path style=" stroke:none;fill-rule:nonzero;fill:rgb(97.647059%,3.137255%,5.490196%);fill-opacity:1;" d="M 15.839844 13.078125 C 16.316406 13.078125 16.789062 13.078125 17.28125 13.078125 C 17.28125 14.03125 17.28125 14.980469 17.28125 15.960938 C 18.230469 15.960938 19.179688 15.960938 20.160156 15.960938 C 20.160156 16.910156 20.160156 17.859375 20.160156 18.839844 C 18.734375 18.839844 17.308594 18.839844 15.839844 18.839844 C 15.839844 16.9375 15.839844 15.039062 15.839844 13.078125 Z M 15.839844 13.078125 "/>
<path style=" stroke:none;fill-rule:nonzero;fill:rgb(88.627451%,13.333333%,15.294118%);fill-opacity:1;" d="M 3.960938 4.320312 C 4 4.320312 4.039062 4.320312 4.078125 4.320312 C 4.078125 9.113281 4.078125 13.902344 4.078125 18.839844 C 4.554688 18.839844 5.03125 18.839844 5.519531 18.839844 C 5.519531 17.890625 5.519531 16.9375 5.519531 15.960938 C 6.46875 15.960938 7.421875 15.960938 8.398438 15.960938 C 8.398438 16.949219 8.398438 17.941406 8.398438 18.960938 C 6.933594 18.960938 5.46875 18.960938 3.960938 18.960938 C 3.960938 14.128906 3.960938 9.296875 3.960938 4.320312 Z M 3.960938 4.320312 "/>
<path style=" stroke:none;fill-rule:nonzero;fill:rgb(8.627451%,4.313725%,1.960784%);fill-opacity:1;" d="M 4.078125 4.199219 C 4.554688 4.199219 5.03125 4.199219 5.519531 4.199219 C 5.519531 9.03125 5.519531 13.863281 5.519531 18.839844 C 5.042969 18.839844 4.570312 18.839844 4.078125 18.839844 C 4.078125 16.898438 4.078125 14.960938 4.078125 12.960938 C 4.476562 12.960938 4.871094 12.960938 5.28125 12.960938 C 5.28125 12.808594 5.277344 12.660156 5.277344 12.503906 C 5.257812 6.980469 5.257812 6.980469 5.398438 4.320312 C 4.964844 4.320312 4.527344 4.320312 4.078125 4.320312 C 4.078125 4.28125 4.078125 4.242188 4.078125 4.199219 Z M 4.078125 4.199219 "/>
<path style=" stroke:none;fill-rule:nonzero;fill:rgb(3.529412%,0.392157%,0%);fill-opacity:1;" d="M 15.839844 13.078125 C 16.316406 13.078125 16.789062 13.078125 17.28125 13.078125 C 17.28125 14.980469 17.28125 16.882812 17.28125 18.839844 C 16.804688 18.839844 16.328125 18.839844 15.839844 18.839844 C 15.839844 16.9375 15.839844 15.039062 15.839844 13.078125 Z M 15.839844 13.078125 "/>
<path style=" stroke:none;fill-rule:nonzero;fill:rgb(99.215686%,80%,1.960784%);fill-opacity:1;" d="M 17.28125 4.320312 C 18.230469 4.320312 19.179688 4.320312 20.160156 4.320312 C 20.160156 5.269531 20.160156 6.222656 20.160156 7.199219 C 19.210938 7.199219 18.257812 7.199219 17.28125 7.199219 C 17.28125 6.25 17.28125 5.300781 17.28125 4.320312 Z M 17.28125 4.320312 "/>
<path style=" stroke:none;fill-rule:nonzero;fill:rgb(99.215686%,29.019608%,3.921569%);fill-opacity:1;" d="M 17.28125 13.078125 C 18.191406 13.078125 19.101562 13.078125 20.039062 13.078125 C 20.078125 14.03125 20.121094 14.980469 20.160156 15.960938 C 19.210938 15.960938 18.257812 15.960938 17.28125 15.960938 C 17.28125 15.007812 17.28125 14.058594 17.28125 13.078125 Z M 17.28125 13.078125 "/>
<path style=" stroke:none;fill-rule:nonzero;fill:rgb(98.039216%,29.411765%,4.705882%);fill-opacity:1;" d="M 11.398438 13.078125 C 12.351562 13.078125 13.300781 13.078125 14.28125 13.078125 C 14.28125 13.992188 14.28125 14.902344 14.28125 15.839844 C 13.328125 15.839844 12.378906 15.839844 11.398438 15.839844 C 11.398438 14.929688 11.398438 14.019531 11.398438 13.078125 Z M 11.398438 13.078125 "/>
<path style=" stroke:none;fill-rule:nonzero;fill:rgb(98.823529%,28.627451%,4.313725%);fill-opacity:1;" d="M 5.640625 13.078125 C 6.550781 13.078125 7.460938 13.078125 8.398438 13.078125 C 8.398438 14.03125 8.398438 14.980469 8.398438 15.960938 C 7.488281 15.960938 6.578125 15.960938 5.640625 15.960938 C 5.640625 15.007812 5.640625 14.058594 5.640625 13.078125 Z M 5.640625 13.078125 "/>
<path style=" stroke:none;fill-rule:nonzero;fill:rgb(99.215686%,80%,1.960784%);fill-opacity:1;" d="M 5.640625 4.320312 C 6.550781 4.320312 7.460938 4.320312 8.398438 4.320312 C 8.398438 5.269531 8.398438 6.222656 8.398438 7.199219 C 7.488281 7.199219 6.578125 7.199219 5.640625 7.199219 C 5.640625 6.25 5.640625 5.300781 5.640625 4.320312 Z M 5.640625 4.320312 "/>
<path style=" stroke:none;fill-rule:nonzero;fill:rgb(83.137255%,56.470588%,38.823529%);fill-opacity:1;" d="M 15.71875 4.199219 C 16.234375 4.199219 16.75 4.199219 17.28125 4.199219 C 17.28125 4.238281 17.28125 4.277344 17.28125 4.320312 C 16.804688 4.320312 16.328125 4.320312 15.839844 4.320312 C 15.839844 5.269531 15.839844 6.222656 15.839844 7.199219 C 15.40625 7.199219 14.96875 7.199219 14.519531 7.199219 C 14.558594 9.0625 14.597656 10.921875 14.640625 12.839844 C 15.945312 12.898438 15.945312 12.898438 17.28125 12.960938 C 17.28125 13 17.28125 13.039062 17.28125 13.078125 C 16.804688 13.078125 16.328125 13.078125 15.839844 13.078125 C 15.839844 14.980469 15.839844 16.882812 15.839844 18.839844 C 17.265625 18.839844 18.691406 18.839844 20.160156 18.839844 C 20.160156 14.046875 20.160156 9.257812 20.160156 4.320312 C 20.199219 4.320312 20.238281 4.320312 20.28125 4.320312 C 20.28125 9.152344 20.28125 13.980469 20.28125 18.960938 C 18.773438 18.960938 17.269531 18.960938 15.71875 18.960938 C 15.71875 17.019531 15.71875 15.078125 15.71875 13.078125 C 15.324219 13.078125 14.929688 13.078125 14.519531 13.078125 C 14.519531 14.03125 14.519531 14.980469 14.519531 15.960938 C 13.492188 15.960938 12.460938 15.960938 11.398438 15.960938 C 11.398438 15.921875 11.398438 15.878906 11.398438 15.839844 C 12.351562 15.839844 13.300781 15.839844 14.28125 15.839844 C 14.28125 12.988281 14.28125 10.136719 14.28125 7.199219 C 13.804688 7.199219 13.328125 7.199219 12.839844 7.199219 C 12.839844 7.160156 12.839844 7.121094 12.839844 7.078125 C 13.789062 7.078125 14.742188 7.078125 15.71875 7.078125 C 15.71875 6.128906 15.71875 5.179688 15.71875 4.199219 Z M 15.71875 4.199219 "/>
<path style=" stroke:none;fill-rule:nonzero;fill:rgb(6.27451%,1.960784%,1.960784%);fill-opacity:1;" d="M 9.960938 13.078125 C 10.433594 13.078125 10.910156 13.078125 11.398438 13.078125 C 11.398438 14.03125 11.398438 14.980469 11.398438 15.960938 C 10.925781 15.960938 10.449219 15.960938 9.960938 15.960938 C 9.960938 15.007812 9.960938 14.058594 9.960938 13.078125 Z M 9.960938 13.078125 "/>
<path style=" stroke:none;fill-rule:nonzero;fill:rgb(2.352941%,0.784314%,0%);fill-opacity:1;" d="M 12.839844 7.199219 C 13.316406 7.199219 13.789062 7.199219 14.28125 7.199219 C 14.28125 8.152344 14.28125 9.101562 14.28125 10.078125 C 13.804688 10.078125 13.328125 10.078125 12.839844 10.078125 C 12.839844 9.128906 12.839844 8.179688 12.839844 7.199219 Z M 12.839844 7.199219 "/>
<path style=" stroke:none;fill-rule:nonzero;fill:rgb(3.921569%,2.352941%,0%);fill-opacity:1;" d="M 15.839844 4.320312 C 16.316406 4.320312 16.789062 4.320312 17.28125 4.320312 C 17.28125 5.269531 17.28125 6.222656 17.28125 7.199219 C 16.804688 7.199219 16.328125 7.199219 15.839844 7.199219 C 15.839844 6.25 15.839844 5.300781 15.839844 4.320312 Z M 15.839844 4.320312 "/>
<path style=" stroke:none;fill-rule:nonzero;fill:rgb(87.058824%,55.686275%,41.176471%);fill-opacity:1;" d="M 8.398438 12.839844 C 9.3125 12.839844 10.222656 12.839844 11.160156 12.839844 C 11.199219 12.917969 11.238281 13 11.28125 13.078125 C 10.84375 13.078125 10.410156 13.078125 9.960938 13.078125 C 9.960938 14.03125 9.960938 14.980469 9.960938 15.960938 C 9.921875 15.960938 9.878906 15.960938 9.839844 15.960938 C 9.839844 15.007812 9.839844 14.058594 9.839844 13.078125 C 9.40625 13.078125 8.96875 13.078125 8.519531 13.078125 C 8.519531 14.980469 8.519531 16.882812 8.519531 18.839844 C 8.480469 18.839844 8.441406 18.839844 8.398438 18.839844 C 8.398438 16.859375 8.398438 14.878906 8.398438 12.839844 Z M 8.398438 12.839844 "/>
<path style=" stroke:none;fill-rule:nonzero;fill:rgb(99.607843%,23.137255%,7.843137%);fill-opacity:1;" d="M 20.160156 15.71875 C 20.160156 15.800781 20.160156 15.878906 20.160156 15.960938 C 19.25 15.960938 18.339844 15.960938 17.398438 15.960938 C 17.398438 15.921875 17.398438 15.878906 17.398438 15.839844 C 17.816406 15.796875 18.230469 15.753906 18.644531 15.710938 C 18.824219 15.695312 18.824219 15.695312 19.003906 15.675781 C 19.117188 15.664062 19.230469 15.652344 19.34375 15.640625 C 19.449219 15.628906 19.554688 15.621094 19.660156 15.609375 C 19.921875 15.601562 19.921875 15.601562 20.160156 15.71875 Z M 20.160156 15.71875 "/>
</g>
</svg>