<svg xmlns="http://www.w3.org/2000/svg" xmlns:xlink="http://www.w3.org/1999/xlink" width="800px" height="800px" viewBox="0 0 73 73" version="1.1">
    
    <title>databases-and-servers/databases/mongodb</title>
    <desc>Created with Sketch.</desc>
    <defs>

</defs>
    <g id="databases-and-servers/databases/mongodb" stroke="none" stroke-width="1" fill="none" fill-rule="evenodd">
        <g id="container" transform="translate(2.000000, 2.000000)" fill="#FFFFFF" fill-rule="nonzero" stroke="#134514" stroke-width="2">
            <rect id="mask" x="-1" y="-1" width="71" height="71" rx="14">

</rect>
        </g>
        <g id="Group" transform="translate(25.000000, 11.000000)" fill-rule="nonzero">
            <path d="M12.4944775,50.7282275 L11.1460449,50.2673438 C11.1460449,50.2673438 11.3107227,43.3929395 8.8434082,42.8996191 C7.19912598,40.9915674 9.10717773,-38.0181006 15.0277344,42.6362061 C15.0277344,42.6362061 12.9881543,43.6556396 12.6263623,45.3993701 C12.2314209,47.1099512 12.4944775,50.7282275 12.4944775,50.7282275 Z" id="Shape" fill="#A6A385">

</path>
            <path d="M13.218418,44.0837305 C13.218418,44.0837305 25.0274512,36.320708 22.2639307,20.1698145 C19.5998584,8.42743652 13.3171533,4.57889648 12.6263623,3.0985791 C11.8699854,2.04599609 11.1460449,0.204243164 11.1460449,0.204243164 L11.6397217,32.8667529 C11.6397217,32.8999023 10.6199316,42.8664697 13.2187744,44.0840869" id="Shape" fill="#499D4A">

</path>
            <path d="M10.4556104,44.5111084 C10.4556104,44.5111084 -0.629838867,36.9455566 0.0281591797,23.624126 C0.653007813,10.3023389 8.48161621,3.75657715 9.99472656,2.57246582 C10.9817236,1.51988281 11.0145166,1.12494141 11.080459,0.0723583984 C11.77125,1.55267578 11.6397217,22.209751 11.7381006,24.6435596 C12.0339502,34.0180713 11.2119873,42.7352979 10.4556104,44.5111084 Z" id="Shape" fill="#58AA50">

</path>
        </g>
    </g>
</svg>