<svg xmlns="http://www.w3.org/2000/svg" xmlns:xlink="http://www.w3.org/1999/xlink" width="11px" height="24px" viewBox="0 0 11 23" version="1.1">
<g id="surface1">
<path style=" stroke:none;fill-rule:nonzero;fill:rgb(0%,11.764706%,16.862745%);fill-opacity:1;" d="M 7.542969 2.558594 C 6.554688 1.421875 5.703125 0.25 5.535156 0.0195312 C 5.519531 0 5.492188 0 5.472656 0.0195312 C 5.296875 0.257812 4.445312 1.421875 3.457031 2.570312 C -5.03125 13.136719 4.792969 20.269531 4.792969 20.269531 L 4.875 20.324219 C 4.949219 21.425781 5.132812 23.007812 5.132812 23.007812 L 5.867188 23.007812 C 5.867188 23.007812 6.050781 21.433594 6.125 20.324219 L 6.207031 20.261719 C 6.207031 20.261719 16.03125 13.136719 7.542969 2.558594 Z M 5.5 20.109375 C 5.5 20.109375 5.058594 19.742188 4.941406 19.554688 L 4.941406 19.535156 L 5.472656 8.027344 C 5.472656 7.992188 5.527344 7.992188 5.527344 8.027344 L 6.050781 19.527344 L 6.050781 19.546875 C 5.929688 19.742188 5.5 20.109375 5.5 20.109375 Z M 5.5 20.109375 "/>
</g>
</svg>