<svg xmlns="http://www.w3.org/2000/svg" xmlns:xlink="http://www.w3.org/1999/xlink" width="24px" height="24px" viewBox="0 0 24 24" version="1.1">
<g id="surface1">
<path style=" stroke:none;fill-rule:nonzero;fill:rgb(99.607843%,99.607843%,99.607843%);fill-opacity:1;" d="M 0 0 C 7.921875 0 15.839844 0 24 0 C 24 7.921875 24 15.839844 24 24 C 16.078125 24 8.160156 24 0 24 C 0 16.078125 0 8.160156 0 0 Z M 0 0 "/>
<path style=" stroke:none;fill-rule:nonzero;fill:rgb(20.392157%,64.705882%,45.490196%);fill-opacity:1;" d="M 3.421875 3.960938 C 9.023438 3.960938 14.625 3.960938 20.398438 3.960938 C 20.398438 6.296875 20.398438 8.632812 20.398438 11.039062 C 19.429688 11.039062 18.460938 11.039062 17.460938 11.039062 C 17.460938 9.792969 17.460938 8.546875 17.460938 7.261719 C 16.785156 7.261719 16.113281 7.261719 15.421875 7.261719 C 15.421875 9.160156 15.421875 11.0625 15.421875 13.019531 C 14.878906 12.558594 14.363281 12.085938 13.863281 11.582031 C 13.6875 11.40625 13.511719 11.234375 13.324219 11.074219 C 13.039062 10.832031 12.78125 10.5625 12.519531 10.296875 C 12.332031 10.105469 12.144531 9.925781 11.941406 9.75 C 11.644531 9.496094 11.375 9.21875 11.101562 8.9375 C 10.914062 8.75 10.726562 8.566406 10.523438 8.390625 C 10.140625 8.050781 9.78125 7.683594 9.421875 7.320312 C 8.351562 7.300781 7.28125 7.28125 6.179688 7.261719 C 6.179688 9.753906 6.179688 12.25 6.179688 14.820312 C 6.832031 14.820312 7.488281 14.820312 8.160156 14.820312 C 8.160156 12.859375 8.160156 10.898438 8.160156 8.878906 C 8.199219 8.878906 8.238281 8.878906 8.28125 8.878906 C 8.28125 8.917969 8.28125 8.960938 8.28125 9 C 8.3125 9.015625 8.347656 9.027344 8.382812 9.042969 C 8.546875 9.136719 8.65625 9.246094 8.789062 9.378906 C 8.867188 9.457031 8.867188 9.457031 8.945312 9.535156 C 8.996094 9.589844 9.050781 9.644531 9.105469 9.703125 C 9.421875 10.023438 9.738281 10.34375 10.085938 10.636719 C 10.335938 10.859375 10.566406 11.101562 10.800781 11.34375 C 11.03125 11.578125 11.269531 11.800781 11.523438 12.015625 C 11.5625 12.050781 11.601562 12.085938 11.640625 12.121094 C 11.691406 12.15625 11.742188 12.195312 11.796875 12.234375 C 12.007812 12.507812 11.980469 12.746094 11.972656 13.082031 C 11.972656 13.183594 11.972656 13.183594 11.972656 13.285156 C 11.972656 13.503906 11.972656 13.726562 11.96875 13.945312 C 11.96875 14.097656 11.96875 14.25 11.96875 14.40625 C 11.96875 14.765625 11.964844 15.125 11.960938 15.488281 C 11.957031 15.898438 11.957031 16.3125 11.957031 16.722656 C 11.953125 17.566406 11.945312 18.414062 11.941406 19.261719 C 11.875 19.203125 11.808594 19.148438 11.742188 19.089844 C 11.703125 19.058594 11.667969 19.027344 11.628906 18.996094 C 11.480469 18.863281 11.34375 18.726562 11.203125 18.585938 C 10.949219 18.296875 10.949219 18.296875 10.605469 18.164062 C 10.550781 18.164062 10.496094 18.164062 10.441406 18.164062 C 10.378906 18.164062 10.316406 18.160156 10.253906 18.160156 C 10.183594 18.160156 10.117188 18.160156 10.046875 18.160156 C 9.976562 18.160156 9.902344 18.160156 9.828125 18.160156 C 9.59375 18.15625 9.355469 18.15625 9.121094 18.15625 C 8.976562 18.152344 8.832031 18.152344 8.6875 18.152344 C 8.148438 18.148438 7.609375 18.144531 7.070312 18.140625 C 5.863281 18.136719 4.660156 18.128906 3.421875 18.121094 C 3.421875 13.445312 3.421875 8.773438 3.421875 3.960938 Z M 3.421875 3.960938 "/>
<path style=" stroke:none;fill-rule:nonzero;fill:rgb(55.294118%,77.647059%,24.705882%);fill-opacity:1;" d="M 6.179688 7.261719 C 9.421875 7.261719 9.421875 7.261719 10.191406 7.832031 C 10.425781 8.15625 10.425781 8.15625 10.523438 8.316406 C 10.648438 8.503906 10.800781 8.632812 10.976562 8.777344 C 11.238281 8.992188 11.464844 9.242188 11.699219 9.480469 C 11.933594 9.71875 12.171875 9.9375 12.421875 10.15625 C 12.621094 10.332031 12.804688 10.519531 12.988281 10.710938 C 13.324219 11.050781 13.324219 11.050781 13.679688 11.371094 C 13.96875 11.613281 14.226562 11.882812 14.488281 12.148438 C 14.75 12.414062 15.015625 12.664062 15.300781 12.898438 C 15.320312 12.917969 15.339844 12.941406 15.359375 12.960938 C 15.390625 10.136719 15.390625 10.136719 15.421875 7.261719 C 16.09375 7.261719 16.765625 7.261719 17.460938 7.261719 C 17.460938 8.507812 17.460938 9.753906 17.460938 11.039062 C 18.429688 11.039062 19.402344 11.039062 20.398438 11.039062 C 20.398438 13.375 20.398438 15.710938 20.398438 18.121094 C 18.558594 18.121094 16.71875 18.121094 14.820312 18.121094 C 14.820312 19.386719 14.820312 20.65625 14.820312 21.960938 C 14.351562 21.558594 13.894531 21.160156 13.460938 20.722656 C 13.242188 20.5 13.019531 20.292969 12.78125 20.089844 C 12.574219 19.902344 12.382812 19.703125 12.1875 19.503906 C 12.070312 19.378906 12.070312 19.378906 11.941406 19.320312 C 11.941406 19.285156 11.941406 19.25 11.941406 19.214844 C 11.945312 18.359375 11.949219 17.507812 11.949219 16.652344 C 11.945312 16.238281 11.949219 15.828125 11.949219 15.414062 C 11.953125 15.015625 11.953125 14.617188 11.953125 14.21875 C 11.953125 14.066406 11.953125 13.914062 11.953125 13.761719 C 12.003906 12.945312 12.003906 12.945312 11.75 12.199219 C 11.601562 12.046875 11.457031 11.933594 11.28125 11.820312 C 11.195312 11.75 11.113281 11.675781 11.03125 11.601562 C 10.992188 11.570312 10.957031 11.535156 10.914062 11.503906 C 10.664062 11.28125 10.433594 11.035156 10.199219 10.796875 C 10.007812 10.601562 9.8125 10.410156 9.601562 10.230469 C 9.339844 10.007812 9.097656 9.761719 8.859375 9.515625 C 8.773438 9.433594 8.6875 9.347656 8.605469 9.261719 C 8.566406 9.222656 8.53125 9.1875 8.492188 9.148438 C 8.402344 9.054688 8.402344 9.054688 8.28125 9 C 8.28125 8.960938 8.28125 8.921875 8.28125 8.878906 C 8.242188 8.878906 8.199219 8.878906 8.160156 8.878906 C 8.160156 10.839844 8.160156 12.800781 8.160156 14.820312 C 7.507812 14.820312 6.851562 14.820312 6.179688 14.820312 C 6.179688 12.324219 6.179688 9.832031 6.179688 7.261719 Z M 6.179688 7.261719 "/>
<path style=" stroke:none;fill-rule:nonzero;fill:rgb(21.568627%,36.078431%,57.647059%);fill-opacity:1;" d="M 8.160156 8.878906 C 8.199219 8.878906 8.238281 8.878906 8.28125 8.878906 C 8.28125 8.917969 8.28125 8.960938 8.28125 9 C 8.3125 9.015625 8.347656 9.027344 8.382812 9.042969 C 8.546875 9.136719 8.65625 9.246094 8.789062 9.378906 C 8.867188 9.457031 8.867188 9.457031 8.945312 9.535156 C 8.996094 9.589844 9.050781 9.644531 9.105469 9.703125 C 9.421875 10.023438 9.738281 10.34375 10.085938 10.636719 C 10.335938 10.859375 10.566406 11.101562 10.800781 11.34375 C 11.03125 11.578125 11.269531 11.800781 11.523438 12.015625 C 11.5625 12.050781 11.601562 12.085938 11.640625 12.121094 C 11.71875 12.175781 11.71875 12.175781 11.796875 12.234375 C 12.007812 12.507812 11.980469 12.746094 11.972656 13.082031 C 11.972656 13.183594 11.972656 13.183594 11.972656 13.285156 C 11.972656 13.503906 11.972656 13.726562 11.96875 13.945312 C 11.96875 14.097656 11.96875 14.25 11.96875 14.40625 C 11.96875 14.765625 11.964844 15.125 11.960938 15.488281 C 11.957031 15.898438 11.957031 16.3125 11.957031 16.722656 C 11.953125 17.566406 11.945312 18.414062 11.941406 19.261719 C 11.875 19.203125 11.808594 19.148438 11.742188 19.089844 C 11.703125 19.058594 11.667969 19.027344 11.628906 18.996094 C 11.480469 18.863281 11.34375 18.726562 11.203125 18.585938 C 10.949219 18.296875 10.949219 18.296875 10.605469 18.164062 C 10.550781 18.164062 10.496094 18.164062 10.441406 18.164062 C 10.378906 18.164062 10.316406 18.160156 10.253906 18.160156 C 10.183594 18.160156 10.117188 18.160156 10.046875 18.160156 C 9.976562 18.160156 9.90625 18.160156 9.832031 18.160156 C 9.636719 18.15625 9.441406 18.15625 9.242188 18.15625 C 9.039062 18.15625 8.835938 18.152344 8.628906 18.152344 C 8.242188 18.148438 7.855469 18.148438 7.46875 18.144531 C 6.980469 18.140625 6.496094 18.140625 6.011719 18.136719 C 5.148438 18.128906 4.285156 18.125 3.421875 18.121094 C 3.421875 15.785156 3.421875 13.445312 3.421875 11.039062 C 4.3125 11.039062 5.203125 11.039062 6.121094 11.039062 C 6.121094 12.289062 6.121094 13.535156 6.121094 14.820312 C 6.792969 14.820312 7.464844 14.820312 8.160156 14.820312 C 8.160156 12.859375 8.160156 10.898438 8.160156 8.878906 Z M 8.160156 8.878906 "/>
<path style=" stroke:none;fill-rule:nonzero;fill:rgb(99.607843%,99.607843%,99.607843%);fill-opacity:1;" d="M 6.179688 7.261719 C 9.421875 7.261719 9.421875 7.261719 10.191406 7.832031 C 10.425781 8.15625 10.425781 8.15625 10.523438 8.316406 C 10.648438 8.503906 10.800781 8.632812 10.976562 8.777344 C 11.238281 8.992188 11.464844 9.242188 11.699219 9.480469 C 11.933594 9.71875 12.171875 9.9375 12.421875 10.15625 C 12.621094 10.332031 12.804688 10.519531 12.988281 10.710938 C 13.324219 11.050781 13.324219 11.050781 13.679688 11.371094 C 13.96875 11.613281 14.226562 11.882812 14.488281 12.148438 C 14.75 12.414062 15.015625 12.664062 15.300781 12.898438 C 15.320312 12.917969 15.339844 12.941406 15.359375 12.960938 C 15.390625 10.136719 15.390625 10.136719 15.421875 7.261719 C 16.09375 7.261719 16.765625 7.261719 17.460938 7.261719 C 17.460938 9.753906 17.460938 12.25 17.460938 14.820312 C 14.351562 14.820312 14.351562 14.820312 13.363281 13.847656 C 13.292969 13.777344 13.222656 13.703125 13.152344 13.632812 C 12.933594 13.410156 12.71875 13.195312 12.484375 12.992188 C 12.1875 12.738281 11.914062 12.457031 11.640625 12.175781 C 11.445312 11.980469 11.25 11.789062 11.039062 11.609375 C 10.742188 11.355469 10.472656 11.078125 10.199219 10.796875 C 10.007812 10.601562 9.8125 10.410156 9.601562 10.230469 C 9.339844 10.007812 9.097656 9.761719 8.859375 9.515625 C 8.773438 9.433594 8.6875 9.347656 8.605469 9.261719 C 8.566406 9.222656 8.53125 9.1875 8.492188 9.148438 C 8.402344 9.054688 8.402344 9.054688 8.28125 9 C 8.28125 8.960938 8.28125 8.921875 8.28125 8.878906 C 8.242188 8.878906 8.199219 8.878906 8.160156 8.878906 C 8.160156 10.839844 8.160156 12.800781 8.160156 14.820312 C 7.507812 14.820312 6.851562 14.820312 6.179688 14.820312 C 6.179688 12.324219 6.179688 9.832031 6.179688 7.261719 Z M 6.179688 7.261719 "/>
<path style=" stroke:none;fill-rule:nonzero;fill:rgb(15.686275%,66.666667%,87.843137%);fill-opacity:1;" d="M 3.421875 3.960938 C 6.230469 3.960938 9.042969 3.960938 11.941406 3.960938 C 11.941406 5.859375 11.941406 7.761719 11.941406 9.71875 C 11.65625 9.476562 11.390625 9.238281 11.132812 8.972656 C 10.929688 8.765625 10.726562 8.5625 10.503906 8.375 C 10.125 8.042969 9.777344 7.675781 9.421875 7.320312 C 8.351562 7.300781 7.28125 7.28125 6.179688 7.261719 C 6.179688 9.753906 6.179688 12.25 6.179688 14.820312 C 6.160156 14.820312 6.140625 14.820312 6.121094 14.820312 C 6.121094 13.574219 6.121094 12.324219 6.121094 11.039062 C 5.230469 11.039062 4.339844 11.039062 3.421875 11.039062 C 3.421875 8.703125 3.421875 6.367188 3.421875 3.960938 Z M 3.421875 3.960938 "/>
<path style=" stroke:none;fill-rule:nonzero;fill:rgb(19.607843%,66.27451%,86.666667%);fill-opacity:1;" d="M 8.160156 8.878906 C 8.199219 8.878906 8.238281 8.878906 8.28125 8.878906 C 8.28125 8.917969 8.28125 8.960938 8.28125 9 C 8.332031 9.023438 8.332031 9.023438 8.382812 9.042969 C 8.546875 9.136719 8.65625 9.246094 8.789062 9.378906 C 8.839844 9.429688 8.890625 9.484375 8.945312 9.535156 C 8.996094 9.589844 9.050781 9.644531 9.105469 9.703125 C 9.425781 10.027344 9.742188 10.347656 10.09375 10.640625 C 10.199219 10.738281 10.199219 10.738281 10.441406 11.039062 C 9.707031 11.039062 8.976562 11.039062 8.21875 11.039062 C 8.21875 12.289062 8.21875 13.535156 8.21875 14.820312 C 8.199219 14.820312 8.179688 14.820312 8.160156 14.820312 C 8.160156 12.859375 8.160156 10.898438 8.160156 8.878906 Z M 8.160156 8.878906 "/>
<path style=" stroke:none;fill-rule:nonzero;fill:rgb(55.294118%,77.647059%,24.705882%);fill-opacity:1;" d="M 13.320312 11.039062 C 14.011719 11.039062 14.707031 11.039062 15.421875 11.039062 C 15.421875 11.695312 15.421875 12.347656 15.421875 13.019531 C 14.804688 12.492188 14.222656 11.949219 13.65625 11.375 C 13.542969 11.261719 13.433594 11.152344 13.320312 11.039062 Z M 13.320312 11.039062 "/>
</g>
</svg>