<svg xmlns="http://www.w3.org/2000/svg" viewBox="0 0 128 128"><g fill="#D82C20"><path d="M6.2 52.7c6.7 3.2 43.7 18.1 49.5 20.9 5.8 2.8 10 2.8 17.4-1 7.4-3.9 42.2-18.1 48.9-21.6 3.4-1.8 4.9-3.2 4.9-4.4v-12.5c0-1.3-1.7-2.4-5-3.6-6.5-2.4-41.1-16.1-47.7-18.6-6.6-2.4-9.3-2.3-17.1.5-7.8 2.8-44.5 17.2-51.1 19.8-3.2 1.3-5 2.4-5 3.7h-.2v12.7c.2 1.2 2.1 2.5 5.4 4.1zm60.4 1.8l-20.3-8.4 29.1-4.5-8.8 12.9zm44.1-20l-17.2 6.8-1.9.7-17.2-6.8 19.1-7.5 17.2 6.8zm-50.6-12.5l-2.8-5.2 8.8 3.4 8.3-2.7-2.2 5.4 8.4 3.2-10.9 1.1-2.4 5.9-3.9-6.5-12.6-1.1 9.3-3.5zm-21.7 7.3c8.6 0 15.6 2.7 15.6 6s-7 6-15.6 6-15.6-2.7-15.6-6 7-6 15.6-6zM122 59.8c-6.7 3.5-41.4 17.8-48.8 21.6-7.4 3.9-11.5 3.8-17.3 1-5.8-2.8-43-17.7-49.6-20.9-3.4-1.6-5.3-2.9-5.3-4.2v12.7c0 1.3 1.9 2.6 5.2 4.2 6.7 3.2 43.7 18.1 49.5 20.9 5.8 2.8 10 2.8 17.4-1 7.4-3.9 42.2-18.1 48.9-21.6 3.4-1.8 4.9-3.2 4.9-4.4v-12.5c0 1.1-1.6 2.5-4.9 4.2zM122 80.5c-6.7 3.5-41.4 17.8-48.8 21.6-7.4 3.9-11.5 3.8-17.3 1-5.8-2.8-43-17.7-49.6-20.9-3.4-1.5-5.3-2.9-5.3-4.2v12.7c0 1.3 1.9 2.6 5.2 4.2 6.7 3.2 43.7 18.1 49.5 20.9 5.8 2.8 10 2.8 17.4-1 7.4-3.9 42.2-18.1 48.9-21.6 3.4-1.8 4.9-3.2 4.9-4.4v-12.5c0 1.2-1.6 2.5-4.9 4.2z"/></g></svg>