<svg xmlns="http://www.w3.org/2000/svg" xmlns:xlink="http://www.w3.org/1999/xlink" width="24px" height="24px" viewBox="0 0 24 23" version="1.1">
<g id="surface1">
<path style=" stroke:none;fill-rule:nonzero;fill:rgb(0%,0%,0%);fill-opacity:1;" d="M 12.039062 11.632812 C 6.136719 11.632812 1.75 9.582031 1.75 6.84375 C 1.75 4.101562 6.175781 2.050781 12.039062 2.050781 C 17.902344 2.050781 22.328125 4.109375 22.328125 6.84375 C 22.328125 9.574219 17.941406 11.632812 12.039062 11.632812 Z M 12.039062 3.496094 C 6.847656 3.496094 3.1875 5.261719 3.1875 6.851562 C 3.1875 8.441406 6.804688 10.195312 12.039062 10.195312 C 17.273438 10.195312 20.890625 8.433594 20.890625 6.851562 C 20.890625 5.269531 17.234375 3.496094 12.039062 3.496094 Z M 12.039062 3.496094 "/>
<path style=" stroke:none;fill-rule:nonzero;fill:rgb(0%,0%,0%);fill-opacity:1;" d="M 12.039062 16.292969 C 9.179688 16.386719 6.347656 15.746094 3.828125 14.433594 C 3.25 14.160156 2.753906 13.746094 2.390625 13.234375 C 2.027344 12.71875 1.804688 12.121094 1.75 11.5 C 1.808594 10.875 2.03125 10.277344 2.394531 9.761719 C 2.761719 9.246094 3.257812 8.832031 3.835938 8.558594 C 4 8.46875 4.195312 8.445312 4.375 8.492188 C 4.558594 8.535156 4.714844 8.644531 4.820312 8.796875 C 4.914062 8.957031 4.941406 9.144531 4.898438 9.324219 C 4.851562 9.5 4.742188 9.65625 4.582031 9.753906 C 3.71875 10.320312 3.1875 10.925781 3.1875 11.5 C 3.1875 12.074219 3.679688 12.679688 4.574219 13.214844 C 6.871094 14.390625 9.445312 14.957031 12.039062 14.855469 C 14.621094 14.949219 17.179688 14.386719 19.464844 13.214844 C 20.359375 12.679688 20.890625 12.074219 20.890625 11.5 C 20.890625 10.925781 20.398438 10.320312 19.503906 9.785156 C 19.347656 9.683594 19.234375 9.527344 19.191406 9.351562 C 19.148438 9.171875 19.175781 8.984375 19.269531 8.828125 C 19.371094 8.671875 19.53125 8.5625 19.710938 8.519531 C 19.894531 8.476562 20.085938 8.5 20.253906 8.585938 C 20.824219 8.859375 21.316406 9.269531 21.679688 9.777344 C 22.042969 10.289062 22.265625 10.882812 22.328125 11.5 C 22.269531 12.125 22.050781 12.722656 21.683594 13.238281 C 21.316406 13.753906 20.820312 14.167969 20.242188 14.441406 C 17.722656 15.746094 14.894531 16.386719 12.039062 16.292969 Z M 12.039062 16.292969 "/>
<path style=" stroke:none;fill-rule:nonzero;fill:rgb(0%,0%,0%);fill-opacity:1;" d="M 12.039062 20.941406 C 6.136719 20.941406 1.75 18.878906 1.75 16.148438 C 1.808594 15.523438 2.03125 14.929688 2.398438 14.414062 C 2.761719 13.898438 3.257812 13.488281 3.835938 13.214844 C 4 13.125 4.191406 13.097656 4.375 13.140625 C 4.558594 13.183594 4.714844 13.292969 4.820312 13.445312 C 4.910156 13.605469 4.9375 13.792969 4.894531 13.96875 C 4.847656 14.148438 4.738281 14.300781 4.582031 14.402344 C 3.71875 14.96875 3.1875 15.582031 3.1875 16.148438 C 3.1875 17.738281 6.804688 19.503906 12.039062 19.503906 C 17.273438 19.503906 20.890625 17.738281 20.890625 16.148438 C 20.890625 15.582031 20.398438 14.96875 19.503906 14.441406 C 19.347656 14.339844 19.238281 14.183594 19.195312 14.007812 C 19.152344 13.832031 19.179688 13.644531 19.269531 13.484375 C 19.371094 13.332031 19.53125 13.222656 19.714844 13.179688 C 19.898438 13.136719 20.089844 13.164062 20.253906 13.253906 C 20.832031 13.527344 21.324219 13.9375 21.691406 14.453125 C 22.058594 14.964844 22.28125 15.5625 22.335938 16.1875 C 22.328125 18.878906 17.941406 20.941406 12.039062 20.941406 Z M 12.039062 20.941406 "/>
</g>
</svg>