<svg width="21" height="29" viewBox="0 0 21 29" fill="none" xmlns="http://www.w3.org/2000/svg">
<path fill-rule="evenodd" clip-rule="evenodd" d="M20.1102 9.63609V4.62616C20.1102 3.60013 19.555 2.63568 18.6618 2.10947C17.3245 1.3214 14.4278 0 10.0551 0C5.68238 0 2.78568 1.3214 1.44835 2.10947C0.555124 2.63568 0 3.60013 0 4.62616V12.1499L15.9205 16.7584V20.1101C15.9205 20.5638 15.6356 20.8818 15.1513 21.1181L10.0551 23.6713L4.93243 21.1051C4.47451 20.8818 4.18962 20.5638 4.18962 20.1101V17.5963L0 16.3395V20.1101C0 22.1802 1.18734 23.9415 3.07266 24.859L10.0551 28.4893L17.0115 24.872C18.9228 23.9415 20.1102 22.1802 20.1102 20.1101V13.8257L4.18962 9.21713V5.3916C5.3271 4.84276 7.26647 4.18961 10.0551 4.18961C12.8437 4.18961 14.7831 4.84276 15.9205 5.3916V8.37921L20.1102 9.63609Z" fill="#008EFF"/>
</svg>
 