<svg xmlns="http://www.w3.org/2000/svg" width="24" height="24" viewBox="0 0 72 56">
    <g fill="#364A68" fill-rule="evenodd">
        <path d="M59.47 55.38l-1.64-2.84 10.34-6V9.42l-10.7-6.18L59.11.4l11.52 6.65c.506.294.818.835.82 1.42v39.05a1.65 1.65 0 0 1-.82 1.42l-11.16 6.44zM12.25 55.24l-10.9-6.3a1.63 1.63 0 0 1-.82-1.42v-39a1.63 1.63 0 0 1 .82-1.42L12.5.61l1.64 2.84-10.33 6v37.12l10.08 5.83-1.64 2.84z"/>
        <path d="M13.68 27.65v12.88l11.15 6.44 11.16-6.44 11.15 6.44 11.15-6.44V27.65l-11.15-6.44v12.88l-11.15-6.44-11.16 6.44V21.21z"/>
    </g>
</svg>
