<?xml version="1.0" encoding="UTF-8" standalone="no"?>
<svg
   viewBox="0 0 527.71606 511.26416"
   version="1.1"
   id="svg11"
   sodipodi:docname="osi.svg"
   inkscape:version="1.1.2 (b8e25be8, 2022-02-05)"
   width="527.71606"
   height="511.26416"
   xmlns:inkscape="http://www.inkscape.org/namespaces/inkscape"
   xmlns:sodipodi="http://sodipodi.sourceforge.net/DTD/sodipodi-0.dtd"
   xmlns="http://www.w3.org/2000/svg"
   xmlns:svg="http://www.w3.org/2000/svg">
  <defs
     id="defs15" />
  <sodipodi:namedview
     id="namedview13"
     pagecolor="#ffffff"
     bordercolor="#666666"
     borderopacity="1.0"
     inkscape:pageshadow="2"
     inkscape:pageopacity="0.0"
     inkscape:pagecheckerboard="0"
     showgrid="false"
     inkscape:zoom="1.375"
     inkscape:cx="263.63636"
     inkscape:cy="256"
     inkscape:window-width="1590"
     inkscape:window-height="932"
     inkscape:window-x="2294"
     inkscape:window-y="163"
     inkscape:window-maximized="0"
     inkscape:current-layer="svg11" />
  <!--! Font Awesome Pro 6.1.1 by @fontawesome - https://fontawesome.com License - https://fontawesome.com/license (Commercial License) Copyright 2022 Fonticons, Inc. -->
  <path
     id="path9"
     d="M 261.7368,0.00938184 C 225.7393,0.40766476 189.73612,7.801475 156.78739,22.394658 118.14435,39.400007 83.721518,65.95746 57.627778,99.162482 35.097016,127.72932 18.67347,161.03968 9.4660453,196.22604 3.3826417,219.3003 0.1639423,243.13665 0,267.00019 c 0.3686427,8.14677 1.0353836,16.27811 1.7836765,24.39787 1.6978157,16.86159 4.9240938,33.58695 9.9706745,49.77358 10.103254,32.77049 26.806754,63.44917 48.548857,89.94712 27.482186,33.38935 63.228382,60.04479 103.350142,76.27649 2.68606,1.04166 5.35067,2.17557 8.1242,2.96345 7.74877,2.01502 16.50394,0.69732 22.90483,-4.25908 5.18721,-3.89979 8.47851,-9.78783 10.4718,-15.86289 17.82252,-46.45891 35.69607,-92.89773 53.42381,-139.39089 2.16771,-6.42371 2.72281,-13.67134 0.15686,-20.06692 -2.62932,-6.5972 -8.25574,-11.59005 -14.52344,-14.68164 -3.41936,-1.64856 -6.9963,-3.39591 -10.13476,-5.33594 -11.52774,-7.1805 -20.4048,-18.68513 -23.9591,-31.83708 -3.9126,-14.24137 -2.21493,-30.01986 5.00011,-42.94612 0.20473,-0.3349 0.56592,-0.99806 0.80113,-1.3733 2.78774,-4.61136 6.25166,-8.81369 10.23989,-12.43725 0.27446,-0.24331 0.83115,-0.751 1.23122,-1.08606 8.57478,-7.41441 19.48428,-12.03617 30.76195,-13.12417 6.7173,-0.68445 13.55447,-0.18448 20.09667,1.48953 0.47466,0.12083 1.29126,0.34249 1.88868,0.51918 2.4257,0.71949 4.80475,1.59645 7.11132,2.63707 0.4062,0.19349 1.14901,0.53207 1.67561,0.7989 11.78497,5.8127 21.42923,15.9055 26.50461,28.04559 0.4572,1.08104 0.7951,1.94852 1.19336,3.06594 1.46945,4.13049 2.47245,8.43259 2.9272,12.79464 0.091,0.8796 0.18381,2.04273 0.22877,3.03601 0.39741,8.90472 -1.22763,17.89817 -4.67412,26.11599 -1.64873,3.86631 -3.75079,7.5426 -6.29684,10.88902 -0.20017,0.25238 -0.69543,0.90235 -1.03039,1.29845 -6.10867,7.46127 -14.30347,12.95633 -23.03816,16.89349 -4.95194,2.32246 -9.6275,5.56175 -12.75762,10.12447 -3.90173,5.51285 -5.43071,12.59247 -4.25173,19.23433 0.98377,6.08761 3.74996,11.66266 5.82776,17.41558 16.88669,43.92918 33.70423,87.8854 50.7118,131.76713 2.83714,6.43796 7.7024,12.25924 14.26187,15.09152 6.71901,2.92641 14.51396,2.47111 21.28006,-0.0557 22.00936,-8.61659 42.79029,-20.3131 61.75164,-34.41136 29.93396,-22.29914 55.18532,-50.91931 73.28157,-83.58466 17.83584,-32.02569 28.83312,-67.85056 31.9103,-104.38439 4.3702,-50.99905 -6.21102,-103.26013 -30.53789,-148.33189 C 473.91178,96.92736 440.35325,61.512268 399.91388,37.329754 368.96702,18.715645 334.11401,6.619378 298.27537,2.1375063 286.16354,0.59472093 273.94545,-0.0897196 261.7368,0.00938184 Z m 3.4375,52.83789016 c 3.46032,0.03538 6.7766,0.110459 10.22462,0.288472 7.01051,0.339429 14.25185,1.054269 21.34179,2.104106 2.36422,0.360585 4.90761,0.776551 7.32814,1.233141 3.78469,0.700312 7.36705,1.472083 11.1367,2.380141 0.91017,0.227611 2.08076,0.512588 3.01297,0.759541 1.86392,0.477584 3.5487,0.94029 5.41281,1.467021 14.83239,4.264225 29.18345,10.193223 42.69336,17.654297 1.4279,0.79104 3.03911,1.705979 4.5225,2.57029 19.57258,11.428595 37.21826,26.117269 52.08545,43.219799 1.76535,2.01288 3.47062,4.0774 5.16354,6.15132 0.53392,0.66691 1.24327,1.56681 1.84458,2.32321 13.89886,17.72564 24.93075,37.68812 32.57339,58.87601 0.37648,1.08815 0.86179,2.40731 1.25402,3.59571 4.9448,14.54241 8.28772,29.62776 9.9452,44.89843 0.19487,1.88218 0.40278,3.96299 0.55392,5.92859 0.6618,8.03227 0.89909,16.26074 0.70059,24.38225 -0.0707,2.77273 -0.20967,5.76635 -0.40247,8.62328 -1.20404,18.09458 -4.82455,35.9688 -10.83931,53.09993 -2.21085,6.3424 -4.75431,12.56755 -7.58695,18.65736 -0.53489,1.11874 -1.16477,2.46905 -1.75774,3.66644 -1.37523,2.82551 -2.9036,5.74867 -4.34383,8.42926 -6.8739,12.64336 -14.94908,24.63183 -24.07421,35.75977 -1.2025,1.44322 -2.53734,3.03939 -3.8321,4.50724 -6.0942,6.97509 -12.68579,13.51423 -19.69134,19.57283 -6.01777,5.18624 -12.48465,10.14295 -19.12252,14.64006 -1.68697,1.14562 -3.32873,2.22957 -5.08518,3.34521 -4.7315,3.02711 -9.59115,5.85144 -14.54035,8.50692 -12.36219,-32.36099 -24.78126,-64.69974 -37.26562,-97.01367 14.8808,-10.44362 27.50696,-24.38032 35.3896,-40.83719 8.50712,-17.60238 12.13632,-37.48085 10.73355,-56.96183 -1.75971,-23.1294 -11.19804,-45.6312 -26.61839,-62.97918 -13.89706,-15.72832 -32.44197,-27.24646 -52.65168,-32.87594 -18.88841,-5.32069 -39.24631,-5.51562 -58.15615,-0.18525 -18.78619,5.20975 -36.06411,15.63287 -49.53177,29.71743 -12.92276,13.35538 -22.57143,30.01486 -26.95423,48.12391 -3.59783,14.79654 -3.86703,30.2971 -1.59235,45.31869 2.39064,15.18994 8.01865,29.93041 16.85212,42.55241 7.51916,10.86301 17.09298,20.24562 27.85547,27.88086 -12.44899,32.34903 -24.85942,64.71254 -37.24024,97.08789 -4.28685,-2.37114 -8.62095,-4.95179 -12.6582,-7.51563 -9.23088,-5.86917 -18.12094,-12.44111 -26.37109,-19.53906 -22.33301,-19.16717 -40.721447,-42.99099 -53.197919,-69.66911 -1.507037,-3.21678 -2.928659,-6.4732 -4.274742,-9.76058 -0.350809,-0.8935 -0.812808,-2.04448 -1.206337,-3.0369 -7.78276,-19.98303 -12.231659,-41.23555 -13.311241,-62.64669 -0.220369,-4.97932 -0.631703,-10.04853 -0.592523,-15.00165 0.06393,-3.002 0.209551,-6.19586 0.39721,-9.17609 0.88649,-14.04085 3.044572,-28.00521 6.515625,-41.64062 1.992683,-7.81102 4.456358,-15.66758 7.330078,-23.26563 3.573222,-9.47121 7.889267,-18.82421 12.830654,-27.72632 0.941084,-1.68849 1.897891,-3.36523 2.831456,-4.94946 1.26254,-2.10872 2.462303,-4.10223 3.804049,-6.18591 14.53816,-22.8147 33.53318,-42.78523 55.65836,-58.360825 2.0487,-1.437685 4.29187,-2.968144 6.46156,-4.375105 5.84754,-3.813008 12.00237,-7.369279 18.13658,-10.5391 6.85102,-3.525434 14.03397,-6.72775 21.14648,-9.439453 3.37527,-1.280037 6.74963,-2.462823 10.11031,-3.544838 5.6503,-1.814996 11.57644,-3.443501 17.44426,-4.765738 3.93686,-0.893673 7.77361,-1.641687 11.76242,-2.305909 2.79316,-0.465215 5.52059,-0.863297 8.36371,-1.213932 6.03674,-0.762568 12.30205,-1.271274 18.48459,-1.562898 1.34398,-0.05839 2.9345,-0.126549 4.31029,-0.151955 2.22865,-0.04698 4.45745,-0.07858 6.68653,-0.09535 z" />
</svg>
