<?xml version="1.0" standalone="yes"?>

<svg version="1.1" viewBox="0.0 0.0 1024.0 768.0" fill="none" stroke="none" stroke-linecap="square" stroke-miterlimit="10" xmlns="http://www.w3.org/2000/svg" xmlns:xlink="http://www.w3.org/1999/xlink"><clipPath id="p.0"><path d="m0 0l1024.0 0l0 768.0l-1024.0 0l0 -768.0z" clip-rule="nonzero"></path></clipPath><g clip-path="url(#p.0)"><path fill="#000000" fill-opacity="0.0" d="m0 0l1024.0 0l0 768.0l-1024.0 0z" fill-rule="evenodd"></path><path fill="#666666" d="m114.99213 188.99213l0 0c0 -23.743896 33.800735 -42.992126 75.49606 -42.992126l0 0c41.695328 0 75.49606 19.24823 75.49606 42.992126l0 0c0 23.743896 -33.800735 42.992126 -75.49606 42.992126l0 0c-41.695328 0 -75.49606 -19.24823 -75.49606 -42.992126z" fill-rule="evenodd"></path><path stroke="#000000" stroke-width="1.0" stroke-linejoin="round" stroke-linecap="butt" d="m114.99213 188.99213l0 0c0 -23.743896 33.800735 -42.992126 75.49606 -42.992126l0 0c41.695328 0 75.49606 19.24823 75.49606 42.992126l0 0c0 23.743896 -33.800735 42.992126 -75.49606 42.992126l0 0c-41.695328 0 -75.49606 -19.24823 -75.49606 -42.992126z" fill-rule="evenodd"></path><path fill="#ffffff" d="m153.58975 190.71526l1.6875 -0.15625q0.15625 0.84375 0.609375 1.25q0.46875 0.390625 1.265625 0.390625q0.828125 0 1.25 -0.34375q0.4375 -0.359375 0.4375 -0.84375q0 -0.296875 -0.1875 -0.515625q-0.171875 -0.21875 -0.625 -0.375q-0.296875 -0.109375 -1.375 -0.375q-1.40625 -0.34375 -1.96875 -0.84375q-0.78125 -0.71875 -0.78125 -1.734375q0 -0.65625 0.359375 -1.21875q0.375 -0.578125 1.078125 -0.875q0.703125 -0.296875 1.6875 -0.296875q1.625 0 2.4375 0.71875q0.8125 0.703125 0.859375 1.875l-1.734375 0.078125q-0.109375 -0.65625 -0.484375 -0.9375q-0.359375 -0.296875 -1.09375 -0.296875q-0.75 0 -1.1875 0.3125q-0.265625 0.1875 -0.265625 0.53125q0 0.296875 0.25 0.515625q0.328125 0.28125 1.59375 0.578125q1.265625 0.296875 1.875 0.625q0.609375 0.3125 0.953125 0.875q0.34375 0.546875 0.34375 1.359375q0 0.734375 -0.421875 1.390625q-0.40625 0.640625 -1.15625 0.953125q-0.75 0.3125 -1.859375 0.3125q-1.640625 0 -2.515625 -0.75q-0.859375 -0.765625 -1.03125 -2.203125zm13.941406 -0.359375l1.671875 0.53125q-0.375 1.40625 -1.28125 2.09375q-0.90625 0.671875 -2.28125 0.671875q-1.71875 0 -2.828125 -1.15625q-1.09375 -1.171875 -1.09375 -3.203125q0 -2.140625 1.109375 -3.328125q1.109375 -1.1875 2.921875 -1.1875q1.578125 0 2.5625 0.921875q0.578125 0.5625 0.875 1.59375l-1.71875 0.40625q-0.15625 -0.671875 -0.640625 -1.046875q-0.484375 -0.390625 -1.171875 -0.390625q-0.953125 0 -1.546875 0.6875q-0.59375 0.671875 -0.59375 2.21875q0 1.625 0.578125 2.3125q0.59375 0.6875 1.53125 0.6875q0.6875 0 1.1875 -0.4375q0.5 -0.4375 0.71875 -1.375zm3.1660156 3.15625l0 -8.59375l1.734375 0l0 3.390625l3.40625 0l0 -3.390625l1.734375 0l0 8.59375l-1.734375 0l0 -3.75l-3.40625 0l0 3.75l-1.734375 0zm8.666016 0l0 -8.59375l6.375 0l0 1.453125l-4.640625 0l0 1.90625l4.3125 0l0 1.453125l-4.3125 0l0 2.328125l4.796875 0l0 1.453125l-6.53125 0zm8.003906 -8.59375l3.15625 0q1.078125 0 1.640625 0.171875q0.75 0.21875 1.28125 0.796875q0.546875 0.5625 0.828125 1.390625q0.28125 0.8125 0.28125 2.015625q0 1.0625 -0.25 1.828125q-0.328125 0.9375 -0.921875 1.515625q-0.453125 0.453125 -1.21875 0.6875q-0.578125 0.1875 -1.546875 0.1875l-3.25 0l0 -8.59375zm1.734375 1.453125l0 5.6875l1.28125 0q0.734375 0 1.0625 -0.078125q0.421875 -0.109375 0.6875 -0.359375q0.28125 -0.25 0.453125 -0.828125q0.1875 -0.578125 0.1875 -1.578125q0 -0.984375 -0.1875 -1.515625q-0.171875 -0.546875 -0.484375 -0.84375q-0.3125 -0.296875 -0.796875 -0.40625q-0.375 -0.078125 -1.4375 -0.078125l-0.765625 0zm6.9160156 -1.453125l1.734375 0l0 4.65625q0 1.109375 0.0625 1.4375q0.109375 0.53125 0.53125 0.84375q0.421875 0.3125 1.15625 0.3125q0.734375 0 1.109375 -0.296875q0.375 -0.296875 0.453125 -0.734375q0.078125 -0.4375 0.078125 -1.46875l0 -4.75l1.734375 0l0 4.515625q0 1.546875 -0.140625 2.1875q-0.140625 0.640625 -0.53125 1.078125q-0.375 0.4375 -1.015625 0.703125q-0.625 0.25 -1.640625 0.25q-1.234375 0 -1.875 -0.28125q-0.625 -0.28125 -1.0 -0.734375q-0.359375 -0.453125 -0.484375 -0.953125q-0.171875 -0.734375 -0.171875 -2.1875l0 -4.578125zm8.728516 8.59375l0 -8.515625l1.734375 0l0 7.0625l4.3125 0l0 1.453125l-6.046875 0zm7.283203 0l0 -8.59375l6.375 0l0 1.453125l-4.640625 0l0 1.90625l4.3125 0l0 1.453125l-4.3125 0l0 2.328125l4.796875 0l0 1.453125l-6.53125 0zm8.003906 -8.59375l3.15625 0q1.078125 0 1.640625 0.171875q0.75 0.21875 1.28125 0.796875q0.546875 0.5625 0.828125 1.390625q0.28125 0.8125 0.28125 2.015625q0 1.0625 -0.25 1.828125q-0.328125 0.9375 -0.921875 1.515625q-0.453125 0.453125 -1.21875 0.6875q-0.578125 0.1875 -1.546875 0.1875l-3.25 0l0 -8.59375zm1.734375 1.453125l0 5.6875l1.28125 0q0.734375 0 1.0625 -0.078125q0.421875 -0.109375 0.6875 -0.359375q0.28125 -0.25 0.453125 -0.828125q0.1875 -0.578125 0.1875 -1.578125q0 -0.984375 -0.1875 -1.515625q-0.171875 -0.546875 -0.484375 -0.84375q-0.3125 -0.296875 -0.796875 -0.40625q-0.375 -0.078125 -1.4375 -0.078125l-0.765625 0z" fill-rule="nonzero"></path><path fill="#ff9900" d="m320.0 188.99213l0 0c0 -23.743896 33.80075 -42.992126 75.49606 -42.992126l0 0c41.695312 0 75.49606 19.24823 75.49606 42.992126l0 0c0 23.743896 -33.80075 42.992126 -75.49606 42.992126l0 0c-41.695312 0 -75.49606 -19.24823 -75.49606 -42.992126z" fill-rule="evenodd"></path><path stroke="#000000" stroke-width="1.0" stroke-linejoin="round" stroke-linecap="butt" d="m320.0 188.99213l0 0c0 -23.743896 33.80075 -42.992126 75.49606 -42.992126l0 0c41.695312 0 75.49606 19.24823 75.49606 42.992126l0 0c0 23.743896 -33.80075 42.992126 -75.49606 42.992126l0 0c-41.695312 0 -75.49606 -19.24823 -75.49606 -42.992126z" fill-rule="evenodd"></path><path fill="#ffffff" d="m352.97946 193.51213l0 -8.59375l1.734375 0l0 8.59375l-1.734375 0zm3.3964844 0l0 -8.59375l1.6875 0l3.515625 5.734375l0 -5.734375l1.609375 0l0 8.59375l-1.734375 0l-3.46875 -5.609375l0 5.609375l-1.609375 0zm7.6660156 2.375l0 -1.0625l6.84375 0l0 1.0625l-6.84375 0zm7.658203 -2.375l0 -8.59375l2.78125 0q1.578125 0 2.0625 0.125q0.734375 0.203125 1.234375 0.859375q0.5 0.640625 0.5 1.65625q0 0.796875 -0.296875 1.34375q-0.28125 0.53125 -0.71875 0.84375q-0.4375 0.296875 -0.90625 0.40625q-0.609375 0.125 -1.796875 0.125l-1.125 0l0 3.234375l-1.734375 0zm1.734375 -7.140625l0 2.4375l0.953125 0q1.015625 0 1.359375 -0.125q0.359375 -0.140625 0.546875 -0.421875q0.203125 -0.296875 0.203125 -0.671875q0 -0.46875 -0.28125 -0.765625q-0.28125 -0.3125 -0.703125 -0.390625q-0.296875 -0.0625 -1.234375 -0.0625l-0.84375 0zm6.2695312 7.140625l0 -8.59375l3.65625 0q1.375 0 2.0 0.234375q0.625 0.234375 1.0 0.828125q0.375 0.59375 0.375 1.34375q0 0.96875 -0.578125 1.609375q-0.5625 0.625 -1.6875 0.78125q0.5625 0.328125 0.921875 0.734375q0.375 0.390625 0.984375 1.390625l1.0625 1.671875l-2.078125 0l-1.25 -1.875q-0.671875 -1.0 -0.921875 -1.25q-0.25 -0.265625 -0.53125 -0.359375q-0.265625 -0.109375 -0.859375 -0.109375l-0.359375 0l0 3.59375l-1.734375 0zm1.734375 -4.953125l1.28125 0q1.25 0 1.5625 -0.109375q0.3125 -0.109375 0.484375 -0.359375q0.1875 -0.265625 0.1875 -0.65625q0 -0.421875 -0.234375 -0.6875q-0.234375 -0.265625 -0.65625 -0.34375q-0.21875 -0.03125 -1.265625 -0.03125l-1.359375 0l0 2.1875zm6.5722656 0.703125q0 -1.3125 0.40625 -2.203125q0.28125 -0.65625 0.78125 -1.171875q0.515625 -0.515625 1.125 -0.765625q0.796875 -0.34375 1.84375 -0.34375q1.90625 0 3.046875 1.1875q1.140625 1.171875 1.140625 3.265625q0 2.078125 -1.140625 3.25q-1.125 1.171875 -3.015625 1.171875q-1.921875 0 -3.0625 -1.15625q-1.125 -1.171875 -1.125 -3.234375zm1.796875 -0.046875q0 1.453125 0.671875 2.203125q0.671875 0.75 1.703125 0.75q1.046875 0 1.703125 -0.734375q0.671875 -0.75 0.671875 -2.25q0 -1.46875 -0.65625 -2.1875q-0.640625 -0.734375 -1.71875 -0.734375q-1.0625 0 -1.71875 0.734375q-0.65625 0.734375 -0.65625 2.21875zm11.896484 1.140625l0 -1.453125l3.734375 0l0 3.421875q-0.546875 0.53125 -1.578125 0.9375q-1.03125 0.390625 -2.09375 0.390625q-1.34375 0 -2.359375 -0.5625q-1.0 -0.5625 -1.5 -1.609375q-0.5 -1.0625 -0.5 -2.296875q0 -1.34375 0.5625 -2.375q0.5625 -1.046875 1.640625 -1.609375q0.828125 -0.421875 2.0625 -0.421875q1.59375 0 2.484375 0.671875q0.90625 0.671875 1.171875 1.84375l-1.71875 0.328125q-0.1875 -0.625 -0.6875 -0.984375q-0.5 -0.375 -1.25 -0.375q-1.140625 0 -1.8125 0.71875q-0.671875 0.71875 -0.671875 2.140625q0 1.53125 0.671875 2.296875q0.6875 0.75 1.796875 0.75q0.546875 0 1.09375 -0.203125q0.546875 -0.21875 0.9375 -0.515625l0 -1.09375l-1.984375 0zm5.3339844 3.15625l0 -8.59375l3.65625 0q1.375 0 2.0 0.234375q0.625 0.234375 1.0 0.828125q0.375 0.59375 0.375 1.34375q0 0.96875 -0.578125 1.609375q-0.5625 0.625 -1.6875 0.78125q0.5625 0.328125 0.921875 0.734375q0.375 0.390625 0.984375 1.390625l1.0625 1.671875l-2.078125 0l-1.25 -1.875q-0.671875 -1.0 -0.921875 -1.25q-0.25 -0.265625 -0.53125 -0.359375q-0.265625 -0.109375 -0.859375 -0.109375l-0.359375 0l0 3.59375l-1.734375 0zm1.734375 -4.953125l1.28125 0q1.25 0 1.5625 -0.109375q0.3125 -0.109375 0.484375 -0.359375q0.1875 -0.265625 0.1875 -0.65625q0 -0.421875 -0.234375 -0.6875q-0.234375 -0.265625 -0.65625 -0.34375q-0.21875 -0.03125 -1.265625 -0.03125l-1.359375 0l0 2.1875zm6.9316406 4.953125l0 -8.59375l6.375 0l0 1.453125l-4.640625 0l0 1.90625l4.3125 0l0 1.453125l-4.3125 0l0 2.328125l4.796875 0l0 1.453125l-6.53125 0zm7.5664062 -2.796875l1.6875 -0.15625q0.15625 0.84375 0.609375 1.25q0.46875 0.390625 1.265625 0.390625q0.828125 0 1.25 -0.34375q0.4375 -0.359375 0.4375 -0.84375q0 -0.296875 -0.1875 -0.515625q-0.171875 -0.21875 -0.625 -0.375q-0.296875 -0.109375 -1.375 -0.375q-1.40625 -0.34375 -1.96875 -0.84375q-0.78125 -0.71875 -0.78125 -1.734375q0 -0.65625 0.359375 -1.21875q0.375 -0.578125 1.078125 -0.875q0.703125 -0.296875 1.6875 -0.296875q1.625 0 2.4375 0.71875q0.8125 0.703125 0.859375 1.875l-1.734375 0.078125q-0.109375 -0.65625 -0.484375 -0.9375q-0.359375 -0.296875 -1.09375 -0.296875q-0.75 0 -1.1875 0.3125q-0.265625 0.1875 -0.265625 0.53125q0 0.296875 0.25 0.515625q0.328125 0.28125 1.59375 0.578125q1.265625 0.296875 1.875 0.625q0.609375 0.3125 0.953125 0.875q0.34375 0.546875 0.34375 1.359375q0 0.734375 -0.421875 1.390625q-0.40625 0.640625 -1.15625 0.953125q-0.75 0.3125 -1.859375 0.3125q-1.640625 0 -2.515625 -0.75q-0.859375 -0.765625 -1.03125 -2.203125zm8.003906 0l1.6875 -0.15625q0.15625 0.84375 0.609375 1.25q0.46875 0.390625 1.265625 0.390625q0.828125 0 1.25 -0.34375q0.4375 -0.359375 0.4375 -0.84375q0 -0.296875 -0.1875 -0.515625q-0.171875 -0.21875 -0.625 -0.375q-0.296875 -0.109375 -1.375 -0.375q-1.40625 -0.34375 -1.96875 -0.84375q-0.78125 -0.71875 -0.78125 -1.734375q0 -0.65625 0.359375 -1.21875q0.375 -0.578125 1.078125 -0.875q0.703125 -0.296875 1.6875 -0.296875q1.625 0 2.4375 0.71875q0.8125 0.703125 0.859375 1.875l-1.734375 0.078125q-0.109375 -0.65625 -0.484375 -0.9375q-0.359375 -0.296875 -1.09375 -0.296875q-0.75 0 -1.1875 0.3125q-0.265625 0.1875 -0.265625 0.53125q0 0.296875 0.25 0.515625q0.328125 0.28125 1.59375 0.578125q1.265625 0.296875 1.875 0.625q0.609375 0.3125 0.953125 0.875q0.34375 0.546875 0.34375 1.359375q0 0.734375 -0.421875 1.390625q-0.40625 0.640625 -1.15625 0.953125q-0.75 0.3125 -1.859375 0.3125q-1.640625 0 -2.515625 -0.75q-0.859375 -0.765625 -1.03125 -2.203125z" fill-rule="nonzero"></path><path fill="#ff0000" d="m608.0 103.00787l0 0c0 -23.743896 33.80072 -42.992126 75.49603 -42.992126l0 0c41.695374 0 75.49609 19.24823 75.49609 42.992126l0 0c0 23.743896 -33.80072 42.992126 -75.49609 42.992126l0 0c-41.695312 0 -75.49603 -19.24823 -75.49603 -42.992126z" fill-rule="evenodd"></path><path stroke="#000000" stroke-width="1.0" stroke-linejoin="round" stroke-linecap="butt" d="m608.0 103.00787l0 0c0 -23.743896 33.80072 -42.992126 75.49603 -42.992126l0 0c41.695374 0 75.49609 19.24823 75.49609 42.992126l0 0c0 23.743896 -33.80072 42.992126 -75.49609 42.992126l0 0c-41.695312 0 -75.49603 -19.24823 -75.49603 -42.992126z" fill-rule="evenodd"></path><path fill="#ffffff" d="m662.7216 107.52788l0 -8.59375l5.890625 0l0 1.453125l-4.15625 0l0 2.03125l3.578125 0l0 1.453125l-3.578125 0l0 3.65625l-1.734375 0zm15.064453 0l-1.890625 0l-0.75 -1.953125l-3.4375 0l-0.703125 1.953125l-1.84375 0l3.34375 -8.59375l1.84375 0l3.4375 8.59375zm-3.203125 -3.40625l-1.171875 -3.1875l-1.171875 3.1875l2.34375 0zm4.0722656 3.40625l0 -8.59375l1.734375 0l0 8.59375l-1.734375 0zm3.4277344 0l0 -8.515625l1.734375 0l0 7.0625l4.3125 0l0 1.453125l-6.046875 0zm7.283203 0l0 -8.59375l6.375 0l0 1.453125l-4.640625 0l0 1.90625l4.3125 0l0 1.453125l-4.3125 0l0 2.328125l4.796875 0l0 1.453125l-6.53125 0zm8.003906 -8.59375l3.15625 0q1.078125 0 1.640625 0.171875q0.75 0.21875 1.28125 0.796875q0.546875 0.5625 0.828125 1.390625q0.28125 0.8125 0.28125 2.015625q0 1.0625 -0.25 1.828125q-0.328125 0.9375 -0.921875 1.515625q-0.453125 0.453125 -1.21875 0.6875q-0.578125 0.1875 -1.546875 0.1875l-3.25 0l0 -8.59375zm1.734375 1.453125l0 5.6875l1.28125 0q0.734375 0 1.0625 -0.078125q0.421875 -0.109375 0.6875 -0.359375q0.28125 -0.25 0.453125 -0.828125q0.1875 -0.578125 0.1875 -1.578125q0 -0.984375 -0.1875 -1.515625q-0.171875 -0.546875 -0.484375 -0.84375q-0.3125 -0.296875 -0.796875 -0.40625q-0.375 -0.078125 -1.4375 -0.078125l-0.765625 0z" fill-rule="nonzero"></path><path fill="#6aa84f" d="m608.0 231.98425l0 0c0 -23.743896 33.80072 -42.992126 75.49603 -42.992126l0 0c41.695374 0 75.49609 19.24823 75.49609 42.992126l0 0c0 23.743896 -33.80072 42.992126 -75.49609 42.992126l0 0c-41.695312 0 -75.49603 -19.24823 -75.49603 -42.992126z" fill-rule="evenodd"></path><path stroke="#000000" stroke-width="1.0" stroke-linejoin="round" stroke-linecap="butt" d="m608.0 231.98425l0 0c0 -23.743896 33.80072 -42.992126 75.49603 -42.992126l0 0c41.695374 0 75.49609 19.24823 75.49609 42.992126l0 0c0 23.743896 -33.80072 42.992126 -75.49609 42.992126l0 0c-41.695312 0 -75.49603 -19.24823 -75.49603 -42.992126z" fill-rule="evenodd"></path><path fill="#ffffff" d="m652.20404 233.348l1.671875 0.53125q-0.375 1.40625 -1.28125 2.09375q-0.90625 0.671875 -2.28125 0.671875q-1.71875 0 -2.828125 -1.15625q-1.09375 -1.171875 -1.09375 -3.203125q0 -2.140625 1.109375 -3.328125q1.109375 -1.1875 2.921875 -1.1875q1.578125 0 2.5625 0.921875q0.578125 0.5625 0.875 1.59375l-1.71875 0.40625q-0.15625 -0.671875 -0.640625 -1.046875q-0.484375 -0.390625 -1.171875 -0.390625q-0.953125 0 -1.546875 0.6875q-0.59375 0.671875 -0.59375 2.21875q0 1.625 0.578125 2.3125q0.59375 0.6875 1.53125 0.6875q0.6875 0 1.1875 -0.4375q0.5 -0.4375 0.71875 -1.375zm2.8066406 -1.09375q0 -1.3125 0.40625 -2.203125q0.28125 -0.65625 0.78125 -1.171875q0.515625 -0.515625 1.125 -0.765625q0.796875 -0.34375 1.84375 -0.34375q1.90625 0 3.046875 1.1875q1.140625 1.171875 1.140625 3.265625q0 2.078125 -1.140625 3.25q-1.125 1.171875 -3.015625 1.171875q-1.921875 0 -3.0625 -1.15625q-1.125 -1.171875 -1.125 -3.234375zm1.796875 -0.046875q0 1.453125 0.671875 2.203125q0.671875 0.75 1.703125 0.75q1.046875 0 1.703125 -0.734375q0.671875 -0.75 0.671875 -2.25q0 -1.46875 -0.65625 -2.1875q-0.640625 -0.734375 -1.71875 -0.734375q-1.0625 0 -1.71875 0.734375q-0.65625 0.734375 -0.65625 2.21875zm7.8652344 4.296875l0 -8.59375l2.609375 0l1.546875 5.859375l1.546875 -5.859375l2.59375 0l0 8.59375l-1.609375 0l0 -6.765625l-1.703125 6.765625l-1.671875 0l-1.6875 -6.765625l0 6.765625l-1.625 0zm10.027344 0l0 -8.59375l2.78125 0q1.578125 0 2.0625 0.125q0.734375 0.203125 1.234375 0.859375q0.5 0.640625 0.5 1.65625q0 0.796875 -0.296875 1.34375q-0.28125 0.53125 -0.71875 0.84375q-0.4375 0.296875 -0.90625 0.40625q-0.609375 0.125 -1.796875 0.125l-1.125 0l0 3.234375l-1.734375 0zm1.734375 -7.140625l0 2.4375l0.953125 0q1.015625 0 1.359375 -0.125q0.359375 -0.140625 0.546875 -0.421875q0.203125 -0.296875 0.203125 -0.671875q0 -0.46875 -0.28125 -0.765625q-0.28125 -0.3125 -0.703125 -0.390625q-0.296875 -0.0625 -1.234375 -0.0625l-0.84375 0zm6.3164062 7.140625l0 -8.515625l1.734375 0l0 7.0625l4.3125 0l0 1.453125l-6.046875 0zm7.283203 0l0 -8.59375l6.375 0l0 1.453125l-4.640625 0l0 1.90625l4.3125 0l0 1.453125l-4.3125 0l0 2.328125l4.796875 0l0 1.453125l-6.53125 0zm9.941406 0l0 -7.140625l-2.546875 0l0 -1.453125l6.8125 0l0 1.453125l-2.53125 0l0 7.140625l-1.734375 0zm5.392578 0l0 -8.59375l6.375 0l0 1.453125l-4.640625 0l0 1.90625l4.3125 0l0 1.453125l-4.3125 0l0 2.328125l4.796875 0l0 1.453125l-6.53125 0zm8.003906 -8.59375l3.15625 0q1.078125 0 1.640625 0.171875q0.75 0.21875 1.28125 0.796875q0.546875 0.5625 0.828125 1.390625q0.28125 0.8125 0.28125 2.015625q0 1.0625 -0.25 1.828125q-0.328125 0.9375 -0.921875 1.515625q-0.453125 0.453125 -1.21875 0.6875q-0.578125 0.1875 -1.546875 0.1875l-3.25 0l0 -8.59375zm1.734375 1.453125l0 5.6875l1.28125 0q0.734375 0 1.0625 -0.078125q0.421875 -0.109375 0.6875 -0.359375q0.28125 -0.25 0.453125 -0.828125q0.1875 -0.578125 0.1875 -1.578125q0 -0.984375 -0.1875 -1.515625q-0.171875 -0.546875 -0.484375 -0.84375q-0.3125 -0.296875 -0.796875 -0.40625q-0.375 -0.078125 -1.4375 -0.078125l-0.765625 0z" fill-rule="nonzero"></path><path fill="#980000" d="m608.0 360.96063l0 0c0 -23.743896 33.80072 -42.992126 75.49603 -42.992126l0 0c41.695374 0 75.49609 19.24823 75.49609 42.992126l0 0c0 23.743896 -33.80072 42.992126 -75.49609 42.992126l0 0c-41.695312 0 -75.49603 -19.24823 -75.49603 -42.992126z" fill-rule="evenodd"></path><path stroke="#000000" stroke-width="1.0" stroke-linejoin="round" stroke-linecap="butt" d="m608.0 360.96063l0 0c0 -23.743896 33.80072 -42.992126 75.49603 -42.992126l0 0c41.695374 0 75.49609 19.24823 75.49609 42.992126l0 0c0 23.743896 -33.80072 42.992126 -75.49609 42.992126l0 0c-41.695312 0 -75.49603 -19.24823 -75.49603 -42.992126z" fill-rule="evenodd"></path><path fill="#f3f3f3" d="m652.872 362.32437l1.671875 0.53125q-0.375 1.40625 -1.28125 2.09375q-0.90625 0.671875 -2.28125 0.671875q-1.71875 0 -2.828125 -1.15625q-1.09375 -1.171875 -1.09375 -3.203125q0 -2.140625 1.109375 -3.328125q1.109375 -1.1875 2.921875 -1.1875q1.578125 0 2.5625 0.921875q0.578125 0.5625 0.875 1.59375l-1.71875 0.40625q-0.15625 -0.671875 -0.640625 -1.046875q-0.484375 -0.390625 -1.171875 -0.390625q-0.953125 0 -1.546875 0.6875q-0.59375 0.671875 -0.59375 2.21875q0 1.625 0.578125 2.3125q0.59375 0.6875 1.53125 0.6875q0.6875 0 1.1875 -0.4375q0.5 -0.4375 0.71875 -1.375zm10.916016 3.15625l-1.890625 0l-0.75 -1.953125l-3.4375 0l-0.703125 1.953125l-1.84375 0l3.34375 -8.59375l1.84375 0l3.4375 8.59375zm-3.203125 -3.40625l-1.171875 -3.1875l-1.171875 3.1875l2.34375 0zm4.1347656 3.40625l0 -8.59375l1.6875 0l3.515625 5.734375l0 -5.734375l1.609375 0l0 8.59375l-1.734375 0l-3.46875 -5.609375l0 5.609375l-1.609375 0zm14.150391 -3.15625l1.671875 0.53125q-0.375 1.40625 -1.28125 2.09375q-0.90625 0.671875 -2.28125 0.671875q-1.71875 0 -2.828125 -1.15625q-1.09375 -1.171875 -1.09375 -3.203125q0 -2.140625 1.109375 -3.328125q1.109375 -1.1875 2.921875 -1.1875q1.578125 0 2.5625 0.921875q0.578125 0.5625 0.875 1.59375l-1.71875 0.40625q-0.15625 -0.671875 -0.640625 -1.046875q-0.484375 -0.390625 -1.171875 -0.390625q-0.953125 0 -1.546875 0.6875q-0.59375 0.671875 -0.59375 2.21875q0 1.625 0.578125 2.3125q0.59375 0.6875 1.53125 0.6875q0.6875 0 1.1875 -0.4375q0.5 -0.4375 0.71875 -1.375zm3.1660156 3.15625l0 -8.59375l6.375 0l0 1.453125l-4.640625 0l0 1.90625l4.3125 0l0 1.453125l-4.3125 0l0 2.328125l4.796875 0l0 1.453125l-6.53125 0zm8.050781 0l0 -8.515625l1.734375 0l0 7.0625l4.3125 0l0 1.453125l-6.046875 0zm7.330078 0l0 -8.515625l1.734375 0l0 7.0625l4.3125 0l0 1.453125l-6.046875 0zm7.283203 0l0 -8.59375l6.375 0l0 1.453125l-4.640625 0l0 1.90625l4.3125 0l0 1.453125l-4.3125 0l0 2.328125l4.796875 0l0 1.453125l-6.53125 0zm8.003906 -8.59375l3.15625 0q1.078125 0 1.640625 0.171875q0.75 0.21875 1.28125 0.796875q0.546875 0.5625 0.828125 1.390625q0.28125 0.8125 0.28125 2.015625q0 1.0625 -0.25 1.828125q-0.328125 0.9375 -0.921875 1.515625q-0.453125 0.453125 -1.21875 0.6875q-0.578125 0.1875 -1.546875 0.1875l-3.25 0l0 -8.59375zm1.734375 1.453125l0 5.6875l1.28125 0q0.734375 0 1.0625 -0.078125q0.421875 -0.109375 0.6875 -0.359375q0.28125 -0.25 0.453125 -0.828125q0.1875 -0.578125 0.1875 -1.578125q0 -0.984375 -0.1875 -1.515625q-0.171875 -0.546875 -0.484375 -0.84375q-0.3125 -0.296875 -0.796875 -0.40625q-0.375 -0.078125 -1.4375 -0.078125l-0.765625 0z" fill-rule="nonzero"></path><path fill="#000000" fill-opacity="0.0" d="m265.98425 188.99213l54.015747 0" fill-rule="evenodd"></path><path stroke="#000000" stroke-width="1.0" stroke-linejoin="round" stroke-linecap="butt" d="m265.98425 188.99213l48.015747 0" fill-rule="evenodd"></path><path fill="#000000" stroke="#000000" stroke-width="1.0" stroke-linecap="butt" d="m314.0 190.64386l4.538086 -1.6517334l-4.538086 -1.6517334z" fill-rule="evenodd"></path><path fill="#000000" fill-opacity="0.0" d="m470.99213 188.99213l137.00787 -85.98425" fill-rule="evenodd"></path><path stroke="#000000" stroke-width="1.0" stroke-linejoin="round" stroke-linecap="butt" d="m470.99213 188.99213l131.92578 -82.794815" fill-rule="evenodd"></path><path fill="#000000" stroke="#000000" stroke-width="1.0" stroke-linecap="butt" d="m603.79596 107.59635l2.9658203 -3.8113708l-4.721863 1.013298z" fill-rule="evenodd"></path><path fill="#000000" fill-opacity="0.0" d="m470.99213 188.99213l137.00787 42.992126" fill-rule="evenodd"></path><path stroke="#000000" stroke-width="1.0" stroke-linejoin="round" stroke-linecap="butt" d="m470.99213 188.99213l131.28308 41.19574" fill-rule="evenodd"></path><path fill="#000000" stroke="#000000" stroke-width="1.0" stroke-linecap="butt" d="m601.7807 231.76382l4.824463 -0.2172699l-3.8353882 -2.9346619z" fill-rule="evenodd"></path><path fill="#000000" fill-opacity="0.0" d="m470.99213 188.99213l137.00787 171.9685" fill-rule="evenodd"></path><path stroke="#000000" stroke-width="1.0" stroke-linejoin="round" stroke-linecap="butt" d="m470.99213 188.99213l133.26917 167.27576" fill-rule="evenodd"></path><path fill="#000000" stroke="#000000" stroke-width="1.0" stroke-linecap="butt" d="m602.9694 357.29712l4.119629 2.520111l-1.5358887 -4.578583z" fill-rule="evenodd"></path><path fill="#000000" fill-opacity="0.0" d="m243.87196 219.39215l364.12598 141.5748" fill-rule="evenodd"></path><path stroke="#000000" stroke-width="1.0" stroke-linejoin="round" stroke-linecap="butt" d="m243.87196 219.39214l358.5338 139.40053" fill-rule="evenodd"></path><path fill="#000000" stroke="#000000" stroke-width="1.0" stroke-linecap="butt" d="m601.8072 360.33212l4.828247 0.10507202l-3.6311035 -3.1839905z" fill-rule="evenodd"></path><path fill="#000000" fill-opacity="0.0" d="m448.87985 158.5921c0 -33.29605 -26.692932 -66.599976 -53.385834 -66.5921c-26.692932 0.007873535 -53.385834 33.327545 -53.385834 66.65509" fill-rule="evenodd"></path><path stroke="#000000" stroke-width="1.0" stroke-linejoin="round" stroke-linecap="butt" d="m448.87985 158.5921c0 -33.29605 -26.692932 -66.599976 -53.385834 -66.5921c-13.346466 0.0039367676 -26.692932 8.335823 -36.70276 20.832664c-5.0049133 6.248436 -9.17569 13.538094 -12.095215 21.348625c-1.4597778 3.9052582 -2.60672 7.940735 -3.3887634 12.041382c-0.3909912 2.0503387 -0.6907959 4.1169434 -0.89282227 6.1917267l-0.022613525 0.247406" fill-rule="evenodd"></path><path fill="#000000" stroke="#000000" stroke-width="1.0" stroke-linecap="butt" d="m340.74197 152.58371l1.4353333 4.6111145l1.8644409 -4.4549255z" fill-rule="evenodd"></path></g></svg>

