<?xml version="1.0" encoding="utf-8"?>
<svg version="1.1" xmlns="http://www.w3.org/2000/svg" viewBox="0 0 1180 320" xml:space="preserve">
  <path d="M444.7,68.2c-47.3,0-86.1,38.7-86.1,86.1s38.7,86.1,86.1,86.1s86.1-38.5,86.1-86.1S492.2,68.2,444.7,68.2z M444.7,209.5c-29.4,0-53.1-24.1-53.1-55.2S415.3,99,444.7,99c29.4,0,53.1,24.1,53.1,55.2S474.1,209.5,444.7,209.5z"/>
  <path d="M617.7,116c-15.5,0-30.6,6.2-38.5,16.7v-14.3h-31.1v167.3h31.1v-60.5c7.9,9.8,22.5,15.1,38.5,15.1c33.5,0,59.8-26.3,59.8-62.2S651.2,116,617.7,116z M612.5,213.3c-17.7,0-33.5-13.9-33.5-35.1s15.8-35.1,33.5-35.1c17.7,0,33.5,13.9,33.5,35.1S630.2,213.3,612.5,213.3z"/>
  <path d="M750.6,116c-33.9,0-60.7,26.5-60.7,62.2s23.4,62.2,61.7,62.2c31.3,0,51.4-18.9,57.6-40.2h-30.4c-3.8,8.8-14.6,15.1-27.5,15.1c-16,0-28.2-11.2-31.1-27.3h90.4v-12.2C810.6,143.2,787.9,116,750.6,116z M720.5,165.9c3.3-15.1,15.8-24.9,30.8-24.9c16,0,28.2,10.5,29.6,24.9H720.5z"/>
  <path d="M893.3,116c-13.9,0-28.4,6.2-35.1,16.5v-14.1h-31.1v119.5h31.1v-64.3c0-18.6,10-30.8,26.3-30.8c15.1,0,23.2,11.5,23.2,27.5v67.6h31.1v-72.7C938.8,135.6,920.6,116,893.3,116z"/>
  <path d="M1018.3,70.6l-67.6,167.3h33.2l14.3-36.6h77l14.3,36.6h33.7l-67.2-167.3H1018.3z M1009,173.6l27.7-70l27.5,70H1009z"/>
  <path d="M1167.5,70.6H1136v167.3h31.6V70.6z"/>
  <path d="M123.2,118.3V85c0-2.2,0.6-3.8,2.9-5.1L187.9,44c8.3-4.8,18.9-7,29.2-7c39.1,0,63.8,30.1,63.8,62.5c0,2.6,0,6.1-0.6,9l-64.7-37.8c-3.2-1.9-6.7-2.2-10.6,0L123.2,118.3z M266.1,236.6v-74c0-4.2-1.6-7-5.4-9.3l-82-47.7l28.8-16.7c1.6-1,4.2-1,5.8,0l62.2,35.9c17.6,10.3,29.8,32.7,29.8,54.1C305.2,204.2,289.8,227.6,266.1,236.6z M106.2,172.8l-28.5-17c-2.2-1.3-2.9-2.9-2.9-5.1V79.3c0-34.9,26.6-61.2,62.8-61.2c14.1,0,27.6,4.8,38.4,13.5L111.7,69c-3.8,2.2-5.4,5.1-5.4,9.3V172.8z M162,204.9l-38.8-21.8v-46.1l38.8-21.8l38.4,21.8v46.1L162,204.9z M186,301.9c-14.1,0-27.6-4.8-38.4-13.5L212,251c3.8-2.2,5.4-5.1,5.4-9.3v-94.5l28.8,17c2.2,1.3,2.9,2.9,2.9,5.1v71.5C249.1,275.7,222.2,301.9,186,301.9z M110.4,231.1l-62.2-35.9c-17.6-10.3-29.8-32.7-29.8-54.1c0-25.6,15.7-48.7,39.4-57.7v74.3c0,4.2,1.6,7,5.4,9.3l81.7,47.4l-28.8,16.7C114.6,232.1,112,232.1,110.4,231.1z M106.5,283c-36.8,0-63.8-27.6-63.8-61.8c0-3.2,0.3-6.4,0.6-9.3l64.4,37.2c3.8,2.2,7,2.2,10.9,0l81.7-47.4V235c0,2.2-0.6,3.8-2.9,5.1L135.7,276C127.4,280.8,116.8,283,106.5,283z M186,319.2c38.4,0,70.5-27.6,77.5-64.1c35.9-9,59-42.3,59-76.3c0-22.4-9.6-43.9-27.2-59.6c1.6-6.7,2.9-13.8,2.9-20.5c0-45.2-36.8-79.1-79.1-79.1c-8.7,0-17.3,1.6-25.6,4.5C179,9.7,159.4,0.8,137.6,0.8c-38.4,0-70.5,27.6-77.5,64.1c-35.9,9-59,42.3-59,76.3c0,22.4,9.6,43.9,27.2,59.6c-1.6,6.7-2.9,13.8-2.9,20.5c0,45.2,36.8,79.1,79.1,79.1c8.7,0,17.3-1.6,25.6-4.5C144.7,310.3,164.2,319.2,186,319.2z"/>
</svg>
