<svg version="1.1" id="svg39" width="874.922" height="185.4" xmlns="http://www.w3.org/2000/svg"><defs id="defs11"><style id="style9">.cls-2{fill:#242a36}.cls-3{fill:#1976d2}</style></defs><g id="Layer_2" data-name="Layer 2" transform="translate(-73.828 -68)"><path id="rect13" style="fill:none" d="M0 0h1022.01v320.7H0z"/><path class="cls-2" d="M433.91 140.05q-14.78 0-25 9.56t-10.22 24.58q0 15 10.22 24.65 10.22 9.65 25 9.62a34.71 34.71 0 0 0 24.78-9.62q10.14-9.63 10.15-24.65.01-15.02-10.09-24.58-10.08-9.55-24.84-9.56zm15.15 50.29a21.72 21.72 0 0 1-30.51 0q-6.39-6.27-6.39-16.15 0-9.88 6.39-16.19a21.72 21.72 0 0 1 30.51 0q6.46 6.27 6.46 16.15 0 9.88-6.46 16.19z" id="path15"/><path class="cls-2" d="M515.55 139.66q-14.37 0-22.67 9.88v-8h-13.71v65.38h13.71v-30.23q0-12 5.21-18.18t14.3-6.2a14.28 14.28 0 0 1 11.27 4.88q4.29 4.88 4.28 12.91v36.78h13.84v-39.54q0-12.27-7.25-20t-18.98-7.68z" id="path17"/><path class="cls-2" d="M607 149q-9.09-9.34-23.72-9.35a31 31 0 0 0-22.8 9.75q-9.63 9.75-9.62 24.78.01 15.03 9.59 24.82a31 31 0 0 0 22.8 9.75q14.5 0 23.72-9.22v7.38h13.85V112H607Zm-6.45 41.39a21.06 21.06 0 0 1-15 6.2 20.48 20.48 0 0 1-15.16-6.13q-6.06-6.14-6.06-16.28t6-16.18a20.35 20.35 0 0 1 15.16-6.2 21 21 0 0 1 15 6.26q6.45 6.27 6.45 16.15 0 9.88-6.42 16.19z" id="path19"/><path class="cls-2" d="M682.64 171.68q0 12-5.14 18.2-5.14 6.2-14.23 6.19a14.35 14.35 0 0 1-11.4-4.94q-4.29-4.95-4.28-13V141.5h-13.71v39.41q0 12.39 7.18 20.1 7.18 7.71 19.05 7.71 14.24 0 22.53-9.88v8h13.71V141.5h-13.71z" id="path21"/><path class="cls-2" d="M860.21 140.05q-14.76 0-25 9.56T825 174.19q0 15 10.22 24.65 10.22 9.65 25 9.62a34.67 34.67 0 0 0 24.78-9.62q10.15-9.63 10.15-24.65 0-15.02-10.08-24.58-10.07-9.55-24.86-9.56zm15.16 50.29a21.72 21.72 0 0 1-30.51 0q-6.39-6.27-6.39-16.15 0-9.88 6.39-16.19a21.72 21.72 0 0 1 30.51 0q6.46 6.27 6.46 16.15 0 9.88-6.46 16.19z" id="path23"/><path class="cls-2" d="M944.1 140.71q-15.95 0-24.91 14.76v-14h-13.71v65.38h13.71v-23.04q0-13.83 6.33-21.68t18.48-7.84a36 36 0 0 1 3.82.13l.93-13.18a16.36 16.36 0 0 0-4.65-.53z" id="path25"/><path class="cls-2" d="M347.63 130.18a30.08 30.08 0 0 1 21 9.28 31.21 31.21 0 0 1 7.7 13.48h14.73a44.39 44.39 0 0 0-87.87 9.78q0 19.38 13.38 32.69a43 43 0 0 0 62.07 0 43.7 43.7 0 0 0 12.28-22.27h-14.75a31.37 31.37 0 0 1-7.52 12.86 28.48 28.48 0 0 1-42 0q-9.15-9.44-9.16-23.27-.01-13.83 9.16-23.26a30.08 30.08 0 0 1 20.98-9.29z" id="path27"/><path class="cls-2" d="M740.55 152.31a20.21 20.21 0 0 1 19.85 14.1h13.91a31.94 31.94 0 0 0-9.31-17 35.54 35.54 0 0 0-48.91 0Q706 159.16 706 174.19q0 15.03 10.09 24.81a35.7 35.7 0 0 0 48.91 0 31.68 31.68 0 0 0 9.23-16.67h-13.88a19.45 19.45 0 0 1-4.65 7.71 20.38 20.38 0 0 1-15.15 6q-9.24 0-15.16-6t-5.93-15.88q0-9.62 6-15.75a20.23 20.23 0 0 1 15.09-6.1z" id="path29"/><path class="cls-2" d="M808.24 195.81a10.32 10.32 0 0 1-7.91-3.1q-2.9-3.11-2.9-9v-30.87h22.41V141.5h-22.41v-20.3h-13.7v63.4q0 11.86 6.32 18 6.32 6.14 17.27 6.13 7.77 0 16.21-5l-4.22-11.46a19.91 19.91 0 0 1-11.07 3.54z" id="path31"/><path class="cls-3" d="m237.69 171.63-25.39 44a5.75 5.75 0 0 1-5 2.88h-8.51l27.06-46.86h-15.1l-27.06 46.86h-36.44a5.76 5.76 0 0 1-5-2.88l-30-52a5.74 5.74 0 0 1 0-5.75l30-52a5.75 5.75 0 0 1 5-2.87h28.86l-5.69-9.86a23 23 0 0 0-2.37-3.24h-20.8a18.88 18.88 0 0 0-16.31 9.42l-30 52a18.87 18.87 0 0 0 0 18.84l30 52a18.91 18.91 0 0 0 16.32 9.42h60.07a18.91 18.91 0 0 0 16.32-9.42l29.17-50.53z" id="path33"/><path class="cls-3" d="M167.15 238.13a23.94 23.94 0 0 1-9.88 2.18H143a24 24 0 0 1-20.73-12l-32.16-55.62a24 24 0 0 1 0-23.94l32.13-55.66a24 24 0 0 1 20.73-12h14.3a24 24 0 0 1 20.74 12l32.74 56.71h15.12L198.81 103h8.51a5.76 5.76 0 0 1 5 2.87l25.39 44h15.12l-29.19-50.6a18.91 18.91 0 0 0-16.32-9.42h-16.07l-1.9-3.31A37.15 37.15 0 0 0 157.27 68H143a37.12 37.12 0 0 0-32.1 18.54L78.77 142.2a37.1 37.1 0 0 0 0 37l32.13 55.66A37.12 37.12 0 0 0 143 253.4h14.3a37.11 37.11 0 0 0 29.9-15.27z" id="path35"/></g></svg>